G04 #@! TF.GenerationSoftware,KiCad,Pcbnew,9.0.0*
G04 #@! TF.CreationDate,2025-04-30T01:10:54-03:00*
G04 #@! TF.ProjectId,hw_rfid,68775f72-6669-4642-9e6b-696361645f70,rev?*
G04 #@! TF.SameCoordinates,Original*
G04 #@! TF.FileFunction,Legend,Top*
G04 #@! TF.FilePolarity,Positive*
%FSLAX46Y46*%
G04 Gerber Fmt 4.6, Leading zero omitted, Abs format (unit mm)*
G04 Created by KiCad (PCBNEW 9.0.0) date 2025-04-30 01:10:54*
%MOMM*%
%LPD*%
G01*
G04 APERTURE LIST*
G04 Aperture macros list*
%AMRoundRect*
0 Rectangle with rounded corners*
0 $1 Rounding radius*
0 $2 $3 $4 $5 $6 $7 $8 $9 X,Y pos of 4 corners*
0 Add a 4 corners polygon primitive as box body*
4,1,4,$2,$3,$4,$5,$6,$7,$8,$9,$2,$3,0*
0 Add four circle primitives for the rounded corners*
1,1,$1+$1,$2,$3*
1,1,$1+$1,$4,$5*
1,1,$1+$1,$6,$7*
1,1,$1+$1,$8,$9*
0 Add four rect primitives between the rounded corners*
20,1,$1+$1,$2,$3,$4,$5,0*
20,1,$1+$1,$4,$5,$6,$7,0*
20,1,$1+$1,$6,$7,$8,$9,0*
20,1,$1+$1,$8,$9,$2,$3,0*%
G04 Aperture macros list end*
%ADD10C,0.150000*%
%ADD11C,0.120000*%
%ADD12C,0.200000*%
%ADD13C,0.127000*%
%ADD14C,0.100000*%
%ADD15RoundRect,0.250000X-0.262500X-0.450000X0.262500X-0.450000X0.262500X0.450000X-0.262500X0.450000X0*%
%ADD16RoundRect,0.250000X-0.250000X-0.475000X0.250000X-0.475000X0.250000X0.475000X-0.250000X0.475000X0*%
%ADD17R,0.475000X0.300000*%
%ADD18RoundRect,0.225000X-0.250000X0.225000X-0.250000X-0.225000X0.250000X-0.225000X0.250000X0.225000X0*%
%ADD19R,1.700000X1.700000*%
%ADD20O,1.700000X1.700000*%
%ADD21RoundRect,0.250000X0.450000X-0.262500X0.450000X0.262500X-0.450000X0.262500X-0.450000X-0.262500X0*%
%ADD22RoundRect,0.218750X-0.218750X-0.381250X0.218750X-0.381250X0.218750X0.381250X-0.218750X0.381250X0*%
%ADD23RoundRect,0.250000X-0.830000X-0.310000X0.830000X-0.310000X0.830000X0.310000X-0.830000X0.310000X0*%
%ADD24C,2.000000*%
%ADD25RoundRect,0.200000X-0.200000X-0.275000X0.200000X-0.275000X0.200000X0.275000X-0.200000X0.275000X0*%
%ADD26RoundRect,0.225000X0.250000X-0.225000X0.250000X0.225000X-0.250000X0.225000X-0.250000X-0.225000X0*%
%ADD27RoundRect,0.200000X0.200000X0.275000X-0.200000X0.275000X-0.200000X-0.275000X0.200000X-0.275000X0*%
%ADD28RoundRect,0.250000X0.262500X0.450000X-0.262500X0.450000X-0.262500X-0.450000X0.262500X-0.450000X0*%
%ADD29RoundRect,0.098000X-0.859000X-0.294000X0.859000X-0.294000X0.859000X0.294000X-0.859000X0.294000X0*%
%ADD30RoundRect,0.243750X-0.243750X-0.456250X0.243750X-0.456250X0.243750X0.456250X-0.243750X0.456250X0*%
%ADD31RoundRect,0.250000X-0.450000X0.262500X-0.450000X-0.262500X0.450000X-0.262500X0.450000X0.262500X0*%
%ADD32R,0.450000X0.350000*%
%ADD33R,0.450000X0.250000*%
%ADD34R,1.000000X1.600000*%
%ADD35R,0.900000X0.100000*%
%ADD36RoundRect,0.250000X1.000000X0.650000X-1.000000X0.650000X-1.000000X-0.650000X1.000000X-0.650000X0*%
%ADD37RoundRect,0.250000X-0.600000X-0.750000X0.600000X-0.750000X0.600000X0.750000X-0.600000X0.750000X0*%
%ADD38O,1.700000X2.000000*%
%ADD39RoundRect,0.150000X-0.587500X-0.150000X0.587500X-0.150000X0.587500X0.150000X-0.587500X0.150000X0*%
%ADD40RoundRect,0.062500X-0.375000X-0.062500X0.375000X-0.062500X0.375000X0.062500X-0.375000X0.062500X0*%
%ADD41RoundRect,0.062500X-0.062500X-0.375000X0.062500X-0.375000X0.062500X0.375000X-0.062500X0.375000X0*%
%ADD42R,3.450000X3.450000*%
G04 APERTURE END LIST*
D10*
X105000000Y-97550000D02*
X105250000Y-97800000D01*
X111200000Y-101400000D02*
X111200000Y-100450000D01*
X111200000Y-100450000D02*
X111575000Y-100125000D01*
X111575000Y-100125000D02*
X111675000Y-100050000D01*
X105000000Y-96850000D02*
X105000000Y-97550000D01*
X101933333Y-113954819D02*
X101600000Y-113478628D01*
X101361905Y-113954819D02*
X101361905Y-112954819D01*
X101361905Y-112954819D02*
X101742857Y-112954819D01*
X101742857Y-112954819D02*
X101838095Y-113002438D01*
X101838095Y-113002438D02*
X101885714Y-113050057D01*
X101885714Y-113050057D02*
X101933333Y-113145295D01*
X101933333Y-113145295D02*
X101933333Y-113288152D01*
X101933333Y-113288152D02*
X101885714Y-113383390D01*
X101885714Y-113383390D02*
X101838095Y-113431009D01*
X101838095Y-113431009D02*
X101742857Y-113478628D01*
X101742857Y-113478628D02*
X101361905Y-113478628D01*
X102266667Y-112954819D02*
X102933333Y-112954819D01*
X102933333Y-112954819D02*
X102504762Y-113954819D01*
X112301142Y-114307580D02*
X112253523Y-114355200D01*
X112253523Y-114355200D02*
X112110666Y-114402819D01*
X112110666Y-114402819D02*
X112015428Y-114402819D01*
X112015428Y-114402819D02*
X111872571Y-114355200D01*
X111872571Y-114355200D02*
X111777333Y-114259961D01*
X111777333Y-114259961D02*
X111729714Y-114164723D01*
X111729714Y-114164723D02*
X111682095Y-113974247D01*
X111682095Y-113974247D02*
X111682095Y-113831390D01*
X111682095Y-113831390D02*
X111729714Y-113640914D01*
X111729714Y-113640914D02*
X111777333Y-113545676D01*
X111777333Y-113545676D02*
X111872571Y-113450438D01*
X111872571Y-113450438D02*
X112015428Y-113402819D01*
X112015428Y-113402819D02*
X112110666Y-113402819D01*
X112110666Y-113402819D02*
X112253523Y-113450438D01*
X112253523Y-113450438D02*
X112301142Y-113498057D01*
X113253523Y-114402819D02*
X112682095Y-114402819D01*
X112967809Y-114402819D02*
X112967809Y-113402819D01*
X112967809Y-113402819D02*
X112872571Y-113545676D01*
X112872571Y-113545676D02*
X112777333Y-113640914D01*
X112777333Y-113640914D02*
X112682095Y-113688533D01*
X113872571Y-113402819D02*
X113967809Y-113402819D01*
X113967809Y-113402819D02*
X114063047Y-113450438D01*
X114063047Y-113450438D02*
X114110666Y-113498057D01*
X114110666Y-113498057D02*
X114158285Y-113593295D01*
X114158285Y-113593295D02*
X114205904Y-113783771D01*
X114205904Y-113783771D02*
X114205904Y-114021866D01*
X114205904Y-114021866D02*
X114158285Y-114212342D01*
X114158285Y-114212342D02*
X114110666Y-114307580D01*
X114110666Y-114307580D02*
X114063047Y-114355200D01*
X114063047Y-114355200D02*
X113967809Y-114402819D01*
X113967809Y-114402819D02*
X113872571Y-114402819D01*
X113872571Y-114402819D02*
X113777333Y-114355200D01*
X113777333Y-114355200D02*
X113729714Y-114307580D01*
X113729714Y-114307580D02*
X113682095Y-114212342D01*
X113682095Y-114212342D02*
X113634476Y-114021866D01*
X113634476Y-114021866D02*
X113634476Y-113783771D01*
X113634476Y-113783771D02*
X113682095Y-113593295D01*
X113682095Y-113593295D02*
X113729714Y-113498057D01*
X113729714Y-113498057D02*
X113777333Y-113450438D01*
X113777333Y-113450438D02*
X113872571Y-113402819D01*
X103323810Y-119654819D02*
X103323810Y-118654819D01*
X104371428Y-119559580D02*
X104323809Y-119607200D01*
X104323809Y-119607200D02*
X104180952Y-119654819D01*
X104180952Y-119654819D02*
X104085714Y-119654819D01*
X104085714Y-119654819D02*
X103942857Y-119607200D01*
X103942857Y-119607200D02*
X103847619Y-119511961D01*
X103847619Y-119511961D02*
X103800000Y-119416723D01*
X103800000Y-119416723D02*
X103752381Y-119226247D01*
X103752381Y-119226247D02*
X103752381Y-119083390D01*
X103752381Y-119083390D02*
X103800000Y-118892914D01*
X103800000Y-118892914D02*
X103847619Y-118797676D01*
X103847619Y-118797676D02*
X103942857Y-118702438D01*
X103942857Y-118702438D02*
X104085714Y-118654819D01*
X104085714Y-118654819D02*
X104180952Y-118654819D01*
X104180952Y-118654819D02*
X104323809Y-118702438D01*
X104323809Y-118702438D02*
X104371428Y-118750057D01*
X104752381Y-118750057D02*
X104800000Y-118702438D01*
X104800000Y-118702438D02*
X104895238Y-118654819D01*
X104895238Y-118654819D02*
X105133333Y-118654819D01*
X105133333Y-118654819D02*
X105228571Y-118702438D01*
X105228571Y-118702438D02*
X105276190Y-118750057D01*
X105276190Y-118750057D02*
X105323809Y-118845295D01*
X105323809Y-118845295D02*
X105323809Y-118940533D01*
X105323809Y-118940533D02*
X105276190Y-119083390D01*
X105276190Y-119083390D02*
X104704762Y-119654819D01*
X104704762Y-119654819D02*
X105323809Y-119654819D01*
X116791667Y-101036104D02*
X116753571Y-101074200D01*
X116753571Y-101074200D02*
X116639286Y-101112295D01*
X116639286Y-101112295D02*
X116563095Y-101112295D01*
X116563095Y-101112295D02*
X116448809Y-101074200D01*
X116448809Y-101074200D02*
X116372619Y-100998009D01*
X116372619Y-100998009D02*
X116334524Y-100921819D01*
X116334524Y-100921819D02*
X116296428Y-100769438D01*
X116296428Y-100769438D02*
X116296428Y-100655152D01*
X116296428Y-100655152D02*
X116334524Y-100502771D01*
X116334524Y-100502771D02*
X116372619Y-100426580D01*
X116372619Y-100426580D02*
X116448809Y-100350390D01*
X116448809Y-100350390D02*
X116563095Y-100312295D01*
X116563095Y-100312295D02*
X116639286Y-100312295D01*
X116639286Y-100312295D02*
X116753571Y-100350390D01*
X116753571Y-100350390D02*
X116791667Y-100388485D01*
X117553571Y-101112295D02*
X117096428Y-101112295D01*
X117325000Y-101112295D02*
X117325000Y-100312295D01*
X117325000Y-100312295D02*
X117248809Y-100426580D01*
X117248809Y-100426580D02*
X117172619Y-100502771D01*
X117172619Y-100502771D02*
X117096428Y-100540866D01*
X105881235Y-98461104D02*
X105843139Y-98499200D01*
X105843139Y-98499200D02*
X105728854Y-98537295D01*
X105728854Y-98537295D02*
X105652663Y-98537295D01*
X105652663Y-98537295D02*
X105538377Y-98499200D01*
X105538377Y-98499200D02*
X105462187Y-98423009D01*
X105462187Y-98423009D02*
X105424092Y-98346819D01*
X105424092Y-98346819D02*
X105385996Y-98194438D01*
X105385996Y-98194438D02*
X105385996Y-98080152D01*
X105385996Y-98080152D02*
X105424092Y-97927771D01*
X105424092Y-97927771D02*
X105462187Y-97851580D01*
X105462187Y-97851580D02*
X105538377Y-97775390D01*
X105538377Y-97775390D02*
X105652663Y-97737295D01*
X105652663Y-97737295D02*
X105728854Y-97737295D01*
X105728854Y-97737295D02*
X105843139Y-97775390D01*
X105843139Y-97775390D02*
X105881235Y-97813485D01*
X106605044Y-97737295D02*
X106224092Y-97737295D01*
X106224092Y-97737295D02*
X106185996Y-98118247D01*
X106185996Y-98118247D02*
X106224092Y-98080152D01*
X106224092Y-98080152D02*
X106300282Y-98042057D01*
X106300282Y-98042057D02*
X106490758Y-98042057D01*
X106490758Y-98042057D02*
X106566949Y-98080152D01*
X106566949Y-98080152D02*
X106605044Y-98118247D01*
X106605044Y-98118247D02*
X106643139Y-98194438D01*
X106643139Y-98194438D02*
X106643139Y-98384914D01*
X106643139Y-98384914D02*
X106605044Y-98461104D01*
X106605044Y-98461104D02*
X106566949Y-98499200D01*
X106566949Y-98499200D02*
X106490758Y-98537295D01*
X106490758Y-98537295D02*
X106300282Y-98537295D01*
X106300282Y-98537295D02*
X106224092Y-98499200D01*
X106224092Y-98499200D02*
X106185996Y-98461104D01*
X118576666Y-76354819D02*
X118576666Y-77069104D01*
X118576666Y-77069104D02*
X118529047Y-77211961D01*
X118529047Y-77211961D02*
X118433809Y-77307200D01*
X118433809Y-77307200D02*
X118290952Y-77354819D01*
X118290952Y-77354819D02*
X118195714Y-77354819D01*
X119005238Y-76450057D02*
X119052857Y-76402438D01*
X119052857Y-76402438D02*
X119148095Y-76354819D01*
X119148095Y-76354819D02*
X119386190Y-76354819D01*
X119386190Y-76354819D02*
X119481428Y-76402438D01*
X119481428Y-76402438D02*
X119529047Y-76450057D01*
X119529047Y-76450057D02*
X119576666Y-76545295D01*
X119576666Y-76545295D02*
X119576666Y-76640533D01*
X119576666Y-76640533D02*
X119529047Y-76783390D01*
X119529047Y-76783390D02*
X118957619Y-77354819D01*
X118957619Y-77354819D02*
X119576666Y-77354819D01*
X98258333Y-94529819D02*
X97925000Y-94053628D01*
X97686905Y-94529819D02*
X97686905Y-93529819D01*
X97686905Y-93529819D02*
X98067857Y-93529819D01*
X98067857Y-93529819D02*
X98163095Y-93577438D01*
X98163095Y-93577438D02*
X98210714Y-93625057D01*
X98210714Y-93625057D02*
X98258333Y-93720295D01*
X98258333Y-93720295D02*
X98258333Y-93863152D01*
X98258333Y-93863152D02*
X98210714Y-93958390D01*
X98210714Y-93958390D02*
X98163095Y-94006009D01*
X98163095Y-94006009D02*
X98067857Y-94053628D01*
X98067857Y-94053628D02*
X97686905Y-94053628D01*
X98639286Y-93625057D02*
X98686905Y-93577438D01*
X98686905Y-93577438D02*
X98782143Y-93529819D01*
X98782143Y-93529819D02*
X99020238Y-93529819D01*
X99020238Y-93529819D02*
X99115476Y-93577438D01*
X99115476Y-93577438D02*
X99163095Y-93625057D01*
X99163095Y-93625057D02*
X99210714Y-93720295D01*
X99210714Y-93720295D02*
X99210714Y-93815533D01*
X99210714Y-93815533D02*
X99163095Y-93958390D01*
X99163095Y-93958390D02*
X98591667Y-94529819D01*
X98591667Y-94529819D02*
X99210714Y-94529819D01*
X90833333Y-121904819D02*
X90357143Y-121904819D01*
X90357143Y-121904819D02*
X90357143Y-120904819D01*
X91690476Y-121904819D02*
X91119048Y-121904819D01*
X91404762Y-121904819D02*
X91404762Y-120904819D01*
X91404762Y-120904819D02*
X91309524Y-121047676D01*
X91309524Y-121047676D02*
X91214286Y-121142914D01*
X91214286Y-121142914D02*
X91119048Y-121190533D01*
X90666667Y-96297200D02*
X90809524Y-96344819D01*
X90809524Y-96344819D02*
X91047619Y-96344819D01*
X91047619Y-96344819D02*
X91142857Y-96297200D01*
X91142857Y-96297200D02*
X91190476Y-96249580D01*
X91190476Y-96249580D02*
X91238095Y-96154342D01*
X91238095Y-96154342D02*
X91238095Y-96059104D01*
X91238095Y-96059104D02*
X91190476Y-95963866D01*
X91190476Y-95963866D02*
X91142857Y-95916247D01*
X91142857Y-95916247D02*
X91047619Y-95868628D01*
X91047619Y-95868628D02*
X90857143Y-95821009D01*
X90857143Y-95821009D02*
X90761905Y-95773390D01*
X90761905Y-95773390D02*
X90714286Y-95725771D01*
X90714286Y-95725771D02*
X90666667Y-95630533D01*
X90666667Y-95630533D02*
X90666667Y-95535295D01*
X90666667Y-95535295D02*
X90714286Y-95440057D01*
X90714286Y-95440057D02*
X90761905Y-95392438D01*
X90761905Y-95392438D02*
X90857143Y-95344819D01*
X90857143Y-95344819D02*
X91095238Y-95344819D01*
X91095238Y-95344819D02*
X91238095Y-95392438D01*
X91571429Y-95344819D02*
X91809524Y-96344819D01*
X91809524Y-96344819D02*
X92000000Y-95630533D01*
X92000000Y-95630533D02*
X92190476Y-96344819D01*
X92190476Y-96344819D02*
X92428572Y-95344819D01*
X92761905Y-95440057D02*
X92809524Y-95392438D01*
X92809524Y-95392438D02*
X92904762Y-95344819D01*
X92904762Y-95344819D02*
X93142857Y-95344819D01*
X93142857Y-95344819D02*
X93238095Y-95392438D01*
X93238095Y-95392438D02*
X93285714Y-95440057D01*
X93285714Y-95440057D02*
X93333333Y-95535295D01*
X93333333Y-95535295D02*
X93333333Y-95630533D01*
X93333333Y-95630533D02*
X93285714Y-95773390D01*
X93285714Y-95773390D02*
X92714286Y-96344819D01*
X92714286Y-96344819D02*
X93333333Y-96344819D01*
X114991667Y-101086104D02*
X114953571Y-101124200D01*
X114953571Y-101124200D02*
X114839286Y-101162295D01*
X114839286Y-101162295D02*
X114763095Y-101162295D01*
X114763095Y-101162295D02*
X114648809Y-101124200D01*
X114648809Y-101124200D02*
X114572619Y-101048009D01*
X114572619Y-101048009D02*
X114534524Y-100971819D01*
X114534524Y-100971819D02*
X114496428Y-100819438D01*
X114496428Y-100819438D02*
X114496428Y-100705152D01*
X114496428Y-100705152D02*
X114534524Y-100552771D01*
X114534524Y-100552771D02*
X114572619Y-100476580D01*
X114572619Y-100476580D02*
X114648809Y-100400390D01*
X114648809Y-100400390D02*
X114763095Y-100362295D01*
X114763095Y-100362295D02*
X114839286Y-100362295D01*
X114839286Y-100362295D02*
X114953571Y-100400390D01*
X114953571Y-100400390D02*
X114991667Y-100438485D01*
X115677381Y-100628961D02*
X115677381Y-101162295D01*
X115486905Y-100324200D02*
X115296428Y-100895628D01*
X115296428Y-100895628D02*
X115791667Y-100895628D01*
X105804167Y-87437295D02*
X105537500Y-87056342D01*
X105347024Y-87437295D02*
X105347024Y-86637295D01*
X105347024Y-86637295D02*
X105651786Y-86637295D01*
X105651786Y-86637295D02*
X105727976Y-86675390D01*
X105727976Y-86675390D02*
X105766071Y-86713485D01*
X105766071Y-86713485D02*
X105804167Y-86789676D01*
X105804167Y-86789676D02*
X105804167Y-86903961D01*
X105804167Y-86903961D02*
X105766071Y-86980152D01*
X105766071Y-86980152D02*
X105727976Y-87018247D01*
X105727976Y-87018247D02*
X105651786Y-87056342D01*
X105651786Y-87056342D02*
X105347024Y-87056342D01*
X106489881Y-86903961D02*
X106489881Y-87437295D01*
X106299405Y-86599200D02*
X106108928Y-87170628D01*
X106108928Y-87170628D02*
X106604167Y-87170628D01*
X107066666Y-105704819D02*
X107066666Y-106419104D01*
X107066666Y-106419104D02*
X107019047Y-106561961D01*
X107019047Y-106561961D02*
X106923809Y-106657200D01*
X106923809Y-106657200D02*
X106780952Y-106704819D01*
X106780952Y-106704819D02*
X106685714Y-106704819D01*
X108019047Y-105704819D02*
X107542857Y-105704819D01*
X107542857Y-105704819D02*
X107495238Y-106181009D01*
X107495238Y-106181009D02*
X107542857Y-106133390D01*
X107542857Y-106133390D02*
X107638095Y-106085771D01*
X107638095Y-106085771D02*
X107876190Y-106085771D01*
X107876190Y-106085771D02*
X107971428Y-106133390D01*
X107971428Y-106133390D02*
X108019047Y-106181009D01*
X108019047Y-106181009D02*
X108066666Y-106276247D01*
X108066666Y-106276247D02*
X108066666Y-106514342D01*
X108066666Y-106514342D02*
X108019047Y-106609580D01*
X108019047Y-106609580D02*
X107971428Y-106657200D01*
X107971428Y-106657200D02*
X107876190Y-106704819D01*
X107876190Y-106704819D02*
X107638095Y-106704819D01*
X107638095Y-106704819D02*
X107542857Y-106657200D01*
X107542857Y-106657200D02*
X107495238Y-106609580D01*
X116746428Y-102858557D02*
X116446428Y-102429985D01*
X116232142Y-102858557D02*
X116232142Y-101958557D01*
X116232142Y-101958557D02*
X116574999Y-101958557D01*
X116574999Y-101958557D02*
X116660714Y-102001414D01*
X116660714Y-102001414D02*
X116703571Y-102044271D01*
X116703571Y-102044271D02*
X116746428Y-102129985D01*
X116746428Y-102129985D02*
X116746428Y-102258557D01*
X116746428Y-102258557D02*
X116703571Y-102344271D01*
X116703571Y-102344271D02*
X116660714Y-102387128D01*
X116660714Y-102387128D02*
X116574999Y-102429985D01*
X116574999Y-102429985D02*
X116232142Y-102429985D01*
X117603571Y-102858557D02*
X117089285Y-102858557D01*
X117346428Y-102858557D02*
X117346428Y-101958557D01*
X117346428Y-101958557D02*
X117260714Y-102087128D01*
X117260714Y-102087128D02*
X117174999Y-102172842D01*
X117174999Y-102172842D02*
X117089285Y-102215700D01*
X118417857Y-101958557D02*
X117989285Y-101958557D01*
X117989285Y-101958557D02*
X117946428Y-102387128D01*
X117946428Y-102387128D02*
X117989285Y-102344271D01*
X117989285Y-102344271D02*
X118075000Y-102301414D01*
X118075000Y-102301414D02*
X118289285Y-102301414D01*
X118289285Y-102301414D02*
X118375000Y-102344271D01*
X118375000Y-102344271D02*
X118417857Y-102387128D01*
X118417857Y-102387128D02*
X118460714Y-102472842D01*
X118460714Y-102472842D02*
X118460714Y-102687128D01*
X118460714Y-102687128D02*
X118417857Y-102772842D01*
X118417857Y-102772842D02*
X118375000Y-102815700D01*
X118375000Y-102815700D02*
X118289285Y-102858557D01*
X118289285Y-102858557D02*
X118075000Y-102858557D01*
X118075000Y-102858557D02*
X117989285Y-102815700D01*
X117989285Y-102815700D02*
X117946428Y-102772842D01*
X106091666Y-76379819D02*
X106091666Y-77094104D01*
X106091666Y-77094104D02*
X106044047Y-77236961D01*
X106044047Y-77236961D02*
X105948809Y-77332200D01*
X105948809Y-77332200D02*
X105805952Y-77379819D01*
X105805952Y-77379819D02*
X105710714Y-77379819D01*
X106472619Y-76379819D02*
X107091666Y-76379819D01*
X107091666Y-76379819D02*
X106758333Y-76760771D01*
X106758333Y-76760771D02*
X106901190Y-76760771D01*
X106901190Y-76760771D02*
X106996428Y-76808390D01*
X106996428Y-76808390D02*
X107044047Y-76856009D01*
X107044047Y-76856009D02*
X107091666Y-76951247D01*
X107091666Y-76951247D02*
X107091666Y-77189342D01*
X107091666Y-77189342D02*
X107044047Y-77284580D01*
X107044047Y-77284580D02*
X106996428Y-77332200D01*
X106996428Y-77332200D02*
X106901190Y-77379819D01*
X106901190Y-77379819D02*
X106615476Y-77379819D01*
X106615476Y-77379819D02*
X106520238Y-77332200D01*
X106520238Y-77332200D02*
X106472619Y-77284580D01*
X103733333Y-97784580D02*
X103685714Y-97832200D01*
X103685714Y-97832200D02*
X103542857Y-97879819D01*
X103542857Y-97879819D02*
X103447619Y-97879819D01*
X103447619Y-97879819D02*
X103304762Y-97832200D01*
X103304762Y-97832200D02*
X103209524Y-97736961D01*
X103209524Y-97736961D02*
X103161905Y-97641723D01*
X103161905Y-97641723D02*
X103114286Y-97451247D01*
X103114286Y-97451247D02*
X103114286Y-97308390D01*
X103114286Y-97308390D02*
X103161905Y-97117914D01*
X103161905Y-97117914D02*
X103209524Y-97022676D01*
X103209524Y-97022676D02*
X103304762Y-96927438D01*
X103304762Y-96927438D02*
X103447619Y-96879819D01*
X103447619Y-96879819D02*
X103542857Y-96879819D01*
X103542857Y-96879819D02*
X103685714Y-96927438D01*
X103685714Y-96927438D02*
X103733333Y-96975057D01*
X104114286Y-96975057D02*
X104161905Y-96927438D01*
X104161905Y-96927438D02*
X104257143Y-96879819D01*
X104257143Y-96879819D02*
X104495238Y-96879819D01*
X104495238Y-96879819D02*
X104590476Y-96927438D01*
X104590476Y-96927438D02*
X104638095Y-96975057D01*
X104638095Y-96975057D02*
X104685714Y-97070295D01*
X104685714Y-97070295D02*
X104685714Y-97165533D01*
X104685714Y-97165533D02*
X104638095Y-97308390D01*
X104638095Y-97308390D02*
X104066667Y-97879819D01*
X104066667Y-97879819D02*
X104685714Y-97879819D01*
X112660714Y-99737295D02*
X112394047Y-99356342D01*
X112203571Y-99737295D02*
X112203571Y-98937295D01*
X112203571Y-98937295D02*
X112508333Y-98937295D01*
X112508333Y-98937295D02*
X112584523Y-98975390D01*
X112584523Y-98975390D02*
X112622618Y-99013485D01*
X112622618Y-99013485D02*
X112660714Y-99089676D01*
X112660714Y-99089676D02*
X112660714Y-99203961D01*
X112660714Y-99203961D02*
X112622618Y-99280152D01*
X112622618Y-99280152D02*
X112584523Y-99318247D01*
X112584523Y-99318247D02*
X112508333Y-99356342D01*
X112508333Y-99356342D02*
X112203571Y-99356342D01*
X113422618Y-99737295D02*
X112965475Y-99737295D01*
X113194047Y-99737295D02*
X113194047Y-98937295D01*
X113194047Y-98937295D02*
X113117856Y-99051580D01*
X113117856Y-99051580D02*
X113041666Y-99127771D01*
X113041666Y-99127771D02*
X112965475Y-99165866D01*
X114108333Y-99203961D02*
X114108333Y-99737295D01*
X113917857Y-98899200D02*
X113727380Y-99470628D01*
X113727380Y-99470628D02*
X114222619Y-99470628D01*
X130083333Y-99754819D02*
X129750000Y-99278628D01*
X129511905Y-99754819D02*
X129511905Y-98754819D01*
X129511905Y-98754819D02*
X129892857Y-98754819D01*
X129892857Y-98754819D02*
X129988095Y-98802438D01*
X129988095Y-98802438D02*
X130035714Y-98850057D01*
X130035714Y-98850057D02*
X130083333Y-98945295D01*
X130083333Y-98945295D02*
X130083333Y-99088152D01*
X130083333Y-99088152D02*
X130035714Y-99183390D01*
X130035714Y-99183390D02*
X129988095Y-99231009D01*
X129988095Y-99231009D02*
X129892857Y-99278628D01*
X129892857Y-99278628D02*
X129511905Y-99278628D01*
X130559524Y-99754819D02*
X130750000Y-99754819D01*
X130750000Y-99754819D02*
X130845238Y-99707200D01*
X130845238Y-99707200D02*
X130892857Y-99659580D01*
X130892857Y-99659580D02*
X130988095Y-99516723D01*
X130988095Y-99516723D02*
X131035714Y-99326247D01*
X131035714Y-99326247D02*
X131035714Y-98945295D01*
X131035714Y-98945295D02*
X130988095Y-98850057D01*
X130988095Y-98850057D02*
X130940476Y-98802438D01*
X130940476Y-98802438D02*
X130845238Y-98754819D01*
X130845238Y-98754819D02*
X130654762Y-98754819D01*
X130654762Y-98754819D02*
X130559524Y-98802438D01*
X130559524Y-98802438D02*
X130511905Y-98850057D01*
X130511905Y-98850057D02*
X130464286Y-98945295D01*
X130464286Y-98945295D02*
X130464286Y-99183390D01*
X130464286Y-99183390D02*
X130511905Y-99278628D01*
X130511905Y-99278628D02*
X130559524Y-99326247D01*
X130559524Y-99326247D02*
X130654762Y-99373866D01*
X130654762Y-99373866D02*
X130845238Y-99373866D01*
X130845238Y-99373866D02*
X130940476Y-99326247D01*
X130940476Y-99326247D02*
X130988095Y-99278628D01*
X130988095Y-99278628D02*
X131035714Y-99183390D01*
X104533333Y-91359580D02*
X104485714Y-91407200D01*
X104485714Y-91407200D02*
X104342857Y-91454819D01*
X104342857Y-91454819D02*
X104247619Y-91454819D01*
X104247619Y-91454819D02*
X104104762Y-91407200D01*
X104104762Y-91407200D02*
X104009524Y-91311961D01*
X104009524Y-91311961D02*
X103961905Y-91216723D01*
X103961905Y-91216723D02*
X103914286Y-91026247D01*
X103914286Y-91026247D02*
X103914286Y-90883390D01*
X103914286Y-90883390D02*
X103961905Y-90692914D01*
X103961905Y-90692914D02*
X104009524Y-90597676D01*
X104009524Y-90597676D02*
X104104762Y-90502438D01*
X104104762Y-90502438D02*
X104247619Y-90454819D01*
X104247619Y-90454819D02*
X104342857Y-90454819D01*
X104342857Y-90454819D02*
X104485714Y-90502438D01*
X104485714Y-90502438D02*
X104533333Y-90550057D01*
X104866667Y-90454819D02*
X105485714Y-90454819D01*
X105485714Y-90454819D02*
X105152381Y-90835771D01*
X105152381Y-90835771D02*
X105295238Y-90835771D01*
X105295238Y-90835771D02*
X105390476Y-90883390D01*
X105390476Y-90883390D02*
X105438095Y-90931009D01*
X105438095Y-90931009D02*
X105485714Y-91026247D01*
X105485714Y-91026247D02*
X105485714Y-91264342D01*
X105485714Y-91264342D02*
X105438095Y-91359580D01*
X105438095Y-91359580D02*
X105390476Y-91407200D01*
X105390476Y-91407200D02*
X105295238Y-91454819D01*
X105295238Y-91454819D02*
X105009524Y-91454819D01*
X105009524Y-91454819D02*
X104914286Y-91407200D01*
X104914286Y-91407200D02*
X104866667Y-91359580D01*
X118685714Y-94412295D02*
X118419047Y-94031342D01*
X118228571Y-94412295D02*
X118228571Y-93612295D01*
X118228571Y-93612295D02*
X118533333Y-93612295D01*
X118533333Y-93612295D02*
X118609523Y-93650390D01*
X118609523Y-93650390D02*
X118647618Y-93688485D01*
X118647618Y-93688485D02*
X118685714Y-93764676D01*
X118685714Y-93764676D02*
X118685714Y-93878961D01*
X118685714Y-93878961D02*
X118647618Y-93955152D01*
X118647618Y-93955152D02*
X118609523Y-93993247D01*
X118609523Y-93993247D02*
X118533333Y-94031342D01*
X118533333Y-94031342D02*
X118228571Y-94031342D01*
X119447618Y-94412295D02*
X118990475Y-94412295D01*
X119219047Y-94412295D02*
X119219047Y-93612295D01*
X119219047Y-93612295D02*
X119142856Y-93726580D01*
X119142856Y-93726580D02*
X119066666Y-93802771D01*
X119066666Y-93802771D02*
X118990475Y-93840866D01*
X120209523Y-94412295D02*
X119752380Y-94412295D01*
X119980952Y-94412295D02*
X119980952Y-93612295D01*
X119980952Y-93612295D02*
X119904761Y-93726580D01*
X119904761Y-93726580D02*
X119828571Y-93802771D01*
X119828571Y-93802771D02*
X119752380Y-93840866D01*
X127883333Y-87704819D02*
X127550000Y-87228628D01*
X127311905Y-87704819D02*
X127311905Y-86704819D01*
X127311905Y-86704819D02*
X127692857Y-86704819D01*
X127692857Y-86704819D02*
X127788095Y-86752438D01*
X127788095Y-86752438D02*
X127835714Y-86800057D01*
X127835714Y-86800057D02*
X127883333Y-86895295D01*
X127883333Y-86895295D02*
X127883333Y-87038152D01*
X127883333Y-87038152D02*
X127835714Y-87133390D01*
X127835714Y-87133390D02*
X127788095Y-87181009D01*
X127788095Y-87181009D02*
X127692857Y-87228628D01*
X127692857Y-87228628D02*
X127311905Y-87228628D01*
X128454762Y-87133390D02*
X128359524Y-87085771D01*
X128359524Y-87085771D02*
X128311905Y-87038152D01*
X128311905Y-87038152D02*
X128264286Y-86942914D01*
X128264286Y-86942914D02*
X128264286Y-86895295D01*
X128264286Y-86895295D02*
X128311905Y-86800057D01*
X128311905Y-86800057D02*
X128359524Y-86752438D01*
X128359524Y-86752438D02*
X128454762Y-86704819D01*
X128454762Y-86704819D02*
X128645238Y-86704819D01*
X128645238Y-86704819D02*
X128740476Y-86752438D01*
X128740476Y-86752438D02*
X128788095Y-86800057D01*
X128788095Y-86800057D02*
X128835714Y-86895295D01*
X128835714Y-86895295D02*
X128835714Y-86942914D01*
X128835714Y-86942914D02*
X128788095Y-87038152D01*
X128788095Y-87038152D02*
X128740476Y-87085771D01*
X128740476Y-87085771D02*
X128645238Y-87133390D01*
X128645238Y-87133390D02*
X128454762Y-87133390D01*
X128454762Y-87133390D02*
X128359524Y-87181009D01*
X128359524Y-87181009D02*
X128311905Y-87228628D01*
X128311905Y-87228628D02*
X128264286Y-87323866D01*
X128264286Y-87323866D02*
X128264286Y-87514342D01*
X128264286Y-87514342D02*
X128311905Y-87609580D01*
X128311905Y-87609580D02*
X128359524Y-87657200D01*
X128359524Y-87657200D02*
X128454762Y-87704819D01*
X128454762Y-87704819D02*
X128645238Y-87704819D01*
X128645238Y-87704819D02*
X128740476Y-87657200D01*
X128740476Y-87657200D02*
X128788095Y-87609580D01*
X128788095Y-87609580D02*
X128835714Y-87514342D01*
X128835714Y-87514342D02*
X128835714Y-87323866D01*
X128835714Y-87323866D02*
X128788095Y-87228628D01*
X128788095Y-87228628D02*
X128740476Y-87181009D01*
X128740476Y-87181009D02*
X128645238Y-87133390D01*
X120385714Y-84862295D02*
X120119047Y-84481342D01*
X119928571Y-84862295D02*
X119928571Y-84062295D01*
X119928571Y-84062295D02*
X120233333Y-84062295D01*
X120233333Y-84062295D02*
X120309523Y-84100390D01*
X120309523Y-84100390D02*
X120347618Y-84138485D01*
X120347618Y-84138485D02*
X120385714Y-84214676D01*
X120385714Y-84214676D02*
X120385714Y-84328961D01*
X120385714Y-84328961D02*
X120347618Y-84405152D01*
X120347618Y-84405152D02*
X120309523Y-84443247D01*
X120309523Y-84443247D02*
X120233333Y-84481342D01*
X120233333Y-84481342D02*
X119928571Y-84481342D01*
X121147618Y-84862295D02*
X120690475Y-84862295D01*
X120919047Y-84862295D02*
X120919047Y-84062295D01*
X120919047Y-84062295D02*
X120842856Y-84176580D01*
X120842856Y-84176580D02*
X120766666Y-84252771D01*
X120766666Y-84252771D02*
X120690475Y-84290866D01*
X121833333Y-84062295D02*
X121680952Y-84062295D01*
X121680952Y-84062295D02*
X121604761Y-84100390D01*
X121604761Y-84100390D02*
X121566666Y-84138485D01*
X121566666Y-84138485D02*
X121490476Y-84252771D01*
X121490476Y-84252771D02*
X121452380Y-84405152D01*
X121452380Y-84405152D02*
X121452380Y-84709914D01*
X121452380Y-84709914D02*
X121490476Y-84786104D01*
X121490476Y-84786104D02*
X121528571Y-84824200D01*
X121528571Y-84824200D02*
X121604761Y-84862295D01*
X121604761Y-84862295D02*
X121757142Y-84862295D01*
X121757142Y-84862295D02*
X121833333Y-84824200D01*
X121833333Y-84824200D02*
X121871428Y-84786104D01*
X121871428Y-84786104D02*
X121909523Y-84709914D01*
X121909523Y-84709914D02*
X121909523Y-84519438D01*
X121909523Y-84519438D02*
X121871428Y-84443247D01*
X121871428Y-84443247D02*
X121833333Y-84405152D01*
X121833333Y-84405152D02*
X121757142Y-84367057D01*
X121757142Y-84367057D02*
X121604761Y-84367057D01*
X121604761Y-84367057D02*
X121528571Y-84405152D01*
X121528571Y-84405152D02*
X121490476Y-84443247D01*
X121490476Y-84443247D02*
X121452380Y-84519438D01*
X133238095Y-89779819D02*
X133238095Y-90589342D01*
X133238095Y-90589342D02*
X133285714Y-90684580D01*
X133285714Y-90684580D02*
X133333333Y-90732200D01*
X133333333Y-90732200D02*
X133428571Y-90779819D01*
X133428571Y-90779819D02*
X133619047Y-90779819D01*
X133619047Y-90779819D02*
X133714285Y-90732200D01*
X133714285Y-90732200D02*
X133761904Y-90684580D01*
X133761904Y-90684580D02*
X133809523Y-90589342D01*
X133809523Y-90589342D02*
X133809523Y-89779819D01*
X134238095Y-89875057D02*
X134285714Y-89827438D01*
X134285714Y-89827438D02*
X134380952Y-89779819D01*
X134380952Y-89779819D02*
X134619047Y-89779819D01*
X134619047Y-89779819D02*
X134714285Y-89827438D01*
X134714285Y-89827438D02*
X134761904Y-89875057D01*
X134761904Y-89875057D02*
X134809523Y-89970295D01*
X134809523Y-89970295D02*
X134809523Y-90065533D01*
X134809523Y-90065533D02*
X134761904Y-90208390D01*
X134761904Y-90208390D02*
X134190476Y-90779819D01*
X134190476Y-90779819D02*
X134809523Y-90779819D01*
X107233333Y-111029819D02*
X106757143Y-111029819D01*
X106757143Y-111029819D02*
X106757143Y-110029819D01*
X107519048Y-110125057D02*
X107566667Y-110077438D01*
X107566667Y-110077438D02*
X107661905Y-110029819D01*
X107661905Y-110029819D02*
X107900000Y-110029819D01*
X107900000Y-110029819D02*
X107995238Y-110077438D01*
X107995238Y-110077438D02*
X108042857Y-110125057D01*
X108042857Y-110125057D02*
X108090476Y-110220295D01*
X108090476Y-110220295D02*
X108090476Y-110315533D01*
X108090476Y-110315533D02*
X108042857Y-110458390D01*
X108042857Y-110458390D02*
X107471429Y-111029819D01*
X107471429Y-111029819D02*
X108090476Y-111029819D01*
X99011905Y-85604819D02*
X99011905Y-84604819D01*
X99011905Y-84604819D02*
X99250000Y-84604819D01*
X99250000Y-84604819D02*
X99392857Y-84652438D01*
X99392857Y-84652438D02*
X99488095Y-84747676D01*
X99488095Y-84747676D02*
X99535714Y-84842914D01*
X99535714Y-84842914D02*
X99583333Y-85033390D01*
X99583333Y-85033390D02*
X99583333Y-85176247D01*
X99583333Y-85176247D02*
X99535714Y-85366723D01*
X99535714Y-85366723D02*
X99488095Y-85461961D01*
X99488095Y-85461961D02*
X99392857Y-85557200D01*
X99392857Y-85557200D02*
X99250000Y-85604819D01*
X99250000Y-85604819D02*
X99011905Y-85604819D01*
X99964286Y-84700057D02*
X100011905Y-84652438D01*
X100011905Y-84652438D02*
X100107143Y-84604819D01*
X100107143Y-84604819D02*
X100345238Y-84604819D01*
X100345238Y-84604819D02*
X100440476Y-84652438D01*
X100440476Y-84652438D02*
X100488095Y-84700057D01*
X100488095Y-84700057D02*
X100535714Y-84795295D01*
X100535714Y-84795295D02*
X100535714Y-84890533D01*
X100535714Y-84890533D02*
X100488095Y-85033390D01*
X100488095Y-85033390D02*
X99916667Y-85604819D01*
X99916667Y-85604819D02*
X100535714Y-85604819D01*
X113185714Y-88612295D02*
X112919047Y-88231342D01*
X112728571Y-88612295D02*
X112728571Y-87812295D01*
X112728571Y-87812295D02*
X113033333Y-87812295D01*
X113033333Y-87812295D02*
X113109523Y-87850390D01*
X113109523Y-87850390D02*
X113147618Y-87888485D01*
X113147618Y-87888485D02*
X113185714Y-87964676D01*
X113185714Y-87964676D02*
X113185714Y-88078961D01*
X113185714Y-88078961D02*
X113147618Y-88155152D01*
X113147618Y-88155152D02*
X113109523Y-88193247D01*
X113109523Y-88193247D02*
X113033333Y-88231342D01*
X113033333Y-88231342D02*
X112728571Y-88231342D01*
X113947618Y-88612295D02*
X113490475Y-88612295D01*
X113719047Y-88612295D02*
X113719047Y-87812295D01*
X113719047Y-87812295D02*
X113642856Y-87926580D01*
X113642856Y-87926580D02*
X113566666Y-88002771D01*
X113566666Y-88002771D02*
X113490475Y-88040866D01*
X114442857Y-87812295D02*
X114519047Y-87812295D01*
X114519047Y-87812295D02*
X114595238Y-87850390D01*
X114595238Y-87850390D02*
X114633333Y-87888485D01*
X114633333Y-87888485D02*
X114671428Y-87964676D01*
X114671428Y-87964676D02*
X114709523Y-88117057D01*
X114709523Y-88117057D02*
X114709523Y-88307533D01*
X114709523Y-88307533D02*
X114671428Y-88459914D01*
X114671428Y-88459914D02*
X114633333Y-88536104D01*
X114633333Y-88536104D02*
X114595238Y-88574200D01*
X114595238Y-88574200D02*
X114519047Y-88612295D01*
X114519047Y-88612295D02*
X114442857Y-88612295D01*
X114442857Y-88612295D02*
X114366666Y-88574200D01*
X114366666Y-88574200D02*
X114328571Y-88536104D01*
X114328571Y-88536104D02*
X114290476Y-88459914D01*
X114290476Y-88459914D02*
X114252380Y-88307533D01*
X114252380Y-88307533D02*
X114252380Y-88117057D01*
X114252380Y-88117057D02*
X114290476Y-87964676D01*
X114290476Y-87964676D02*
X114328571Y-87888485D01*
X114328571Y-87888485D02*
X114366666Y-87850390D01*
X114366666Y-87850390D02*
X114442857Y-87812295D01*
X138616666Y-79671569D02*
X138616666Y-80385854D01*
X138616666Y-80385854D02*
X138569047Y-80528711D01*
X138569047Y-80528711D02*
X138473809Y-80623950D01*
X138473809Y-80623950D02*
X138330952Y-80671569D01*
X138330952Y-80671569D02*
X138235714Y-80671569D01*
X139521428Y-80004902D02*
X139521428Y-80671569D01*
X139283333Y-79623950D02*
X139045238Y-80338235D01*
X139045238Y-80338235D02*
X139664285Y-80338235D01*
X90666667Y-89297200D02*
X90809524Y-89344819D01*
X90809524Y-89344819D02*
X91047619Y-89344819D01*
X91047619Y-89344819D02*
X91142857Y-89297200D01*
X91142857Y-89297200D02*
X91190476Y-89249580D01*
X91190476Y-89249580D02*
X91238095Y-89154342D01*
X91238095Y-89154342D02*
X91238095Y-89059104D01*
X91238095Y-89059104D02*
X91190476Y-88963866D01*
X91190476Y-88963866D02*
X91142857Y-88916247D01*
X91142857Y-88916247D02*
X91047619Y-88868628D01*
X91047619Y-88868628D02*
X90857143Y-88821009D01*
X90857143Y-88821009D02*
X90761905Y-88773390D01*
X90761905Y-88773390D02*
X90714286Y-88725771D01*
X90714286Y-88725771D02*
X90666667Y-88630533D01*
X90666667Y-88630533D02*
X90666667Y-88535295D01*
X90666667Y-88535295D02*
X90714286Y-88440057D01*
X90714286Y-88440057D02*
X90761905Y-88392438D01*
X90761905Y-88392438D02*
X90857143Y-88344819D01*
X90857143Y-88344819D02*
X91095238Y-88344819D01*
X91095238Y-88344819D02*
X91238095Y-88392438D01*
X91571429Y-88344819D02*
X91809524Y-89344819D01*
X91809524Y-89344819D02*
X92000000Y-88630533D01*
X92000000Y-88630533D02*
X92190476Y-89344819D01*
X92190476Y-89344819D02*
X92428572Y-88344819D01*
X93333333Y-89344819D02*
X92761905Y-89344819D01*
X93047619Y-89344819D02*
X93047619Y-88344819D01*
X93047619Y-88344819D02*
X92952381Y-88487676D01*
X92952381Y-88487676D02*
X92857143Y-88582914D01*
X92857143Y-88582914D02*
X92761905Y-88630533D01*
X99783333Y-102359580D02*
X99735714Y-102407200D01*
X99735714Y-102407200D02*
X99592857Y-102454819D01*
X99592857Y-102454819D02*
X99497619Y-102454819D01*
X99497619Y-102454819D02*
X99354762Y-102407200D01*
X99354762Y-102407200D02*
X99259524Y-102311961D01*
X99259524Y-102311961D02*
X99211905Y-102216723D01*
X99211905Y-102216723D02*
X99164286Y-102026247D01*
X99164286Y-102026247D02*
X99164286Y-101883390D01*
X99164286Y-101883390D02*
X99211905Y-101692914D01*
X99211905Y-101692914D02*
X99259524Y-101597676D01*
X99259524Y-101597676D02*
X99354762Y-101502438D01*
X99354762Y-101502438D02*
X99497619Y-101454819D01*
X99497619Y-101454819D02*
X99592857Y-101454819D01*
X99592857Y-101454819D02*
X99735714Y-101502438D01*
X99735714Y-101502438D02*
X99783333Y-101550057D01*
X100640476Y-101454819D02*
X100450000Y-101454819D01*
X100450000Y-101454819D02*
X100354762Y-101502438D01*
X100354762Y-101502438D02*
X100307143Y-101550057D01*
X100307143Y-101550057D02*
X100211905Y-101692914D01*
X100211905Y-101692914D02*
X100164286Y-101883390D01*
X100164286Y-101883390D02*
X100164286Y-102264342D01*
X100164286Y-102264342D02*
X100211905Y-102359580D01*
X100211905Y-102359580D02*
X100259524Y-102407200D01*
X100259524Y-102407200D02*
X100354762Y-102454819D01*
X100354762Y-102454819D02*
X100545238Y-102454819D01*
X100545238Y-102454819D02*
X100640476Y-102407200D01*
X100640476Y-102407200D02*
X100688095Y-102359580D01*
X100688095Y-102359580D02*
X100735714Y-102264342D01*
X100735714Y-102264342D02*
X100735714Y-102026247D01*
X100735714Y-102026247D02*
X100688095Y-101931009D01*
X100688095Y-101931009D02*
X100640476Y-101883390D01*
X100640476Y-101883390D02*
X100545238Y-101835771D01*
X100545238Y-101835771D02*
X100354762Y-101835771D01*
X100354762Y-101835771D02*
X100259524Y-101883390D01*
X100259524Y-101883390D02*
X100211905Y-101931009D01*
X100211905Y-101931009D02*
X100164286Y-102026247D01*
X118685714Y-96287295D02*
X118419047Y-95906342D01*
X118228571Y-96287295D02*
X118228571Y-95487295D01*
X118228571Y-95487295D02*
X118533333Y-95487295D01*
X118533333Y-95487295D02*
X118609523Y-95525390D01*
X118609523Y-95525390D02*
X118647618Y-95563485D01*
X118647618Y-95563485D02*
X118685714Y-95639676D01*
X118685714Y-95639676D02*
X118685714Y-95753961D01*
X118685714Y-95753961D02*
X118647618Y-95830152D01*
X118647618Y-95830152D02*
X118609523Y-95868247D01*
X118609523Y-95868247D02*
X118533333Y-95906342D01*
X118533333Y-95906342D02*
X118228571Y-95906342D01*
X119447618Y-96287295D02*
X118990475Y-96287295D01*
X119219047Y-96287295D02*
X119219047Y-95487295D01*
X119219047Y-95487295D02*
X119142856Y-95601580D01*
X119142856Y-95601580D02*
X119066666Y-95677771D01*
X119066666Y-95677771D02*
X118990475Y-95715866D01*
X119714285Y-95487295D02*
X120209523Y-95487295D01*
X120209523Y-95487295D02*
X119942857Y-95792057D01*
X119942857Y-95792057D02*
X120057142Y-95792057D01*
X120057142Y-95792057D02*
X120133333Y-95830152D01*
X120133333Y-95830152D02*
X120171428Y-95868247D01*
X120171428Y-95868247D02*
X120209523Y-95944438D01*
X120209523Y-95944438D02*
X120209523Y-96134914D01*
X120209523Y-96134914D02*
X120171428Y-96211104D01*
X120171428Y-96211104D02*
X120133333Y-96249200D01*
X120133333Y-96249200D02*
X120057142Y-96287295D01*
X120057142Y-96287295D02*
X119828571Y-96287295D01*
X119828571Y-96287295D02*
X119752380Y-96249200D01*
X119752380Y-96249200D02*
X119714285Y-96211104D01*
X97933333Y-111009580D02*
X97885714Y-111057200D01*
X97885714Y-111057200D02*
X97742857Y-111104819D01*
X97742857Y-111104819D02*
X97647619Y-111104819D01*
X97647619Y-111104819D02*
X97504762Y-111057200D01*
X97504762Y-111057200D02*
X97409524Y-110961961D01*
X97409524Y-110961961D02*
X97361905Y-110866723D01*
X97361905Y-110866723D02*
X97314286Y-110676247D01*
X97314286Y-110676247D02*
X97314286Y-110533390D01*
X97314286Y-110533390D02*
X97361905Y-110342914D01*
X97361905Y-110342914D02*
X97409524Y-110247676D01*
X97409524Y-110247676D02*
X97504762Y-110152438D01*
X97504762Y-110152438D02*
X97647619Y-110104819D01*
X97647619Y-110104819D02*
X97742857Y-110104819D01*
X97742857Y-110104819D02*
X97885714Y-110152438D01*
X97885714Y-110152438D02*
X97933333Y-110200057D01*
X98504762Y-110533390D02*
X98409524Y-110485771D01*
X98409524Y-110485771D02*
X98361905Y-110438152D01*
X98361905Y-110438152D02*
X98314286Y-110342914D01*
X98314286Y-110342914D02*
X98314286Y-110295295D01*
X98314286Y-110295295D02*
X98361905Y-110200057D01*
X98361905Y-110200057D02*
X98409524Y-110152438D01*
X98409524Y-110152438D02*
X98504762Y-110104819D01*
X98504762Y-110104819D02*
X98695238Y-110104819D01*
X98695238Y-110104819D02*
X98790476Y-110152438D01*
X98790476Y-110152438D02*
X98838095Y-110200057D01*
X98838095Y-110200057D02*
X98885714Y-110295295D01*
X98885714Y-110295295D02*
X98885714Y-110342914D01*
X98885714Y-110342914D02*
X98838095Y-110438152D01*
X98838095Y-110438152D02*
X98790476Y-110485771D01*
X98790476Y-110485771D02*
X98695238Y-110533390D01*
X98695238Y-110533390D02*
X98504762Y-110533390D01*
X98504762Y-110533390D02*
X98409524Y-110581009D01*
X98409524Y-110581009D02*
X98361905Y-110628628D01*
X98361905Y-110628628D02*
X98314286Y-110723866D01*
X98314286Y-110723866D02*
X98314286Y-110914342D01*
X98314286Y-110914342D02*
X98361905Y-111009580D01*
X98361905Y-111009580D02*
X98409524Y-111057200D01*
X98409524Y-111057200D02*
X98504762Y-111104819D01*
X98504762Y-111104819D02*
X98695238Y-111104819D01*
X98695238Y-111104819D02*
X98790476Y-111057200D01*
X98790476Y-111057200D02*
X98838095Y-111009580D01*
X98838095Y-111009580D02*
X98885714Y-110914342D01*
X98885714Y-110914342D02*
X98885714Y-110723866D01*
X98885714Y-110723866D02*
X98838095Y-110628628D01*
X98838095Y-110628628D02*
X98790476Y-110581009D01*
X98790476Y-110581009D02*
X98695238Y-110533390D01*
X96358333Y-117309580D02*
X96310714Y-117357200D01*
X96310714Y-117357200D02*
X96167857Y-117404819D01*
X96167857Y-117404819D02*
X96072619Y-117404819D01*
X96072619Y-117404819D02*
X95929762Y-117357200D01*
X95929762Y-117357200D02*
X95834524Y-117261961D01*
X95834524Y-117261961D02*
X95786905Y-117166723D01*
X95786905Y-117166723D02*
X95739286Y-116976247D01*
X95739286Y-116976247D02*
X95739286Y-116833390D01*
X95739286Y-116833390D02*
X95786905Y-116642914D01*
X95786905Y-116642914D02*
X95834524Y-116547676D01*
X95834524Y-116547676D02*
X95929762Y-116452438D01*
X95929762Y-116452438D02*
X96072619Y-116404819D01*
X96072619Y-116404819D02*
X96167857Y-116404819D01*
X96167857Y-116404819D02*
X96310714Y-116452438D01*
X96310714Y-116452438D02*
X96358333Y-116500057D01*
X96834524Y-117404819D02*
X97025000Y-117404819D01*
X97025000Y-117404819D02*
X97120238Y-117357200D01*
X97120238Y-117357200D02*
X97167857Y-117309580D01*
X97167857Y-117309580D02*
X97263095Y-117166723D01*
X97263095Y-117166723D02*
X97310714Y-116976247D01*
X97310714Y-116976247D02*
X97310714Y-116595295D01*
X97310714Y-116595295D02*
X97263095Y-116500057D01*
X97263095Y-116500057D02*
X97215476Y-116452438D01*
X97215476Y-116452438D02*
X97120238Y-116404819D01*
X97120238Y-116404819D02*
X96929762Y-116404819D01*
X96929762Y-116404819D02*
X96834524Y-116452438D01*
X96834524Y-116452438D02*
X96786905Y-116500057D01*
X96786905Y-116500057D02*
X96739286Y-116595295D01*
X96739286Y-116595295D02*
X96739286Y-116833390D01*
X96739286Y-116833390D02*
X96786905Y-116928628D01*
X96786905Y-116928628D02*
X96834524Y-116976247D01*
X96834524Y-116976247D02*
X96929762Y-117023866D01*
X96929762Y-117023866D02*
X97120238Y-117023866D01*
X97120238Y-117023866D02*
X97215476Y-116976247D01*
X97215476Y-116976247D02*
X97263095Y-116928628D01*
X97263095Y-116928628D02*
X97310714Y-116833390D01*
X99011905Y-88679819D02*
X99011905Y-87679819D01*
X99011905Y-87679819D02*
X99250000Y-87679819D01*
X99250000Y-87679819D02*
X99392857Y-87727438D01*
X99392857Y-87727438D02*
X99488095Y-87822676D01*
X99488095Y-87822676D02*
X99535714Y-87917914D01*
X99535714Y-87917914D02*
X99583333Y-88108390D01*
X99583333Y-88108390D02*
X99583333Y-88251247D01*
X99583333Y-88251247D02*
X99535714Y-88441723D01*
X99535714Y-88441723D02*
X99488095Y-88536961D01*
X99488095Y-88536961D02*
X99392857Y-88632200D01*
X99392857Y-88632200D02*
X99250000Y-88679819D01*
X99250000Y-88679819D02*
X99011905Y-88679819D01*
X99916667Y-87679819D02*
X100535714Y-87679819D01*
X100535714Y-87679819D02*
X100202381Y-88060771D01*
X100202381Y-88060771D02*
X100345238Y-88060771D01*
X100345238Y-88060771D02*
X100440476Y-88108390D01*
X100440476Y-88108390D02*
X100488095Y-88156009D01*
X100488095Y-88156009D02*
X100535714Y-88251247D01*
X100535714Y-88251247D02*
X100535714Y-88489342D01*
X100535714Y-88489342D02*
X100488095Y-88584580D01*
X100488095Y-88584580D02*
X100440476Y-88632200D01*
X100440476Y-88632200D02*
X100345238Y-88679819D01*
X100345238Y-88679819D02*
X100059524Y-88679819D01*
X100059524Y-88679819D02*
X99964286Y-88632200D01*
X99964286Y-88632200D02*
X99916667Y-88584580D01*
X104910714Y-102912295D02*
X104644047Y-102531342D01*
X104453571Y-102912295D02*
X104453571Y-102112295D01*
X104453571Y-102112295D02*
X104758333Y-102112295D01*
X104758333Y-102112295D02*
X104834523Y-102150390D01*
X104834523Y-102150390D02*
X104872618Y-102188485D01*
X104872618Y-102188485D02*
X104910714Y-102264676D01*
X104910714Y-102264676D02*
X104910714Y-102378961D01*
X104910714Y-102378961D02*
X104872618Y-102455152D01*
X104872618Y-102455152D02*
X104834523Y-102493247D01*
X104834523Y-102493247D02*
X104758333Y-102531342D01*
X104758333Y-102531342D02*
X104453571Y-102531342D01*
X105672618Y-102912295D02*
X105215475Y-102912295D01*
X105444047Y-102912295D02*
X105444047Y-102112295D01*
X105444047Y-102112295D02*
X105367856Y-102226580D01*
X105367856Y-102226580D02*
X105291666Y-102302771D01*
X105291666Y-102302771D02*
X105215475Y-102340866D01*
X105939285Y-102112295D02*
X106472619Y-102112295D01*
X106472619Y-102112295D02*
X106129761Y-102912295D01*
X87123810Y-118254819D02*
X87123810Y-117254819D01*
X88171428Y-118159580D02*
X88123809Y-118207200D01*
X88123809Y-118207200D02*
X87980952Y-118254819D01*
X87980952Y-118254819D02*
X87885714Y-118254819D01*
X87885714Y-118254819D02*
X87742857Y-118207200D01*
X87742857Y-118207200D02*
X87647619Y-118111961D01*
X87647619Y-118111961D02*
X87600000Y-118016723D01*
X87600000Y-118016723D02*
X87552381Y-117826247D01*
X87552381Y-117826247D02*
X87552381Y-117683390D01*
X87552381Y-117683390D02*
X87600000Y-117492914D01*
X87600000Y-117492914D02*
X87647619Y-117397676D01*
X87647619Y-117397676D02*
X87742857Y-117302438D01*
X87742857Y-117302438D02*
X87885714Y-117254819D01*
X87885714Y-117254819D02*
X87980952Y-117254819D01*
X87980952Y-117254819D02*
X88123809Y-117302438D01*
X88123809Y-117302438D02*
X88171428Y-117350057D01*
X89123809Y-118254819D02*
X88552381Y-118254819D01*
X88838095Y-118254819D02*
X88838095Y-117254819D01*
X88838095Y-117254819D02*
X88742857Y-117397676D01*
X88742857Y-117397676D02*
X88647619Y-117492914D01*
X88647619Y-117492914D02*
X88552381Y-117540533D01*
X85636905Y-111954819D02*
X85636905Y-110954819D01*
X85636905Y-110954819D02*
X85875000Y-110954819D01*
X85875000Y-110954819D02*
X86017857Y-111002438D01*
X86017857Y-111002438D02*
X86113095Y-111097676D01*
X86113095Y-111097676D02*
X86160714Y-111192914D01*
X86160714Y-111192914D02*
X86208333Y-111383390D01*
X86208333Y-111383390D02*
X86208333Y-111526247D01*
X86208333Y-111526247D02*
X86160714Y-111716723D01*
X86160714Y-111716723D02*
X86113095Y-111811961D01*
X86113095Y-111811961D02*
X86017857Y-111907200D01*
X86017857Y-111907200D02*
X85875000Y-111954819D01*
X85875000Y-111954819D02*
X85636905Y-111954819D01*
X87160714Y-111954819D02*
X86589286Y-111954819D01*
X86875000Y-111954819D02*
X86875000Y-110954819D01*
X86875000Y-110954819D02*
X86779762Y-111097676D01*
X86779762Y-111097676D02*
X86684524Y-111192914D01*
X86684524Y-111192914D02*
X86589286Y-111240533D01*
X96883333Y-122467319D02*
X96550000Y-121991128D01*
X96311905Y-122467319D02*
X96311905Y-121467319D01*
X96311905Y-121467319D02*
X96692857Y-121467319D01*
X96692857Y-121467319D02*
X96788095Y-121514938D01*
X96788095Y-121514938D02*
X96835714Y-121562557D01*
X96835714Y-121562557D02*
X96883333Y-121657795D01*
X96883333Y-121657795D02*
X96883333Y-121800652D01*
X96883333Y-121800652D02*
X96835714Y-121895890D01*
X96835714Y-121895890D02*
X96788095Y-121943509D01*
X96788095Y-121943509D02*
X96692857Y-121991128D01*
X96692857Y-121991128D02*
X96311905Y-121991128D01*
X97788095Y-121467319D02*
X97311905Y-121467319D01*
X97311905Y-121467319D02*
X97264286Y-121943509D01*
X97264286Y-121943509D02*
X97311905Y-121895890D01*
X97311905Y-121895890D02*
X97407143Y-121848271D01*
X97407143Y-121848271D02*
X97645238Y-121848271D01*
X97645238Y-121848271D02*
X97740476Y-121895890D01*
X97740476Y-121895890D02*
X97788095Y-121943509D01*
X97788095Y-121943509D02*
X97835714Y-122038747D01*
X97835714Y-122038747D02*
X97835714Y-122276842D01*
X97835714Y-122276842D02*
X97788095Y-122372080D01*
X97788095Y-122372080D02*
X97740476Y-122419700D01*
X97740476Y-122419700D02*
X97645238Y-122467319D01*
X97645238Y-122467319D02*
X97407143Y-122467319D01*
X97407143Y-122467319D02*
X97311905Y-122419700D01*
X97311905Y-122419700D02*
X97264286Y-122372080D01*
X118685714Y-92062295D02*
X118419047Y-91681342D01*
X118228571Y-92062295D02*
X118228571Y-91262295D01*
X118228571Y-91262295D02*
X118533333Y-91262295D01*
X118533333Y-91262295D02*
X118609523Y-91300390D01*
X118609523Y-91300390D02*
X118647618Y-91338485D01*
X118647618Y-91338485D02*
X118685714Y-91414676D01*
X118685714Y-91414676D02*
X118685714Y-91528961D01*
X118685714Y-91528961D02*
X118647618Y-91605152D01*
X118647618Y-91605152D02*
X118609523Y-91643247D01*
X118609523Y-91643247D02*
X118533333Y-91681342D01*
X118533333Y-91681342D02*
X118228571Y-91681342D01*
X119447618Y-92062295D02*
X118990475Y-92062295D01*
X119219047Y-92062295D02*
X119219047Y-91262295D01*
X119219047Y-91262295D02*
X119142856Y-91376580D01*
X119142856Y-91376580D02*
X119066666Y-91452771D01*
X119066666Y-91452771D02*
X118990475Y-91490866D01*
X119752380Y-91338485D02*
X119790476Y-91300390D01*
X119790476Y-91300390D02*
X119866666Y-91262295D01*
X119866666Y-91262295D02*
X120057142Y-91262295D01*
X120057142Y-91262295D02*
X120133333Y-91300390D01*
X120133333Y-91300390D02*
X120171428Y-91338485D01*
X120171428Y-91338485D02*
X120209523Y-91414676D01*
X120209523Y-91414676D02*
X120209523Y-91490866D01*
X120209523Y-91490866D02*
X120171428Y-91605152D01*
X120171428Y-91605152D02*
X119714285Y-92062295D01*
X119714285Y-92062295D02*
X120209523Y-92062295D01*
X90666667Y-82707200D02*
X90809524Y-82754819D01*
X90809524Y-82754819D02*
X91047619Y-82754819D01*
X91047619Y-82754819D02*
X91142857Y-82707200D01*
X91142857Y-82707200D02*
X91190476Y-82659580D01*
X91190476Y-82659580D02*
X91238095Y-82564342D01*
X91238095Y-82564342D02*
X91238095Y-82469104D01*
X91238095Y-82469104D02*
X91190476Y-82373866D01*
X91190476Y-82373866D02*
X91142857Y-82326247D01*
X91142857Y-82326247D02*
X91047619Y-82278628D01*
X91047619Y-82278628D02*
X90857143Y-82231009D01*
X90857143Y-82231009D02*
X90761905Y-82183390D01*
X90761905Y-82183390D02*
X90714286Y-82135771D01*
X90714286Y-82135771D02*
X90666667Y-82040533D01*
X90666667Y-82040533D02*
X90666667Y-81945295D01*
X90666667Y-81945295D02*
X90714286Y-81850057D01*
X90714286Y-81850057D02*
X90761905Y-81802438D01*
X90761905Y-81802438D02*
X90857143Y-81754819D01*
X90857143Y-81754819D02*
X91095238Y-81754819D01*
X91095238Y-81754819D02*
X91238095Y-81802438D01*
X91571429Y-81754819D02*
X91809524Y-82754819D01*
X91809524Y-82754819D02*
X92000000Y-82040533D01*
X92000000Y-82040533D02*
X92190476Y-82754819D01*
X92190476Y-82754819D02*
X92428572Y-81754819D01*
X92714286Y-81754819D02*
X93333333Y-81754819D01*
X93333333Y-81754819D02*
X93000000Y-82135771D01*
X93000000Y-82135771D02*
X93142857Y-82135771D01*
X93142857Y-82135771D02*
X93238095Y-82183390D01*
X93238095Y-82183390D02*
X93285714Y-82231009D01*
X93285714Y-82231009D02*
X93333333Y-82326247D01*
X93333333Y-82326247D02*
X93333333Y-82564342D01*
X93333333Y-82564342D02*
X93285714Y-82659580D01*
X93285714Y-82659580D02*
X93238095Y-82707200D01*
X93238095Y-82707200D02*
X93142857Y-82754819D01*
X93142857Y-82754819D02*
X92857143Y-82754819D01*
X92857143Y-82754819D02*
X92761905Y-82707200D01*
X92761905Y-82707200D02*
X92714286Y-82659580D01*
X137933333Y-98154819D02*
X137600000Y-97678628D01*
X137361905Y-98154819D02*
X137361905Y-97154819D01*
X137361905Y-97154819D02*
X137742857Y-97154819D01*
X137742857Y-97154819D02*
X137838095Y-97202438D01*
X137838095Y-97202438D02*
X137885714Y-97250057D01*
X137885714Y-97250057D02*
X137933333Y-97345295D01*
X137933333Y-97345295D02*
X137933333Y-97488152D01*
X137933333Y-97488152D02*
X137885714Y-97583390D01*
X137885714Y-97583390D02*
X137838095Y-97631009D01*
X137838095Y-97631009D02*
X137742857Y-97678628D01*
X137742857Y-97678628D02*
X137361905Y-97678628D01*
X138790476Y-97154819D02*
X138600000Y-97154819D01*
X138600000Y-97154819D02*
X138504762Y-97202438D01*
X138504762Y-97202438D02*
X138457143Y-97250057D01*
X138457143Y-97250057D02*
X138361905Y-97392914D01*
X138361905Y-97392914D02*
X138314286Y-97583390D01*
X138314286Y-97583390D02*
X138314286Y-97964342D01*
X138314286Y-97964342D02*
X138361905Y-98059580D01*
X138361905Y-98059580D02*
X138409524Y-98107200D01*
X138409524Y-98107200D02*
X138504762Y-98154819D01*
X138504762Y-98154819D02*
X138695238Y-98154819D01*
X138695238Y-98154819D02*
X138790476Y-98107200D01*
X138790476Y-98107200D02*
X138838095Y-98059580D01*
X138838095Y-98059580D02*
X138885714Y-97964342D01*
X138885714Y-97964342D02*
X138885714Y-97726247D01*
X138885714Y-97726247D02*
X138838095Y-97631009D01*
X138838095Y-97631009D02*
X138790476Y-97583390D01*
X138790476Y-97583390D02*
X138695238Y-97535771D01*
X138695238Y-97535771D02*
X138504762Y-97535771D01*
X138504762Y-97535771D02*
X138409524Y-97583390D01*
X138409524Y-97583390D02*
X138361905Y-97631009D01*
X138361905Y-97631009D02*
X138314286Y-97726247D01*
X76516666Y-105954819D02*
X76516666Y-106669104D01*
X76516666Y-106669104D02*
X76469047Y-106811961D01*
X76469047Y-106811961D02*
X76373809Y-106907200D01*
X76373809Y-106907200D02*
X76230952Y-106954819D01*
X76230952Y-106954819D02*
X76135714Y-106954819D01*
X77516666Y-106954819D02*
X76945238Y-106954819D01*
X77230952Y-106954819D02*
X77230952Y-105954819D01*
X77230952Y-105954819D02*
X77135714Y-106097676D01*
X77135714Y-106097676D02*
X77040476Y-106192914D01*
X77040476Y-106192914D02*
X76945238Y-106240533D01*
X117854761Y-84025057D02*
X117759523Y-83977438D01*
X117759523Y-83977438D02*
X117664285Y-83882200D01*
X117664285Y-83882200D02*
X117521428Y-83739342D01*
X117521428Y-83739342D02*
X117426190Y-83691723D01*
X117426190Y-83691723D02*
X117330952Y-83691723D01*
X117378571Y-83929819D02*
X117283333Y-83882200D01*
X117283333Y-83882200D02*
X117188095Y-83786961D01*
X117188095Y-83786961D02*
X117140476Y-83596485D01*
X117140476Y-83596485D02*
X117140476Y-83263152D01*
X117140476Y-83263152D02*
X117188095Y-83072676D01*
X117188095Y-83072676D02*
X117283333Y-82977438D01*
X117283333Y-82977438D02*
X117378571Y-82929819D01*
X117378571Y-82929819D02*
X117569047Y-82929819D01*
X117569047Y-82929819D02*
X117664285Y-82977438D01*
X117664285Y-82977438D02*
X117759523Y-83072676D01*
X117759523Y-83072676D02*
X117807142Y-83263152D01*
X117807142Y-83263152D02*
X117807142Y-83596485D01*
X117807142Y-83596485D02*
X117759523Y-83786961D01*
X117759523Y-83786961D02*
X117664285Y-83882200D01*
X117664285Y-83882200D02*
X117569047Y-83929819D01*
X117569047Y-83929819D02*
X117378571Y-83929819D01*
X118759523Y-83929819D02*
X118188095Y-83929819D01*
X118473809Y-83929819D02*
X118473809Y-82929819D01*
X118473809Y-82929819D02*
X118378571Y-83072676D01*
X118378571Y-83072676D02*
X118283333Y-83167914D01*
X118283333Y-83167914D02*
X118188095Y-83215533D01*
X139307142Y-90759580D02*
X139259523Y-90807200D01*
X139259523Y-90807200D02*
X139116666Y-90854819D01*
X139116666Y-90854819D02*
X139021428Y-90854819D01*
X139021428Y-90854819D02*
X138878571Y-90807200D01*
X138878571Y-90807200D02*
X138783333Y-90711961D01*
X138783333Y-90711961D02*
X138735714Y-90616723D01*
X138735714Y-90616723D02*
X138688095Y-90426247D01*
X138688095Y-90426247D02*
X138688095Y-90283390D01*
X138688095Y-90283390D02*
X138735714Y-90092914D01*
X138735714Y-90092914D02*
X138783333Y-89997676D01*
X138783333Y-89997676D02*
X138878571Y-89902438D01*
X138878571Y-89902438D02*
X139021428Y-89854819D01*
X139021428Y-89854819D02*
X139116666Y-89854819D01*
X139116666Y-89854819D02*
X139259523Y-89902438D01*
X139259523Y-89902438D02*
X139307142Y-89950057D01*
X140259523Y-90854819D02*
X139688095Y-90854819D01*
X139973809Y-90854819D02*
X139973809Y-89854819D01*
X139973809Y-89854819D02*
X139878571Y-89997676D01*
X139878571Y-89997676D02*
X139783333Y-90092914D01*
X139783333Y-90092914D02*
X139688095Y-90140533D01*
X141211904Y-90854819D02*
X140640476Y-90854819D01*
X140926190Y-90854819D02*
X140926190Y-89854819D01*
X140926190Y-89854819D02*
X140830952Y-89997676D01*
X140830952Y-89997676D02*
X140735714Y-90092914D01*
X140735714Y-90092914D02*
X140640476Y-90140533D01*
X105804167Y-84312295D02*
X105537500Y-83931342D01*
X105347024Y-84312295D02*
X105347024Y-83512295D01*
X105347024Y-83512295D02*
X105651786Y-83512295D01*
X105651786Y-83512295D02*
X105727976Y-83550390D01*
X105727976Y-83550390D02*
X105766071Y-83588485D01*
X105766071Y-83588485D02*
X105804167Y-83664676D01*
X105804167Y-83664676D02*
X105804167Y-83778961D01*
X105804167Y-83778961D02*
X105766071Y-83855152D01*
X105766071Y-83855152D02*
X105727976Y-83893247D01*
X105727976Y-83893247D02*
X105651786Y-83931342D01*
X105651786Y-83931342D02*
X105347024Y-83931342D01*
X106070833Y-83512295D02*
X106566071Y-83512295D01*
X106566071Y-83512295D02*
X106299405Y-83817057D01*
X106299405Y-83817057D02*
X106413690Y-83817057D01*
X106413690Y-83817057D02*
X106489881Y-83855152D01*
X106489881Y-83855152D02*
X106527976Y-83893247D01*
X106527976Y-83893247D02*
X106566071Y-83969438D01*
X106566071Y-83969438D02*
X106566071Y-84159914D01*
X106566071Y-84159914D02*
X106527976Y-84236104D01*
X106527976Y-84236104D02*
X106489881Y-84274200D01*
X106489881Y-84274200D02*
X106413690Y-84312295D01*
X106413690Y-84312295D02*
X106185119Y-84312295D01*
X106185119Y-84312295D02*
X106108928Y-84274200D01*
X106108928Y-84274200D02*
X106070833Y-84236104D01*
X89083333Y-111884580D02*
X89035714Y-111932200D01*
X89035714Y-111932200D02*
X88892857Y-111979819D01*
X88892857Y-111979819D02*
X88797619Y-111979819D01*
X88797619Y-111979819D02*
X88654762Y-111932200D01*
X88654762Y-111932200D02*
X88559524Y-111836961D01*
X88559524Y-111836961D02*
X88511905Y-111741723D01*
X88511905Y-111741723D02*
X88464286Y-111551247D01*
X88464286Y-111551247D02*
X88464286Y-111408390D01*
X88464286Y-111408390D02*
X88511905Y-111217914D01*
X88511905Y-111217914D02*
X88559524Y-111122676D01*
X88559524Y-111122676D02*
X88654762Y-111027438D01*
X88654762Y-111027438D02*
X88797619Y-110979819D01*
X88797619Y-110979819D02*
X88892857Y-110979819D01*
X88892857Y-110979819D02*
X89035714Y-111027438D01*
X89035714Y-111027438D02*
X89083333Y-111075057D01*
X89416667Y-110979819D02*
X90083333Y-110979819D01*
X90083333Y-110979819D02*
X89654762Y-111979819D01*
X112788095Y-91104819D02*
X112788095Y-91914342D01*
X112788095Y-91914342D02*
X112835714Y-92009580D01*
X112835714Y-92009580D02*
X112883333Y-92057200D01*
X112883333Y-92057200D02*
X112978571Y-92104819D01*
X112978571Y-92104819D02*
X113169047Y-92104819D01*
X113169047Y-92104819D02*
X113264285Y-92057200D01*
X113264285Y-92057200D02*
X113311904Y-92009580D01*
X113311904Y-92009580D02*
X113359523Y-91914342D01*
X113359523Y-91914342D02*
X113359523Y-91104819D01*
X114359523Y-92104819D02*
X113788095Y-92104819D01*
X114073809Y-92104819D02*
X114073809Y-91104819D01*
X114073809Y-91104819D02*
X113978571Y-91247676D01*
X113978571Y-91247676D02*
X113883333Y-91342914D01*
X113883333Y-91342914D02*
X113788095Y-91390533D01*
X83733333Y-90954819D02*
X83400000Y-90478628D01*
X83161905Y-90954819D02*
X83161905Y-89954819D01*
X83161905Y-89954819D02*
X83542857Y-89954819D01*
X83542857Y-89954819D02*
X83638095Y-90002438D01*
X83638095Y-90002438D02*
X83685714Y-90050057D01*
X83685714Y-90050057D02*
X83733333Y-90145295D01*
X83733333Y-90145295D02*
X83733333Y-90288152D01*
X83733333Y-90288152D02*
X83685714Y-90383390D01*
X83685714Y-90383390D02*
X83638095Y-90431009D01*
X83638095Y-90431009D02*
X83542857Y-90478628D01*
X83542857Y-90478628D02*
X83161905Y-90478628D01*
X84685714Y-90954819D02*
X84114286Y-90954819D01*
X84400000Y-90954819D02*
X84400000Y-89954819D01*
X84400000Y-89954819D02*
X84304762Y-90097676D01*
X84304762Y-90097676D02*
X84209524Y-90192914D01*
X84209524Y-90192914D02*
X84114286Y-90240533D01*
D11*
X104460436Y-115035000D02*
X104914564Y-115035000D01*
X104460436Y-113565000D02*
X104914564Y-113565000D01*
X109438748Y-115065000D02*
X109961252Y-115065000D01*
X109438748Y-113595000D02*
X109961252Y-113595000D01*
D12*
X103150000Y-116075000D02*
X103625000Y-116075000D01*
X103975000Y-116175000D02*
X104475000Y-116175000D01*
X103975000Y-118275000D02*
X103975000Y-116175000D01*
X104475000Y-116175000D02*
X104475000Y-118275000D01*
X104475000Y-118275000D02*
X103975000Y-118275000D01*
D11*
X116186257Y-98509420D02*
X116186257Y-98790580D01*
X117206257Y-98509420D02*
X117206257Y-98790580D01*
X105029568Y-95084420D02*
X105029568Y-95365580D01*
X106049568Y-95084420D02*
X106049568Y-95365580D01*
X118580000Y-80780000D02*
X118580000Y-79450000D01*
X119910000Y-80780000D02*
X118580000Y-80780000D01*
X121180000Y-78120000D02*
X131400000Y-78120000D01*
X121180000Y-80780000D02*
X121180000Y-78120000D01*
X121180000Y-80780000D02*
X131400000Y-80780000D01*
X131400000Y-80780000D02*
X131400000Y-78120000D01*
X99640000Y-93127064D02*
X99640000Y-92672936D01*
X101110000Y-93127064D02*
X101110000Y-92672936D01*
X91475378Y-119240000D02*
X92274622Y-119240000D01*
X91475378Y-120360000D02*
X92274622Y-120360000D01*
X88350000Y-96650000D02*
X88350000Y-98033000D01*
X88350000Y-96650000D02*
X89733000Y-96650000D01*
X88590000Y-96890000D02*
X88590000Y-98200000D01*
X88590000Y-96890000D02*
X95410000Y-96890000D01*
X88590000Y-99800000D02*
X88590000Y-101110000D01*
X88590000Y-101110000D02*
X95410000Y-101110000D01*
X91396667Y-98365000D02*
X91396667Y-99635000D01*
X95410000Y-96890000D02*
X95410000Y-98200000D01*
X95410000Y-99800000D02*
X95410000Y-101110000D01*
X90190000Y-98365000D02*
X91396667Y-98365000D01*
X91396667Y-99635000D01*
X90190000Y-99635000D01*
X90190000Y-98365000D01*
G36*
X90190000Y-98365000D02*
G01*
X91396667Y-98365000D01*
X91396667Y-99635000D01*
X90190000Y-99635000D01*
X90190000Y-98365000D01*
G37*
X90190000Y-98365000D02*
X93810000Y-98365000D01*
X93810000Y-99635000D01*
X90190000Y-99635000D01*
X90190000Y-98365000D01*
X114640000Y-98509420D02*
X114640000Y-98790580D01*
X115660000Y-98509420D02*
X115660000Y-98790580D01*
X106772936Y-87840000D02*
X107227064Y-87840000D01*
X106772936Y-89310000D02*
X107227064Y-89310000D01*
X108890000Y-106330000D02*
X108890000Y-105000000D01*
X110220000Y-106330000D02*
X108890000Y-106330000D01*
X111490000Y-103670000D02*
X129330000Y-103670000D01*
X111490000Y-106330000D02*
X111490000Y-103670000D01*
X111490000Y-106330000D02*
X129330000Y-106330000D01*
X129330000Y-106330000D02*
X129330000Y-103670000D01*
X114262742Y-101727500D02*
X114737258Y-101727500D01*
X114262742Y-102772500D02*
X114737258Y-102772500D01*
X106095000Y-80805000D02*
X106095000Y-79475000D01*
X107425000Y-80805000D02*
X106095000Y-80805000D01*
X108695000Y-78145000D02*
X116375000Y-78145000D01*
X108695000Y-80805000D02*
X108695000Y-78145000D01*
X108695000Y-80805000D02*
X116375000Y-80805000D01*
X116375000Y-80805000D02*
X116375000Y-78145000D01*
X103440000Y-95059420D02*
X103440000Y-95340580D01*
X104460000Y-95059420D02*
X104460000Y-95340580D01*
X111137742Y-101727500D02*
X111612258Y-101727500D01*
X111137742Y-102772500D02*
X111612258Y-102772500D01*
X127585000Y-99494564D02*
X127585000Y-99040436D01*
X129055000Y-99494564D02*
X129055000Y-99040436D01*
X105990000Y-91915580D02*
X105990000Y-91634420D01*
X107010000Y-91915580D02*
X107010000Y-91634420D01*
X122162258Y-92527500D02*
X121687742Y-92527500D01*
X122162258Y-93572500D02*
X121687742Y-93572500D01*
X129047064Y-88120000D02*
X128592936Y-88120000D01*
X129047064Y-89590000D02*
X128592936Y-89590000D01*
X121772936Y-85265000D02*
X122227064Y-85265000D01*
X121772936Y-86735000D02*
X122227064Y-86735000D01*
D13*
X129175000Y-91235000D02*
X134465000Y-91235000D01*
X129175000Y-96475000D02*
X134465000Y-96475000D01*
D12*
X126580000Y-91370000D02*
G75*
G02*
X126380000Y-91370000I-100000J0D01*
G01*
X126380000Y-91370000D02*
G75*
G02*
X126580000Y-91370000I100000J0D01*
G01*
D11*
X104287878Y-110692000D02*
X105087122Y-110692000D01*
X104287878Y-111812000D02*
X105087122Y-111812000D01*
X100815000Y-84540000D02*
X100815000Y-86460000D01*
X100815000Y-86460000D02*
X103500000Y-86460000D01*
X103500000Y-84540000D02*
X100815000Y-84540000D01*
X111265000Y-85635436D02*
X111265000Y-86089564D01*
X112735000Y-85635436D02*
X112735000Y-86089564D01*
X140395000Y-79946750D02*
X141725000Y-79946750D01*
X140395000Y-81276750D02*
X140395000Y-79946750D01*
X140395000Y-82546750D02*
X140395000Y-87686750D01*
X140395000Y-82546750D02*
X143055000Y-82546750D01*
X140395000Y-87686750D02*
X143055000Y-87686750D01*
X143055000Y-82546750D02*
X143055000Y-87686750D01*
X88350000Y-89650000D02*
X88350000Y-91033000D01*
X88350000Y-89650000D02*
X89733000Y-89650000D01*
X88590000Y-89890000D02*
X88590000Y-91200000D01*
X88590000Y-89890000D02*
X95410000Y-89890000D01*
X88590000Y-92800000D02*
X88590000Y-94110000D01*
X88590000Y-94110000D02*
X95410000Y-94110000D01*
X91396667Y-91365000D02*
X91396667Y-92635000D01*
X95410000Y-89890000D02*
X95410000Y-91200000D01*
X95410000Y-92800000D02*
X95410000Y-94110000D01*
X90190000Y-91365000D02*
X91396667Y-91365000D01*
X91396667Y-92635000D01*
X90190000Y-92635000D01*
X90190000Y-91365000D01*
G36*
X90190000Y-91365000D02*
G01*
X91396667Y-91365000D01*
X91396667Y-92635000D01*
X90190000Y-92635000D01*
X90190000Y-91365000D01*
G37*
X90190000Y-91365000D02*
X93810000Y-91365000D01*
X93810000Y-92635000D01*
X90190000Y-92635000D01*
X90190000Y-91365000D01*
X99440000Y-99559420D02*
X99440000Y-99840580D01*
X100460000Y-99559420D02*
X100460000Y-99840580D01*
X122162258Y-94627500D02*
X121687742Y-94627500D01*
X122162258Y-95672500D02*
X121687742Y-95672500D01*
X96888748Y-111640000D02*
X97411252Y-111640000D01*
X96888748Y-113110000D02*
X97411252Y-113110000D01*
X96888748Y-114215000D02*
X97411252Y-114215000D01*
X96888748Y-115685000D02*
X97411252Y-115685000D01*
X100815000Y-87615000D02*
X100815000Y-89535000D01*
X100815000Y-89535000D02*
X103500000Y-89535000D01*
X103500000Y-87615000D02*
X100815000Y-87615000D01*
X107937742Y-101727500D02*
X108412258Y-101727500D01*
X107937742Y-102772500D02*
X108412258Y-102772500D01*
D14*
X93125000Y-116775000D02*
X93125000Y-116775000D01*
X93225000Y-116775000D02*
X93225000Y-116775000D01*
X93125000Y-116775000D02*
G75*
G02*
X93225000Y-116775000I50000J0D01*
G01*
X93225000Y-116775000D02*
G75*
G02*
X93125000Y-116775000I-50000J0D01*
G01*
D11*
X92560000Y-107300000D02*
X87050000Y-107300000D01*
X92560000Y-110600000D02*
X87050000Y-110600000D01*
X92560000Y-110600000D02*
X92560000Y-107300000D01*
X96415000Y-119677064D02*
X96415000Y-119222936D01*
X97885000Y-119677064D02*
X97885000Y-119222936D01*
X122162258Y-90427500D02*
X121687742Y-90427500D01*
X122162258Y-91472500D02*
X121687742Y-91472500D01*
X88350000Y-83050000D02*
X88350000Y-84433000D01*
X88350000Y-83050000D02*
X89733000Y-83050000D01*
X88590000Y-83290000D02*
X88590000Y-84600000D01*
X88590000Y-83290000D02*
X95410000Y-83290000D01*
X88590000Y-86200000D02*
X88590000Y-87510000D01*
X88590000Y-87510000D02*
X95410000Y-87510000D01*
X91396667Y-84765000D02*
X91396667Y-86035000D01*
X95410000Y-83290000D02*
X95410000Y-84600000D01*
X95410000Y-86200000D02*
X95410000Y-87510000D01*
X90190000Y-84765000D02*
X91396667Y-84765000D01*
X91396667Y-86035000D01*
X90190000Y-86035000D01*
X90190000Y-84765000D01*
G36*
X90190000Y-84765000D02*
G01*
X91396667Y-84765000D01*
X91396667Y-86035000D01*
X90190000Y-86035000D01*
X90190000Y-84765000D01*
G37*
X90190000Y-84765000D02*
X93810000Y-84765000D01*
X93810000Y-86035000D01*
X90190000Y-86035000D01*
X90190000Y-84765000D01*
X139134564Y-95120000D02*
X138680436Y-95120000D01*
X139134564Y-96590000D02*
X138680436Y-96590000D01*
X76390000Y-107590000D02*
X77810000Y-107590000D01*
X76390000Y-119310000D02*
X76390000Y-107590000D01*
X77810000Y-107590000D02*
X77810000Y-112090000D01*
X78650000Y-109500000D02*
X79250000Y-109500000D01*
X78700000Y-113200000D02*
X78700000Y-118700000D01*
X78700000Y-118700000D02*
X79200000Y-118700000D01*
X78950000Y-110100000D02*
X78650000Y-109500000D01*
X79200000Y-113200000D02*
X78700000Y-113200000D01*
X79200000Y-118700000D02*
X79200000Y-113200000D01*
X79250000Y-109500000D02*
X78950000Y-110100000D01*
X80200000Y-119310000D02*
X76390000Y-119310000D01*
X80200000Y-119310000D02*
X84010000Y-119310000D01*
X81200000Y-113200000D02*
X81200000Y-118700000D01*
X81200000Y-118700000D02*
X81700000Y-118700000D01*
X81700000Y-113200000D02*
X81200000Y-113200000D01*
X81700000Y-118700000D02*
X81700000Y-113200000D01*
X82590000Y-107590000D02*
X82590000Y-112090000D01*
X84010000Y-107590000D02*
X82590000Y-107590000D01*
X84010000Y-119310000D02*
X84010000Y-107590000D01*
X116937500Y-84390000D02*
X116287500Y-84390000D01*
X116937500Y-84390000D02*
X117587500Y-84390000D01*
X116937500Y-87510000D02*
X116287500Y-87510000D01*
X116937500Y-87510000D02*
X117587500Y-87510000D01*
X115775000Y-84440000D02*
X115535000Y-84110000D01*
X116015000Y-84110000D01*
X115775000Y-84440000D01*
G36*
X115775000Y-84440000D02*
G01*
X115535000Y-84110000D01*
X116015000Y-84110000D01*
X115775000Y-84440000D01*
G37*
X138810000Y-92770580D02*
X138810000Y-92489420D01*
X139830000Y-92770580D02*
X139830000Y-92489420D01*
X106772936Y-84765000D02*
X107227064Y-84765000D01*
X106772936Y-86235000D02*
X107227064Y-86235000D01*
X91613748Y-111690000D02*
X92136252Y-111690000D01*
X91613748Y-113160000D02*
X92136252Y-113160000D01*
X108040000Y-93365000D02*
X108040000Y-93130000D01*
X108040000Y-98110000D02*
X108040000Y-97635000D01*
X108515000Y-92890000D02*
X108340000Y-92890000D01*
X108515000Y-98110000D02*
X108040000Y-98110000D01*
X112785000Y-92890000D02*
X113260000Y-92890000D01*
X112785000Y-98110000D02*
X113260000Y-98110000D01*
X113260000Y-92890000D02*
X113260000Y-93365000D01*
X113260000Y-98110000D02*
X113260000Y-97635000D01*
X108040000Y-92890000D02*
X107800000Y-92560000D01*
X108280000Y-92560000D01*
X108040000Y-92890000D01*
G36*
X108040000Y-92890000D02*
G01*
X107800000Y-92560000D01*
X108280000Y-92560000D01*
X108040000Y-92890000D01*
G37*
X83290000Y-93127064D02*
X83290000Y-92672936D01*
X84760000Y-93127064D02*
X84760000Y-92672936D01*
%LPC*%
D15*
X105600000Y-114300000D03*
X103775000Y-114300000D03*
D16*
X110650000Y-114330000D03*
X108750000Y-114330000D03*
D17*
X103387000Y-116475000D03*
X103387000Y-116975000D03*
X103387000Y-117475000D03*
X103387000Y-117975000D03*
X105063000Y-117975000D03*
X105063000Y-117475000D03*
X105063000Y-116975000D03*
X105063000Y-116475000D03*
D18*
X116696257Y-97875000D03*
X116696257Y-99425000D03*
X105539568Y-94450000D03*
X105539568Y-96000000D03*
D19*
X119910000Y-79450000D03*
D20*
X122450000Y-79450000D03*
X124990000Y-79450000D03*
X127530000Y-79450000D03*
X130070000Y-79450000D03*
D21*
X100375000Y-93812500D03*
X100375000Y-91987500D03*
D22*
X90812500Y-119800000D03*
X92937500Y-119800000D03*
D23*
X88635000Y-99000000D03*
X95365000Y-99000000D03*
D18*
X115150000Y-97875000D03*
X115150000Y-99425000D03*
D15*
X106087500Y-88575000D03*
X107912500Y-88575000D03*
D24*
X141250000Y-76250000D03*
D19*
X110220000Y-105000000D03*
D20*
X112760000Y-105000000D03*
X115300000Y-105000000D03*
X117840000Y-105000000D03*
X120380000Y-105000000D03*
X122920000Y-105000000D03*
X125460000Y-105000000D03*
X128000000Y-105000000D03*
D24*
X141250000Y-122650000D03*
D25*
X113675000Y-102250000D03*
X115325000Y-102250000D03*
D19*
X107425000Y-79475000D03*
D20*
X109965000Y-79475000D03*
X112505000Y-79475000D03*
X115045000Y-79475000D03*
D18*
X103950000Y-94425000D03*
X103950000Y-95975000D03*
D25*
X110550000Y-102250000D03*
X112200000Y-102250000D03*
D21*
X128320000Y-100180000D03*
X128320000Y-98355000D03*
D26*
X106500000Y-92550000D03*
X106500000Y-91000000D03*
D24*
X78550000Y-76250000D03*
D27*
X122750000Y-93050000D03*
X121100000Y-93050000D03*
D28*
X129732500Y-88855000D03*
X127907500Y-88855000D03*
D15*
X121087500Y-86000000D03*
X122912500Y-86000000D03*
D29*
X128190000Y-91950000D03*
X128190000Y-93220000D03*
X128190000Y-94490000D03*
X128190000Y-95760000D03*
X135450000Y-95760000D03*
X135450000Y-94490000D03*
X135450000Y-93220000D03*
X135450000Y-91950000D03*
D22*
X103625000Y-111252000D03*
X105750000Y-111252000D03*
D30*
X101562500Y-85500000D03*
X103437500Y-85500000D03*
D31*
X112000000Y-84950000D03*
X112000000Y-86775000D03*
D19*
X141725000Y-81276750D03*
D20*
X141725000Y-83816750D03*
X141725000Y-86356750D03*
D23*
X88635000Y-92000000D03*
X95365000Y-92000000D03*
D18*
X99950000Y-98925000D03*
X99950000Y-100475000D03*
D27*
X122750000Y-95150000D03*
X121100000Y-95150000D03*
D16*
X96200000Y-112375000D03*
X98100000Y-112375000D03*
X96200000Y-114950000D03*
X98100000Y-114950000D03*
D30*
X101562500Y-88575000D03*
X103437500Y-88575000D03*
D25*
X107350000Y-102250000D03*
X109000000Y-102250000D03*
D32*
X92500000Y-116775000D03*
D33*
X92500000Y-116225000D03*
X92500000Y-115725000D03*
X90550000Y-115725000D03*
X90550000Y-116225000D03*
X90550000Y-116725000D03*
D34*
X91525000Y-116225000D03*
D35*
X91525000Y-117075000D03*
X91525000Y-115375000D03*
D36*
X91050000Y-108950000D03*
X87050000Y-108950000D03*
D24*
X78550000Y-122650000D03*
D21*
X97150000Y-120362500D03*
X97150000Y-118537500D03*
D27*
X122750000Y-90950000D03*
X121100000Y-90950000D03*
D23*
X88635000Y-85400000D03*
X95365000Y-85400000D03*
D28*
X139820000Y-95855000D03*
X137995000Y-95855000D03*
D37*
X78950000Y-111600000D03*
D38*
X81450000Y-111600000D03*
D39*
X116000000Y-85000000D03*
X116000000Y-86900000D03*
X117875000Y-85950000D03*
D26*
X139320000Y-93405000D03*
X139320000Y-91855000D03*
D15*
X106087500Y-85500000D03*
X107912500Y-85500000D03*
D16*
X90925000Y-112425000D03*
X92825000Y-112425000D03*
D40*
X108212500Y-93750000D03*
X108212500Y-94250000D03*
X108212500Y-94750000D03*
X108212500Y-95250000D03*
X108212500Y-95750000D03*
X108212500Y-96250000D03*
X108212500Y-96750000D03*
X108212500Y-97250000D03*
D41*
X108900000Y-97937500D03*
X109400000Y-97937500D03*
X109900000Y-97937500D03*
X110400000Y-97937500D03*
X110900000Y-97937500D03*
X111400000Y-97937500D03*
X111900000Y-97937500D03*
X112400000Y-97937500D03*
D40*
X113087500Y-97250000D03*
X113087500Y-96750000D03*
X113087500Y-96250000D03*
X113087500Y-95750000D03*
X113087500Y-95250000D03*
X113087500Y-94750000D03*
X113087500Y-94250000D03*
X113087500Y-93750000D03*
D41*
X112400000Y-93062500D03*
X111900000Y-93062500D03*
X111400000Y-93062500D03*
X110900000Y-93062500D03*
X110400000Y-93062500D03*
X109900000Y-93062500D03*
X109400000Y-93062500D03*
X108900000Y-93062500D03*
D42*
X110650000Y-95500000D03*
D21*
X84025000Y-93812500D03*
X84025000Y-91987500D03*
%LPD*%
M02*
