M48
; DRILL file {KiCad 9.0.0} date 2025-05-01T15:15:35-0300
; FORMAT={-:-/ absolute / metric / decimal}
; #@! TF.CreationDate,2025-05-01T15:15:35-03:00
; #@! TF.GenerationSoftware,Kicad,Pcbnew,9.0.0
; #@! TF.FileFunction,Plated,1,2,PTH
FMAT,2
METRIC
; #@! TA.AperFunction,Plated,PTH,ViaDrill
T1C0.254
; #@! TA.AperFunction,Plated,PTH,ComponentDrill
T2C1.000
%
G90
G05
T1
X79.95Y-105.05
X80.0Y-79.95
X80.0Y-85.1
X80.0Y-89.6
X80.0Y-100.05
X80.05Y-95.0
X83.15Y-122.45
X85.0Y-79.95
X85.0Y-85.1
X85.0Y-89.6
X85.182Y-75.5
X86.3Y-100.05
X86.3Y-105.05
X86.95Y-112.55
X87.3Y-95.0
X88.55Y-116.225
X88.55Y-119.775
X89.27Y-122.45
X89.85Y-114.7
X89.85Y-117.75
X90.0Y-79.95
X90.314Y-75.5
X91.7Y-113.625
X92.475Y-105.05
X93.2Y-114.7
X93.2Y-117.75
X94.4Y-114.7
X94.4Y-115.725
X94.4Y-117.75
X94.55Y-95.0
X94.9Y-112.5
X95.0Y-79.95
X95.445Y-75.5
X95.475Y-122.45
X97.9Y-85.475
X98.575Y-119.15
X99.35Y-105.05
X99.35Y-108.0
X99.45Y-112.55
X99.475Y-120.325
X99.975Y-95.0
X100.0Y-79.95
X100.0Y-89.568
X100.577Y-75.5
X101.15Y-116.942
X101.375Y-119.95
X101.55Y-122.45
X101.625Y-98.85
X102.075Y-114.4
X102.1Y-119.378
X103.5Y-100.05
X105.0Y-105.05
X105.0Y-108.0
X105.169Y-115.673
X105.709Y-75.5
X106.05Y-116.15
X106.25Y-97.25
X106.4Y-119.3
X106.775Y-94.425
X106.925Y-96.691
X107.0Y-117.534
X107.075Y-104.975
X108.0Y-91.6
X108.3Y-99.5
X108.725Y-116.15
X109.3Y-99.35
X109.95Y-90.025
X109.95Y-122.45
X110.0Y-83.975
X110.025Y-112.55
X110.025Y-117.95
X110.05Y-108.0
X110.558Y-90.717
X110.841Y-75.5
X110.841Y-82.575
X110.925Y-91.875
X112.25Y-101.0
X112.35Y-83.775
X114.9Y-96.15
X115.973Y-75.5
X115.973Y-82.575
X116.07Y-108.0
X116.07Y-112.55
X116.07Y-117.95
X116.07Y-122.45
X116.65Y-93.3
X117.125Y-96.375
X119.05Y-100.0
X119.216Y-85.892
X121.075Y-87.6
X121.175Y-75.5
X121.175Y-82.575
X122.09Y-108.0
X122.275Y-112.55
X122.275Y-117.775
X122.275Y-122.45
X122.35Y-84.525
X123.725Y-84.45
X124.775Y-94.475
X124.82Y-88.855
X125.05Y-100.0
X126.236Y-75.5
X126.236Y-82.65
X126.352Y-95.053
X128.35Y-108.0
X128.35Y-112.55
X128.35Y-117.8
X128.35Y-122.45
X130.25Y-86.05
X131.368Y-75.5
X131.368Y-82.625
X134.13Y-112.55
X134.13Y-117.775
X134.13Y-122.45
X134.15Y-104.9
X134.15Y-108.0
X135.05Y-99.95
X135.45Y-97.325
X135.55Y-89.725
X136.5Y-75.5
X136.5Y-80.05
X136.546Y-89.568
X137.525Y-82.075
X138.35Y-84.2
X140.2Y-105.1
X140.2Y-108.0
X140.2Y-112.55
X140.2Y-117.725
T2
X78.95Y-111.6
X81.45Y-111.6
X107.425Y-79.475
X109.965Y-79.475
X110.22Y-105.0
X112.505Y-79.475
X112.76Y-105.0
X115.045Y-79.475
X115.3Y-105.0
X117.84Y-105.0
X119.91Y-79.45
X120.38Y-105.0
X122.45Y-79.45
X122.92Y-105.0
X124.99Y-79.45
X125.46Y-105.0
X127.53Y-79.45
X128.0Y-105.0
X130.07Y-79.45
X141.725Y-81.277
X141.725Y-83.817
X141.725Y-86.357
M30
