%TF.GenerationSoftware,KiCad,Pcbnew,9.0.0*%
%TF.CreationDate,2025-04-30T01:11:54-03:00*%
%TF.ProjectId,hw_rfid,68775f72-6669-4642-9e6b-696361645f70,rev?*%
%TF.SameCoordinates,Original*%
%TF.FileFunction,Drillmap*%
%TF.FilePolarity,Positive*%
%FSLAX45Y45*%
G04 Gerber Fmt 4.5, Leading zero omitted, Abs format (unit mm)*
G04 Created by KiCad (PCBNEW 9.0.0) date 2025-04-30 01:11:54*
%MOMM*%
%LPD*%
G01*
G04 APERTURE LIST*
%ADD10C,0.050000*%
%ADD11C,0.200000*%
G04 APERTURE END LIST*
D10*
X7525000Y-7315000D02*
X14455000Y-7315000D01*
X14455000Y-12582500D01*
X7525000Y-12582500D01*
X7525000Y-7315000D01*
D11*
X7755000Y-7525000D02*
X7955000Y-7725000D01*
X7955000Y-7525000D02*
X7755000Y-7725000D01*
X7755000Y-12165000D02*
X7955000Y-12365000D01*
X7955000Y-12165000D02*
X7755000Y-12365000D01*
X14025000Y-7525000D02*
X14225000Y-7725000D01*
X14225000Y-7525000D02*
X14025000Y-7725000D01*
X14025000Y-12165000D02*
X14225000Y-12365000D01*
X14225000Y-12165000D02*
X14025000Y-12365000D01*
X7783277Y-12896484D02*
X7783277Y-12696484D01*
X7783277Y-12696484D02*
X7830896Y-12696484D01*
X7830896Y-12696484D02*
X7859467Y-12706008D01*
X7859467Y-12706008D02*
X7878515Y-12725055D01*
X7878515Y-12725055D02*
X7888039Y-12744103D01*
X7888039Y-12744103D02*
X7897562Y-12782198D01*
X7897562Y-12782198D02*
X7897562Y-12810769D01*
X7897562Y-12810769D02*
X7888039Y-12848865D01*
X7888039Y-12848865D02*
X7878515Y-12867912D01*
X7878515Y-12867912D02*
X7859467Y-12886960D01*
X7859467Y-12886960D02*
X7830896Y-12896484D01*
X7830896Y-12896484D02*
X7783277Y-12896484D01*
X7983277Y-12896484D02*
X7983277Y-12763150D01*
X7983277Y-12801246D02*
X7992801Y-12782198D01*
X7992801Y-12782198D02*
X8002324Y-12772674D01*
X8002324Y-12772674D02*
X8021372Y-12763150D01*
X8021372Y-12763150D02*
X8040420Y-12763150D01*
X8107086Y-12896484D02*
X8107086Y-12763150D01*
X8107086Y-12696484D02*
X8097562Y-12706008D01*
X8097562Y-12706008D02*
X8107086Y-12715531D01*
X8107086Y-12715531D02*
X8116610Y-12706008D01*
X8116610Y-12706008D02*
X8107086Y-12696484D01*
X8107086Y-12696484D02*
X8107086Y-12715531D01*
X8230896Y-12896484D02*
X8211848Y-12886960D01*
X8211848Y-12886960D02*
X8202324Y-12867912D01*
X8202324Y-12867912D02*
X8202324Y-12696484D01*
X8335658Y-12896484D02*
X8316610Y-12886960D01*
X8316610Y-12886960D02*
X8307086Y-12867912D01*
X8307086Y-12867912D02*
X8307086Y-12696484D01*
X8564229Y-12896484D02*
X8564229Y-12696484D01*
X8564229Y-12696484D02*
X8630896Y-12839341D01*
X8630896Y-12839341D02*
X8697563Y-12696484D01*
X8697563Y-12696484D02*
X8697563Y-12896484D01*
X8878515Y-12896484D02*
X8878515Y-12791722D01*
X8878515Y-12791722D02*
X8868991Y-12772674D01*
X8868991Y-12772674D02*
X8849944Y-12763150D01*
X8849944Y-12763150D02*
X8811848Y-12763150D01*
X8811848Y-12763150D02*
X8792801Y-12772674D01*
X8878515Y-12886960D02*
X8859467Y-12896484D01*
X8859467Y-12896484D02*
X8811848Y-12896484D01*
X8811848Y-12896484D02*
X8792801Y-12886960D01*
X8792801Y-12886960D02*
X8783277Y-12867912D01*
X8783277Y-12867912D02*
X8783277Y-12848865D01*
X8783277Y-12848865D02*
X8792801Y-12829817D01*
X8792801Y-12829817D02*
X8811848Y-12820293D01*
X8811848Y-12820293D02*
X8859467Y-12820293D01*
X8859467Y-12820293D02*
X8878515Y-12810769D01*
X8973753Y-12763150D02*
X8973753Y-12963150D01*
X8973753Y-12772674D02*
X8992801Y-12763150D01*
X8992801Y-12763150D02*
X9030896Y-12763150D01*
X9030896Y-12763150D02*
X9049944Y-12772674D01*
X9049944Y-12772674D02*
X9059467Y-12782198D01*
X9059467Y-12782198D02*
X9068991Y-12801246D01*
X9068991Y-12801246D02*
X9068991Y-12858388D01*
X9068991Y-12858388D02*
X9059467Y-12877436D01*
X9059467Y-12877436D02*
X9049944Y-12886960D01*
X9049944Y-12886960D02*
X9030896Y-12896484D01*
X9030896Y-12896484D02*
X8992801Y-12896484D01*
X8992801Y-12896484D02*
X8973753Y-12886960D01*
X9154705Y-12877436D02*
X9164229Y-12886960D01*
X9164229Y-12886960D02*
X9154705Y-12896484D01*
X9154705Y-12896484D02*
X9145182Y-12886960D01*
X9145182Y-12886960D02*
X9154705Y-12877436D01*
X9154705Y-12877436D02*
X9154705Y-12896484D01*
X9154705Y-12772674D02*
X9164229Y-12782198D01*
X9164229Y-12782198D02*
X9154705Y-12791722D01*
X9154705Y-12791722D02*
X9145182Y-12782198D01*
X9145182Y-12782198D02*
X9154705Y-12772674D01*
X9154705Y-12772674D02*
X9154705Y-12791722D01*
X7322500Y-13125000D02*
X7522500Y-13325000D01*
X7522500Y-13125000D02*
X7322500Y-13325000D01*
X7773753Y-13135531D02*
X7783277Y-13126008D01*
X7783277Y-13126008D02*
X7802324Y-13116484D01*
X7802324Y-13116484D02*
X7849943Y-13116484D01*
X7849943Y-13116484D02*
X7868991Y-13126008D01*
X7868991Y-13126008D02*
X7878515Y-13135531D01*
X7878515Y-13135531D02*
X7888039Y-13154579D01*
X7888039Y-13154579D02*
X7888039Y-13173627D01*
X7888039Y-13173627D02*
X7878515Y-13202198D01*
X7878515Y-13202198D02*
X7764229Y-13316484D01*
X7764229Y-13316484D02*
X7888039Y-13316484D01*
X7973753Y-13297436D02*
X7983277Y-13306960D01*
X7983277Y-13306960D02*
X7973753Y-13316484D01*
X7973753Y-13316484D02*
X7964229Y-13306960D01*
X7964229Y-13306960D02*
X7973753Y-13297436D01*
X7973753Y-13297436D02*
X7973753Y-13316484D01*
X8107086Y-13116484D02*
X8126134Y-13116484D01*
X8126134Y-13116484D02*
X8145182Y-13126008D01*
X8145182Y-13126008D02*
X8154705Y-13135531D01*
X8154705Y-13135531D02*
X8164229Y-13154579D01*
X8164229Y-13154579D02*
X8173753Y-13192674D01*
X8173753Y-13192674D02*
X8173753Y-13240293D01*
X8173753Y-13240293D02*
X8164229Y-13278388D01*
X8164229Y-13278388D02*
X8154705Y-13297436D01*
X8154705Y-13297436D02*
X8145182Y-13306960D01*
X8145182Y-13306960D02*
X8126134Y-13316484D01*
X8126134Y-13316484D02*
X8107086Y-13316484D01*
X8107086Y-13316484D02*
X8088039Y-13306960D01*
X8088039Y-13306960D02*
X8078515Y-13297436D01*
X8078515Y-13297436D02*
X8068991Y-13278388D01*
X8068991Y-13278388D02*
X8059467Y-13240293D01*
X8059467Y-13240293D02*
X8059467Y-13192674D01*
X8059467Y-13192674D02*
X8068991Y-13154579D01*
X8068991Y-13154579D02*
X8078515Y-13135531D01*
X8078515Y-13135531D02*
X8088039Y-13126008D01*
X8088039Y-13126008D02*
X8107086Y-13116484D01*
X8297562Y-13116484D02*
X8316610Y-13116484D01*
X8316610Y-13116484D02*
X8335658Y-13126008D01*
X8335658Y-13126008D02*
X8345182Y-13135531D01*
X8345182Y-13135531D02*
X8354705Y-13154579D01*
X8354705Y-13154579D02*
X8364229Y-13192674D01*
X8364229Y-13192674D02*
X8364229Y-13240293D01*
X8364229Y-13240293D02*
X8354705Y-13278388D01*
X8354705Y-13278388D02*
X8345182Y-13297436D01*
X8345182Y-13297436D02*
X8335658Y-13306960D01*
X8335658Y-13306960D02*
X8316610Y-13316484D01*
X8316610Y-13316484D02*
X8297562Y-13316484D01*
X8297562Y-13316484D02*
X8278515Y-13306960D01*
X8278515Y-13306960D02*
X8268991Y-13297436D01*
X8268991Y-13297436D02*
X8259467Y-13278388D01*
X8259467Y-13278388D02*
X8249943Y-13240293D01*
X8249943Y-13240293D02*
X8249943Y-13192674D01*
X8249943Y-13192674D02*
X8259467Y-13154579D01*
X8259467Y-13154579D02*
X8268991Y-13135531D01*
X8268991Y-13135531D02*
X8278515Y-13126008D01*
X8278515Y-13126008D02*
X8297562Y-13116484D01*
X8488039Y-13116484D02*
X8507086Y-13116484D01*
X8507086Y-13116484D02*
X8526134Y-13126008D01*
X8526134Y-13126008D02*
X8535658Y-13135531D01*
X8535658Y-13135531D02*
X8545182Y-13154579D01*
X8545182Y-13154579D02*
X8554705Y-13192674D01*
X8554705Y-13192674D02*
X8554705Y-13240293D01*
X8554705Y-13240293D02*
X8545182Y-13278388D01*
X8545182Y-13278388D02*
X8535658Y-13297436D01*
X8535658Y-13297436D02*
X8526134Y-13306960D01*
X8526134Y-13306960D02*
X8507086Y-13316484D01*
X8507086Y-13316484D02*
X8488039Y-13316484D01*
X8488039Y-13316484D02*
X8468991Y-13306960D01*
X8468991Y-13306960D02*
X8459467Y-13297436D01*
X8459467Y-13297436D02*
X8449944Y-13278388D01*
X8449944Y-13278388D02*
X8440420Y-13240293D01*
X8440420Y-13240293D02*
X8440420Y-13192674D01*
X8440420Y-13192674D02*
X8449944Y-13154579D01*
X8449944Y-13154579D02*
X8459467Y-13135531D01*
X8459467Y-13135531D02*
X8468991Y-13126008D01*
X8468991Y-13126008D02*
X8488039Y-13116484D01*
X8640420Y-13316484D02*
X8640420Y-13183150D01*
X8640420Y-13202198D02*
X8649944Y-13192674D01*
X8649944Y-13192674D02*
X8668991Y-13183150D01*
X8668991Y-13183150D02*
X8697563Y-13183150D01*
X8697563Y-13183150D02*
X8716610Y-13192674D01*
X8716610Y-13192674D02*
X8726134Y-13211722D01*
X8726134Y-13211722D02*
X8726134Y-13316484D01*
X8726134Y-13211722D02*
X8735658Y-13192674D01*
X8735658Y-13192674D02*
X8754705Y-13183150D01*
X8754705Y-13183150D02*
X8783277Y-13183150D01*
X8783277Y-13183150D02*
X8802325Y-13192674D01*
X8802325Y-13192674D02*
X8811848Y-13211722D01*
X8811848Y-13211722D02*
X8811848Y-13316484D01*
X8907086Y-13316484D02*
X8907086Y-13183150D01*
X8907086Y-13202198D02*
X8916610Y-13192674D01*
X8916610Y-13192674D02*
X8935658Y-13183150D01*
X8935658Y-13183150D02*
X8964229Y-13183150D01*
X8964229Y-13183150D02*
X8983277Y-13192674D01*
X8983277Y-13192674D02*
X8992801Y-13211722D01*
X8992801Y-13211722D02*
X8992801Y-13316484D01*
X8992801Y-13211722D02*
X9002325Y-13192674D01*
X9002325Y-13192674D02*
X9021372Y-13183150D01*
X9021372Y-13183150D02*
X9049944Y-13183150D01*
X9049944Y-13183150D02*
X9068991Y-13192674D01*
X9068991Y-13192674D02*
X9078515Y-13211722D01*
X9078515Y-13211722D02*
X9078515Y-13316484D01*
X9468991Y-13106960D02*
X9297563Y-13364103D01*
X9726134Y-13116484D02*
X9745182Y-13116484D01*
X9745182Y-13116484D02*
X9764229Y-13126008D01*
X9764229Y-13126008D02*
X9773753Y-13135531D01*
X9773753Y-13135531D02*
X9783277Y-13154579D01*
X9783277Y-13154579D02*
X9792801Y-13192674D01*
X9792801Y-13192674D02*
X9792801Y-13240293D01*
X9792801Y-13240293D02*
X9783277Y-13278388D01*
X9783277Y-13278388D02*
X9773753Y-13297436D01*
X9773753Y-13297436D02*
X9764229Y-13306960D01*
X9764229Y-13306960D02*
X9745182Y-13316484D01*
X9745182Y-13316484D02*
X9726134Y-13316484D01*
X9726134Y-13316484D02*
X9707087Y-13306960D01*
X9707087Y-13306960D02*
X9697563Y-13297436D01*
X9697563Y-13297436D02*
X9688039Y-13278388D01*
X9688039Y-13278388D02*
X9678515Y-13240293D01*
X9678515Y-13240293D02*
X9678515Y-13192674D01*
X9678515Y-13192674D02*
X9688039Y-13154579D01*
X9688039Y-13154579D02*
X9697563Y-13135531D01*
X9697563Y-13135531D02*
X9707087Y-13126008D01*
X9707087Y-13126008D02*
X9726134Y-13116484D01*
X9878515Y-13297436D02*
X9888039Y-13306960D01*
X9888039Y-13306960D02*
X9878515Y-13316484D01*
X9878515Y-13316484D02*
X9868991Y-13306960D01*
X9868991Y-13306960D02*
X9878515Y-13297436D01*
X9878515Y-13297436D02*
X9878515Y-13316484D01*
X10011848Y-13116484D02*
X10030896Y-13116484D01*
X10030896Y-13116484D02*
X10049944Y-13126008D01*
X10049944Y-13126008D02*
X10059468Y-13135531D01*
X10059468Y-13135531D02*
X10068991Y-13154579D01*
X10068991Y-13154579D02*
X10078515Y-13192674D01*
X10078515Y-13192674D02*
X10078515Y-13240293D01*
X10078515Y-13240293D02*
X10068991Y-13278388D01*
X10068991Y-13278388D02*
X10059468Y-13297436D01*
X10059468Y-13297436D02*
X10049944Y-13306960D01*
X10049944Y-13306960D02*
X10030896Y-13316484D01*
X10030896Y-13316484D02*
X10011848Y-13316484D01*
X10011848Y-13316484D02*
X9992801Y-13306960D01*
X9992801Y-13306960D02*
X9983277Y-13297436D01*
X9983277Y-13297436D02*
X9973753Y-13278388D01*
X9973753Y-13278388D02*
X9964229Y-13240293D01*
X9964229Y-13240293D02*
X9964229Y-13192674D01*
X9964229Y-13192674D02*
X9973753Y-13154579D01*
X9973753Y-13154579D02*
X9983277Y-13135531D01*
X9983277Y-13135531D02*
X9992801Y-13126008D01*
X9992801Y-13126008D02*
X10011848Y-13116484D01*
X10145182Y-13116484D02*
X10278515Y-13116484D01*
X10278515Y-13116484D02*
X10192801Y-13316484D01*
X10383277Y-13202198D02*
X10364229Y-13192674D01*
X10364229Y-13192674D02*
X10354706Y-13183150D01*
X10354706Y-13183150D02*
X10345182Y-13164103D01*
X10345182Y-13164103D02*
X10345182Y-13154579D01*
X10345182Y-13154579D02*
X10354706Y-13135531D01*
X10354706Y-13135531D02*
X10364229Y-13126008D01*
X10364229Y-13126008D02*
X10383277Y-13116484D01*
X10383277Y-13116484D02*
X10421372Y-13116484D01*
X10421372Y-13116484D02*
X10440420Y-13126008D01*
X10440420Y-13126008D02*
X10449944Y-13135531D01*
X10449944Y-13135531D02*
X10459468Y-13154579D01*
X10459468Y-13154579D02*
X10459468Y-13164103D01*
X10459468Y-13164103D02*
X10449944Y-13183150D01*
X10449944Y-13183150D02*
X10440420Y-13192674D01*
X10440420Y-13192674D02*
X10421372Y-13202198D01*
X10421372Y-13202198D02*
X10383277Y-13202198D01*
X10383277Y-13202198D02*
X10364229Y-13211722D01*
X10364229Y-13211722D02*
X10354706Y-13221246D01*
X10354706Y-13221246D02*
X10345182Y-13240293D01*
X10345182Y-13240293D02*
X10345182Y-13278388D01*
X10345182Y-13278388D02*
X10354706Y-13297436D01*
X10354706Y-13297436D02*
X10364229Y-13306960D01*
X10364229Y-13306960D02*
X10383277Y-13316484D01*
X10383277Y-13316484D02*
X10421372Y-13316484D01*
X10421372Y-13316484D02*
X10440420Y-13306960D01*
X10440420Y-13306960D02*
X10449944Y-13297436D01*
X10449944Y-13297436D02*
X10459468Y-13278388D01*
X10459468Y-13278388D02*
X10459468Y-13240293D01*
X10459468Y-13240293D02*
X10449944Y-13221246D01*
X10449944Y-13221246D02*
X10440420Y-13211722D01*
X10440420Y-13211722D02*
X10421372Y-13202198D01*
X10526134Y-13116484D02*
X10659468Y-13116484D01*
X10659468Y-13116484D02*
X10573753Y-13316484D01*
X10726134Y-13116484D02*
X10726134Y-13154579D01*
X10802325Y-13116484D02*
X10802325Y-13154579D01*
X11097563Y-13392674D02*
X11088039Y-13383150D01*
X11088039Y-13383150D02*
X11068991Y-13354579D01*
X11068991Y-13354579D02*
X11059468Y-13335531D01*
X11059468Y-13335531D02*
X11049944Y-13306960D01*
X11049944Y-13306960D02*
X11040420Y-13259341D01*
X11040420Y-13259341D02*
X11040420Y-13221246D01*
X11040420Y-13221246D02*
X11049944Y-13173627D01*
X11049944Y-13173627D02*
X11059468Y-13145055D01*
X11059468Y-13145055D02*
X11068991Y-13126008D01*
X11068991Y-13126008D02*
X11088039Y-13097436D01*
X11088039Y-13097436D02*
X11097563Y-13087912D01*
X11259468Y-13183150D02*
X11259468Y-13316484D01*
X11211848Y-13106960D02*
X11164230Y-13249817D01*
X11164230Y-13249817D02*
X11288039Y-13249817D01*
X11516610Y-13316484D02*
X11516610Y-13116484D01*
X11602325Y-13316484D02*
X11602325Y-13211722D01*
X11602325Y-13211722D02*
X11592801Y-13192674D01*
X11592801Y-13192674D02*
X11573753Y-13183150D01*
X11573753Y-13183150D02*
X11545182Y-13183150D01*
X11545182Y-13183150D02*
X11526134Y-13192674D01*
X11526134Y-13192674D02*
X11516610Y-13202198D01*
X11726134Y-13316484D02*
X11707087Y-13306960D01*
X11707087Y-13306960D02*
X11697563Y-13297436D01*
X11697563Y-13297436D02*
X11688039Y-13278388D01*
X11688039Y-13278388D02*
X11688039Y-13221246D01*
X11688039Y-13221246D02*
X11697563Y-13202198D01*
X11697563Y-13202198D02*
X11707087Y-13192674D01*
X11707087Y-13192674D02*
X11726134Y-13183150D01*
X11726134Y-13183150D02*
X11754706Y-13183150D01*
X11754706Y-13183150D02*
X11773753Y-13192674D01*
X11773753Y-13192674D02*
X11783277Y-13202198D01*
X11783277Y-13202198D02*
X11792801Y-13221246D01*
X11792801Y-13221246D02*
X11792801Y-13278388D01*
X11792801Y-13278388D02*
X11783277Y-13297436D01*
X11783277Y-13297436D02*
X11773753Y-13306960D01*
X11773753Y-13306960D02*
X11754706Y-13316484D01*
X11754706Y-13316484D02*
X11726134Y-13316484D01*
X11907087Y-13316484D02*
X11888039Y-13306960D01*
X11888039Y-13306960D02*
X11878515Y-13287912D01*
X11878515Y-13287912D02*
X11878515Y-13116484D01*
X12059468Y-13306960D02*
X12040420Y-13316484D01*
X12040420Y-13316484D02*
X12002325Y-13316484D01*
X12002325Y-13316484D02*
X11983277Y-13306960D01*
X11983277Y-13306960D02*
X11973753Y-13287912D01*
X11973753Y-13287912D02*
X11973753Y-13211722D01*
X11973753Y-13211722D02*
X11983277Y-13192674D01*
X11983277Y-13192674D02*
X12002325Y-13183150D01*
X12002325Y-13183150D02*
X12040420Y-13183150D01*
X12040420Y-13183150D02*
X12059468Y-13192674D01*
X12059468Y-13192674D02*
X12068991Y-13211722D01*
X12068991Y-13211722D02*
X12068991Y-13230769D01*
X12068991Y-13230769D02*
X11973753Y-13249817D01*
X12145182Y-13306960D02*
X12164230Y-13316484D01*
X12164230Y-13316484D02*
X12202325Y-13316484D01*
X12202325Y-13316484D02*
X12221372Y-13306960D01*
X12221372Y-13306960D02*
X12230896Y-13287912D01*
X12230896Y-13287912D02*
X12230896Y-13278388D01*
X12230896Y-13278388D02*
X12221372Y-13259341D01*
X12221372Y-13259341D02*
X12202325Y-13249817D01*
X12202325Y-13249817D02*
X12173753Y-13249817D01*
X12173753Y-13249817D02*
X12154706Y-13240293D01*
X12154706Y-13240293D02*
X12145182Y-13221246D01*
X12145182Y-13221246D02*
X12145182Y-13211722D01*
X12145182Y-13211722D02*
X12154706Y-13192674D01*
X12154706Y-13192674D02*
X12173753Y-13183150D01*
X12173753Y-13183150D02*
X12202325Y-13183150D01*
X12202325Y-13183150D02*
X12221372Y-13192674D01*
X12297563Y-13392674D02*
X12307087Y-13383150D01*
X12307087Y-13383150D02*
X12326134Y-13354579D01*
X12326134Y-13354579D02*
X12335658Y-13335531D01*
X12335658Y-13335531D02*
X12345182Y-13306960D01*
X12345182Y-13306960D02*
X12354706Y-13259341D01*
X12354706Y-13259341D02*
X12354706Y-13221246D01*
X12354706Y-13221246D02*
X12345182Y-13173627D01*
X12345182Y-13173627D02*
X12335658Y-13145055D01*
X12335658Y-13145055D02*
X12326134Y-13126008D01*
X12326134Y-13126008D02*
X12307087Y-13097436D01*
X12307087Y-13097436D02*
X12297563Y-13087912D01*
X12659468Y-13392674D02*
X12649944Y-13383150D01*
X12649944Y-13383150D02*
X12630896Y-13354579D01*
X12630896Y-13354579D02*
X12621372Y-13335531D01*
X12621372Y-13335531D02*
X12611849Y-13306960D01*
X12611849Y-13306960D02*
X12602325Y-13259341D01*
X12602325Y-13259341D02*
X12602325Y-13221246D01*
X12602325Y-13221246D02*
X12611849Y-13173627D01*
X12611849Y-13173627D02*
X12621372Y-13145055D01*
X12621372Y-13145055D02*
X12630896Y-13126008D01*
X12630896Y-13126008D02*
X12649944Y-13097436D01*
X12649944Y-13097436D02*
X12659468Y-13087912D01*
X12735658Y-13183150D02*
X12735658Y-13316484D01*
X12735658Y-13202198D02*
X12745182Y-13192674D01*
X12745182Y-13192674D02*
X12764230Y-13183150D01*
X12764230Y-13183150D02*
X12792801Y-13183150D01*
X12792801Y-13183150D02*
X12811849Y-13192674D01*
X12811849Y-13192674D02*
X12821372Y-13211722D01*
X12821372Y-13211722D02*
X12821372Y-13316484D01*
X12945182Y-13316484D02*
X12926134Y-13306960D01*
X12926134Y-13306960D02*
X12916611Y-13297436D01*
X12916611Y-13297436D02*
X12907087Y-13278388D01*
X12907087Y-13278388D02*
X12907087Y-13221246D01*
X12907087Y-13221246D02*
X12916611Y-13202198D01*
X12916611Y-13202198D02*
X12926134Y-13192674D01*
X12926134Y-13192674D02*
X12945182Y-13183150D01*
X12945182Y-13183150D02*
X12973753Y-13183150D01*
X12973753Y-13183150D02*
X12992801Y-13192674D01*
X12992801Y-13192674D02*
X13002325Y-13202198D01*
X13002325Y-13202198D02*
X13011849Y-13221246D01*
X13011849Y-13221246D02*
X13011849Y-13278388D01*
X13011849Y-13278388D02*
X13002325Y-13297436D01*
X13002325Y-13297436D02*
X12992801Y-13306960D01*
X12992801Y-13306960D02*
X12973753Y-13316484D01*
X12973753Y-13316484D02*
X12945182Y-13316484D01*
X13068992Y-13183150D02*
X13145182Y-13183150D01*
X13097563Y-13116484D02*
X13097563Y-13287912D01*
X13097563Y-13287912D02*
X13107087Y-13306960D01*
X13107087Y-13306960D02*
X13126134Y-13316484D01*
X13126134Y-13316484D02*
X13145182Y-13316484D01*
X13364230Y-13183150D02*
X13364230Y-13383150D01*
X13364230Y-13192674D02*
X13383277Y-13183150D01*
X13383277Y-13183150D02*
X13421373Y-13183150D01*
X13421373Y-13183150D02*
X13440420Y-13192674D01*
X13440420Y-13192674D02*
X13449944Y-13202198D01*
X13449944Y-13202198D02*
X13459468Y-13221246D01*
X13459468Y-13221246D02*
X13459468Y-13278388D01*
X13459468Y-13278388D02*
X13449944Y-13297436D01*
X13449944Y-13297436D02*
X13440420Y-13306960D01*
X13440420Y-13306960D02*
X13421373Y-13316484D01*
X13421373Y-13316484D02*
X13383277Y-13316484D01*
X13383277Y-13316484D02*
X13364230Y-13306960D01*
X13573753Y-13316484D02*
X13554706Y-13306960D01*
X13554706Y-13306960D02*
X13545182Y-13287912D01*
X13545182Y-13287912D02*
X13545182Y-13116484D01*
X13735658Y-13316484D02*
X13735658Y-13211722D01*
X13735658Y-13211722D02*
X13726134Y-13192674D01*
X13726134Y-13192674D02*
X13707087Y-13183150D01*
X13707087Y-13183150D02*
X13668992Y-13183150D01*
X13668992Y-13183150D02*
X13649944Y-13192674D01*
X13735658Y-13306960D02*
X13716611Y-13316484D01*
X13716611Y-13316484D02*
X13668992Y-13316484D01*
X13668992Y-13316484D02*
X13649944Y-13306960D01*
X13649944Y-13306960D02*
X13640420Y-13287912D01*
X13640420Y-13287912D02*
X13640420Y-13268865D01*
X13640420Y-13268865D02*
X13649944Y-13249817D01*
X13649944Y-13249817D02*
X13668992Y-13240293D01*
X13668992Y-13240293D02*
X13716611Y-13240293D01*
X13716611Y-13240293D02*
X13735658Y-13230769D01*
X13802325Y-13183150D02*
X13878515Y-13183150D01*
X13830896Y-13116484D02*
X13830896Y-13287912D01*
X13830896Y-13287912D02*
X13840420Y-13306960D01*
X13840420Y-13306960D02*
X13859468Y-13316484D01*
X13859468Y-13316484D02*
X13878515Y-13316484D01*
X14021373Y-13306960D02*
X14002325Y-13316484D01*
X14002325Y-13316484D02*
X13964230Y-13316484D01*
X13964230Y-13316484D02*
X13945182Y-13306960D01*
X13945182Y-13306960D02*
X13935658Y-13287912D01*
X13935658Y-13287912D02*
X13935658Y-13211722D01*
X13935658Y-13211722D02*
X13945182Y-13192674D01*
X13945182Y-13192674D02*
X13964230Y-13183150D01*
X13964230Y-13183150D02*
X14002325Y-13183150D01*
X14002325Y-13183150D02*
X14021373Y-13192674D01*
X14021373Y-13192674D02*
X14030896Y-13211722D01*
X14030896Y-13211722D02*
X14030896Y-13230769D01*
X14030896Y-13230769D02*
X13935658Y-13249817D01*
X14202325Y-13316484D02*
X14202325Y-13116484D01*
X14202325Y-13306960D02*
X14183277Y-13316484D01*
X14183277Y-13316484D02*
X14145182Y-13316484D01*
X14145182Y-13316484D02*
X14126134Y-13306960D01*
X14126134Y-13306960D02*
X14116611Y-13297436D01*
X14116611Y-13297436D02*
X14107087Y-13278388D01*
X14107087Y-13278388D02*
X14107087Y-13221246D01*
X14107087Y-13221246D02*
X14116611Y-13202198D01*
X14116611Y-13202198D02*
X14126134Y-13192674D01*
X14126134Y-13192674D02*
X14145182Y-13183150D01*
X14145182Y-13183150D02*
X14183277Y-13183150D01*
X14183277Y-13183150D02*
X14202325Y-13192674D01*
X14278515Y-13392674D02*
X14288039Y-13383150D01*
X14288039Y-13383150D02*
X14307087Y-13354579D01*
X14307087Y-13354579D02*
X14316611Y-13335531D01*
X14316611Y-13335531D02*
X14326134Y-13306960D01*
X14326134Y-13306960D02*
X14335658Y-13259341D01*
X14335658Y-13259341D02*
X14335658Y-13221246D01*
X14335658Y-13221246D02*
X14326134Y-13173627D01*
X14326134Y-13173627D02*
X14316611Y-13145055D01*
X14316611Y-13145055D02*
X14307087Y-13126008D01*
X14307087Y-13126008D02*
X14288039Y-13097436D01*
X14288039Y-13097436D02*
X14278515Y-13087912D01*
M02*
