G04 #@! TF.GenerationSoftware,KiCad,Pcbnew,9.0.0*
G04 #@! TF.CreationDate,2025-05-01T15:15:07-03:00*
G04 #@! TF.ProjectId,hw_rfid,68775f72-6669-4642-9e6b-696361645f70,rev?*
G04 #@! TF.SameCoordinates,Original*
G04 #@! TF.FileFunction,Paste,Top*
G04 #@! TF.FilePolarity,Positive*
%FSLAX46Y46*%
G04 Gerber Fmt 4.6, Leading zero omitted, Abs format (unit mm)*
G04 Created by KiCad (PCBNEW 9.0.0) date 2025-05-01 15:15:07*
%MOMM*%
%LPD*%
G01*
G04 APERTURE LIST*
G04 Aperture macros list*
%AMRoundRect*
0 Rectangle with rounded corners*
0 $1 Rounding radius*
0 $2 $3 $4 $5 $6 $7 $8 $9 X,Y pos of 4 corners*
0 Add a 4 corners polygon primitive as box body*
4,1,4,$2,$3,$4,$5,$6,$7,$8,$9,$2,$3,0*
0 Add four circle primitives for the rounded corners*
1,1,$1+$1,$2,$3*
1,1,$1+$1,$4,$5*
1,1,$1+$1,$6,$7*
1,1,$1+$1,$8,$9*
0 Add four rect primitives between the rounded corners*
20,1,$1+$1,$2,$3,$4,$5,0*
20,1,$1+$1,$4,$5,$6,$7,0*
20,1,$1+$1,$6,$7,$8,$9,0*
20,1,$1+$1,$8,$9,$2,$3,0*%
G04 Aperture macros list end*
%ADD10RoundRect,0.225000X-0.250000X0.225000X-0.250000X-0.225000X0.250000X-0.225000X0.250000X0.225000X0*%
%ADD11RoundRect,0.250000X0.450000X-0.262500X0.450000X0.262500X-0.450000X0.262500X-0.450000X-0.262500X0*%
%ADD12RoundRect,0.218750X-0.218750X-0.381250X0.218750X-0.381250X0.218750X0.381250X-0.218750X0.381250X0*%
%ADD13RoundRect,0.250000X-0.830000X-0.310000X0.830000X-0.310000X0.830000X0.310000X-0.830000X0.310000X0*%
%ADD14RoundRect,0.250000X-0.262500X-0.450000X0.262500X-0.450000X0.262500X0.450000X-0.262500X0.450000X0*%
%ADD15RoundRect,0.200000X-0.200000X-0.275000X0.200000X-0.275000X0.200000X0.275000X-0.200000X0.275000X0*%
%ADD16RoundRect,0.225000X0.250000X-0.225000X0.250000X0.225000X-0.250000X0.225000X-0.250000X-0.225000X0*%
%ADD17RoundRect,0.200000X0.200000X0.275000X-0.200000X0.275000X-0.200000X-0.275000X0.200000X-0.275000X0*%
%ADD18RoundRect,0.250000X0.262500X0.450000X-0.262500X0.450000X-0.262500X-0.450000X0.262500X-0.450000X0*%
%ADD19RoundRect,0.072500X-0.782500X-0.217500X0.782500X-0.217500X0.782500X0.217500X-0.782500X0.217500X0*%
%ADD20RoundRect,0.250000X-0.250000X-0.475000X0.250000X-0.475000X0.250000X0.475000X-0.250000X0.475000X0*%
%ADD21RoundRect,0.243750X-0.243750X-0.456250X0.243750X-0.456250X0.243750X0.456250X-0.243750X0.456250X0*%
%ADD22RoundRect,0.250000X-0.450000X0.262500X-0.450000X-0.262500X0.450000X-0.262500X0.450000X0.262500X0*%
%ADD23R,0.450000X0.350000*%
%ADD24R,0.450000X0.250000*%
%ADD25R,1.000000X1.600000*%
%ADD26R,0.900000X0.100000*%
%ADD27RoundRect,0.250000X1.000000X0.650000X-1.000000X0.650000X-1.000000X-0.650000X1.000000X-0.650000X0*%
%ADD28R,0.475000X0.300000*%
%ADD29RoundRect,0.150000X-0.587500X-0.150000X0.587500X-0.150000X0.587500X0.150000X-0.587500X0.150000X0*%
%ADD30RoundRect,0.232500X-0.232500X-0.232500X0.232500X-0.232500X0.232500X0.232500X-0.232500X0.232500X0*%
%ADD31RoundRect,0.062500X-0.375000X-0.062500X0.375000X-0.062500X0.375000X0.062500X-0.375000X0.062500X0*%
%ADD32RoundRect,0.062500X-0.062500X-0.375000X0.062500X-0.375000X0.062500X0.375000X-0.062500X0.375000X0*%
G04 APERTURE END LIST*
D10*
X116696257Y-97875000D03*
X116696257Y-99425000D03*
X105539568Y-94450000D03*
X105539568Y-96000000D03*
D11*
X100375000Y-93812500D03*
X100375000Y-91987500D03*
D12*
X90812500Y-119800000D03*
X92937500Y-119800000D03*
D13*
X88635000Y-99000000D03*
X95365000Y-99000000D03*
D10*
X115150000Y-97875000D03*
X115150000Y-99425000D03*
D14*
X106087500Y-88575000D03*
X107912500Y-88575000D03*
D15*
X113675000Y-102250000D03*
X115325000Y-102250000D03*
D10*
X103950000Y-94425000D03*
X103950000Y-95975000D03*
D15*
X110550000Y-102250000D03*
X112200000Y-102250000D03*
D11*
X128320000Y-100180000D03*
X128320000Y-98355000D03*
D16*
X106500000Y-92550000D03*
X106500000Y-91000000D03*
D17*
X122750000Y-93050000D03*
X121100000Y-93050000D03*
D18*
X129732500Y-88855000D03*
X127907500Y-88855000D03*
D14*
X121087500Y-86000000D03*
X122912500Y-86000000D03*
D19*
X128190000Y-91950000D03*
X128190000Y-93220000D03*
X128190000Y-94490000D03*
X128190000Y-95760000D03*
X135450000Y-95760000D03*
X135450000Y-94490000D03*
X135450000Y-93220000D03*
X135450000Y-91950000D03*
D12*
X103625000Y-111252000D03*
X105750000Y-111252000D03*
D20*
X108750000Y-114330000D03*
X110650000Y-114330000D03*
D21*
X101562500Y-85500000D03*
X103437500Y-85500000D03*
D22*
X112000000Y-84950000D03*
X112000000Y-86775000D03*
D13*
X88635000Y-92000000D03*
X95365000Y-92000000D03*
D10*
X99950000Y-98925000D03*
X99950000Y-100475000D03*
D17*
X122750000Y-95150000D03*
X121100000Y-95150000D03*
D20*
X96200000Y-112375000D03*
X98100000Y-112375000D03*
X96200000Y-114950000D03*
X98100000Y-114950000D03*
D21*
X101562500Y-88575000D03*
X103437500Y-88575000D03*
D15*
X107350000Y-102250000D03*
X109000000Y-102250000D03*
D23*
X92500000Y-116775000D03*
D24*
X92500000Y-116225000D03*
X92500000Y-115725000D03*
X90550000Y-115725000D03*
X90550000Y-116225000D03*
X90550000Y-116725000D03*
D25*
X91525000Y-116225000D03*
D26*
X91525000Y-117075000D03*
X91525000Y-115375000D03*
D27*
X91050000Y-108950000D03*
X87050000Y-108950000D03*
D11*
X97150000Y-120362500D03*
X97150000Y-118537500D03*
D28*
X103387000Y-116475000D03*
X103387000Y-116975000D03*
X103387000Y-117475000D03*
X103387000Y-117975000D03*
X105063000Y-117975000D03*
X105063000Y-117475000D03*
X105063000Y-116975000D03*
X105063000Y-116475000D03*
D17*
X122750000Y-90950000D03*
X121100000Y-90950000D03*
D13*
X88635000Y-85400000D03*
X95365000Y-85400000D03*
D14*
X103775000Y-114300000D03*
X105600000Y-114300000D03*
D18*
X139820000Y-95855000D03*
X137995000Y-95855000D03*
D29*
X116000000Y-85000000D03*
X116000000Y-86900000D03*
X117875000Y-85950000D03*
D16*
X139320000Y-93405000D03*
X139320000Y-91855000D03*
D14*
X106087500Y-85500000D03*
X107912500Y-85500000D03*
D20*
X90925000Y-112125000D03*
X92825000Y-112125000D03*
D30*
X109500000Y-94350000D03*
X109500000Y-95500000D03*
X109500000Y-96650000D03*
X110650000Y-94350000D03*
X110650000Y-95500000D03*
X110650000Y-96650000D03*
X111800000Y-94350000D03*
X111800000Y-95500000D03*
X111800000Y-96650000D03*
D31*
X108212500Y-93750000D03*
X108212500Y-94250000D03*
X108212500Y-94750000D03*
X108212500Y-95250000D03*
X108212500Y-95750000D03*
X108212500Y-96250000D03*
X108212500Y-96750000D03*
X108212500Y-97250000D03*
D32*
X108900000Y-97937500D03*
X109400000Y-97937500D03*
X109900000Y-97937500D03*
X110400000Y-97937500D03*
X110900000Y-97937500D03*
X111400000Y-97937500D03*
X111900000Y-97937500D03*
X112400000Y-97937500D03*
D31*
X113087500Y-97250000D03*
X113087500Y-96750000D03*
X113087500Y-96250000D03*
X113087500Y-95750000D03*
X113087500Y-95250000D03*
X113087500Y-94750000D03*
X113087500Y-94250000D03*
X113087500Y-93750000D03*
D32*
X112400000Y-93062500D03*
X111900000Y-93062500D03*
X111400000Y-93062500D03*
X110900000Y-93062500D03*
X110400000Y-93062500D03*
X109900000Y-93062500D03*
X109400000Y-93062500D03*
X108900000Y-93062500D03*
D11*
X84025000Y-93812500D03*
X84025000Y-91987500D03*
M02*
