%TF.GenerationSoftware,KiCad,Pcbnew,9.0.0*%
%TF.CreationDate,2025-05-01T15:15:35-03:00*%
%TF.ProjectId,hw_rfid,68775f72-6669-4642-9e6b-696361645f70,rev?*%
%TF.SameCoordinates,Original*%
%TF.FileFunction,Drillmap*%
%TF.FilePolarity,Positive*%
%FSLAX45Y45*%
G04 Gerber Fmt 4.5, Leading zero omitted, Abs format (unit mm)*
G04 Created by KiCad (PCBNEW 9.0.0) date 2025-05-01 15:15:35*
%MOMM*%
%LPD*%
G01*
G04 APERTURE LIST*
%ADD10C,0.050000*%
%ADD11C,0.200000*%
%ADD12C,0.100000*%
G04 APERTURE END LIST*
D10*
X7525000Y-7315000D02*
X14455000Y-7315000D01*
X14455000Y-12582500D01*
X7525000Y-12582500D01*
X7525000Y-7315000D01*
D11*
D12*
X7982300Y-10492300D02*
X8007700Y-10517700D01*
X8007700Y-10492300D02*
X7982300Y-10517700D01*
X7987300Y-7982300D02*
X8012700Y-8007700D01*
X8012700Y-7982300D02*
X7987300Y-8007700D01*
X7987300Y-8497300D02*
X8012700Y-8522700D01*
X8012700Y-8497300D02*
X7987300Y-8522700D01*
X7987300Y-8947300D02*
X8012700Y-8972700D01*
X8012700Y-8947300D02*
X7987300Y-8972700D01*
X7987300Y-9992300D02*
X8012700Y-10017700D01*
X8012700Y-9992300D02*
X7987300Y-10017700D01*
X7992300Y-9487300D02*
X8017700Y-9512700D01*
X8017700Y-9487300D02*
X7992300Y-9512700D01*
X8302300Y-12232300D02*
X8327700Y-12257700D01*
X8327700Y-12232300D02*
X8302300Y-12257700D01*
X8487300Y-7982300D02*
X8512700Y-8007700D01*
X8512700Y-7982300D02*
X8487300Y-8007700D01*
X8487300Y-8497300D02*
X8512700Y-8522700D01*
X8512700Y-8497300D02*
X8487300Y-8522700D01*
X8487300Y-8947300D02*
X8512700Y-8972700D01*
X8512700Y-8947300D02*
X8487300Y-8972700D01*
X8505482Y-7537300D02*
X8530882Y-7562700D01*
X8530882Y-7537300D02*
X8505482Y-7562700D01*
X8617300Y-9992300D02*
X8642700Y-10017700D01*
X8642700Y-9992300D02*
X8617300Y-10017700D01*
X8617300Y-10492300D02*
X8642700Y-10517700D01*
X8642700Y-10492300D02*
X8617300Y-10517700D01*
X8682300Y-11242300D02*
X8707700Y-11267700D01*
X8707700Y-11242300D02*
X8682300Y-11267700D01*
X8717300Y-9487300D02*
X8742700Y-9512700D01*
X8742700Y-9487300D02*
X8717300Y-9512700D01*
X8842300Y-11609800D02*
X8867700Y-11635200D01*
X8867700Y-11609800D02*
X8842300Y-11635200D01*
X8842300Y-11964800D02*
X8867700Y-11990200D01*
X8867700Y-11964800D02*
X8842300Y-11990200D01*
X8914300Y-12232300D02*
X8939700Y-12257700D01*
X8939700Y-12232300D02*
X8914300Y-12257700D01*
X8972300Y-11457300D02*
X8997700Y-11482700D01*
X8997700Y-11457300D02*
X8972300Y-11482700D01*
X8972300Y-11762300D02*
X8997700Y-11787700D01*
X8997700Y-11762300D02*
X8972300Y-11787700D01*
X8987300Y-7982300D02*
X9012700Y-8007700D01*
X9012700Y-7982300D02*
X8987300Y-8007700D01*
X9018664Y-7537300D02*
X9044064Y-7562700D01*
X9044064Y-7537300D02*
X9018664Y-7562700D01*
X9157300Y-11349800D02*
X9182700Y-11375200D01*
X9182700Y-11349800D02*
X9157300Y-11375200D01*
X9234800Y-10492300D02*
X9260200Y-10517700D01*
X9260200Y-10492300D02*
X9234800Y-10517700D01*
X9307300Y-11457300D02*
X9332700Y-11482700D01*
X9332700Y-11457300D02*
X9307300Y-11482700D01*
X9307300Y-11762300D02*
X9332700Y-11787700D01*
X9332700Y-11762300D02*
X9307300Y-11787700D01*
X9427300Y-11457300D02*
X9452700Y-11482700D01*
X9452700Y-11457300D02*
X9427300Y-11482700D01*
X9427300Y-11559800D02*
X9452700Y-11585200D01*
X9452700Y-11559800D02*
X9427300Y-11585200D01*
X9427300Y-11762300D02*
X9452700Y-11787700D01*
X9452700Y-11762300D02*
X9427300Y-11787700D01*
X9442300Y-9487300D02*
X9467700Y-9512700D01*
X9467700Y-9487300D02*
X9442300Y-9512700D01*
X9477300Y-11237300D02*
X9502700Y-11262700D01*
X9502700Y-11237300D02*
X9477300Y-11262700D01*
X9487300Y-7982300D02*
X9512700Y-8007700D01*
X9512700Y-7982300D02*
X9487300Y-8007700D01*
X9531846Y-7537300D02*
X9557246Y-7562700D01*
X9557246Y-7537300D02*
X9531846Y-7562700D01*
X9534800Y-12232300D02*
X9560200Y-12257700D01*
X9560200Y-12232300D02*
X9534800Y-12257700D01*
X9777300Y-8534800D02*
X9802700Y-8560200D01*
X9802700Y-8534800D02*
X9777300Y-8560200D01*
X9844800Y-11902300D02*
X9870200Y-11927700D01*
X9870200Y-11902300D02*
X9844800Y-11927700D01*
X9922300Y-10492300D02*
X9947700Y-10517700D01*
X9947700Y-10492300D02*
X9922300Y-10517700D01*
X9922300Y-10787300D02*
X9947700Y-10812700D01*
X9947700Y-10787300D02*
X9922300Y-10812700D01*
X9932300Y-11242300D02*
X9957700Y-11267700D01*
X9957700Y-11242300D02*
X9932300Y-11267700D01*
X9934800Y-12019800D02*
X9960200Y-12045200D01*
X9960200Y-12019800D02*
X9934800Y-12045200D01*
X9984800Y-9487300D02*
X10010200Y-9512700D01*
X10010200Y-9487300D02*
X9984800Y-9512700D01*
X9987300Y-7982300D02*
X10012700Y-8007700D01*
X10012700Y-7982300D02*
X9987300Y-8007700D01*
X9987300Y-8944061D02*
X10012700Y-8969461D01*
X10012700Y-8944061D02*
X9987300Y-8969461D01*
X10045027Y-7537300D02*
X10070427Y-7562700D01*
X10070427Y-7537300D02*
X10045027Y-7562700D01*
X10102300Y-11681460D02*
X10127700Y-11706860D01*
X10127700Y-11681460D02*
X10102300Y-11706860D01*
X10124800Y-11982300D02*
X10150200Y-12007700D01*
X10150200Y-11982300D02*
X10124800Y-12007700D01*
X10142300Y-12232300D02*
X10167700Y-12257700D01*
X10167700Y-12232300D02*
X10142300Y-12257700D01*
X10149800Y-9872300D02*
X10175200Y-9897700D01*
X10175200Y-9872300D02*
X10149800Y-9897700D01*
X10194800Y-11427300D02*
X10220200Y-11452700D01*
X10220200Y-11427300D02*
X10194800Y-11452700D01*
X10197300Y-11925070D02*
X10222700Y-11950470D01*
X10222700Y-11925070D02*
X10197300Y-11950470D01*
X10337300Y-9992300D02*
X10362700Y-10017700D01*
X10362700Y-9992300D02*
X10337300Y-10017700D01*
X10487300Y-10492300D02*
X10512700Y-10517700D01*
X10512700Y-10492300D02*
X10487300Y-10517700D01*
X10487300Y-10787300D02*
X10512700Y-10812700D01*
X10512700Y-10787300D02*
X10487300Y-10812700D01*
X10504232Y-11554597D02*
X10529632Y-11579997D01*
X10529632Y-11554597D02*
X10504232Y-11579997D01*
X10558209Y-7537300D02*
X10583609Y-7562700D01*
X10583609Y-7537300D02*
X10558209Y-7562700D01*
X10592300Y-11602300D02*
X10617700Y-11627700D01*
X10617700Y-11602300D02*
X10592300Y-11627700D01*
X10612300Y-9712300D02*
X10637700Y-9737700D01*
X10637700Y-9712300D02*
X10612300Y-9737700D01*
X10627300Y-11917300D02*
X10652700Y-11942700D01*
X10652700Y-11917300D02*
X10627300Y-11942700D01*
X10664800Y-9429800D02*
X10690200Y-9455200D01*
X10690200Y-9429800D02*
X10664800Y-9455200D01*
X10679800Y-9656420D02*
X10705200Y-9681820D01*
X10705200Y-9656420D02*
X10679800Y-9681820D01*
X10687300Y-11740680D02*
X10712700Y-11766080D01*
X10712700Y-11740680D02*
X10687300Y-11766080D01*
X10694800Y-10484800D02*
X10720200Y-10510200D01*
X10720200Y-10484800D02*
X10694800Y-10510200D01*
X10787300Y-9147300D02*
X10812700Y-9172700D01*
X10812700Y-9147300D02*
X10787300Y-9172700D01*
X10817300Y-9937300D02*
X10842700Y-9962700D01*
X10842700Y-9937300D02*
X10817300Y-9962700D01*
X10859800Y-11602300D02*
X10885200Y-11627700D01*
X10885200Y-11602300D02*
X10859800Y-11627700D01*
X10917300Y-9922300D02*
X10942700Y-9947700D01*
X10942700Y-9922300D02*
X10917300Y-9947700D01*
X10982300Y-8989800D02*
X11007700Y-9015200D01*
X11007700Y-8989800D02*
X10982300Y-9015200D01*
X10982300Y-12232300D02*
X11007700Y-12257700D01*
X11007700Y-12232300D02*
X10982300Y-12257700D01*
X10987300Y-8384800D02*
X11012700Y-8410200D01*
X11012700Y-8384800D02*
X10987300Y-8410200D01*
X10989800Y-11242300D02*
X11015200Y-11267700D01*
X11015200Y-11242300D02*
X10989800Y-11267700D01*
X10989800Y-11782300D02*
X11015200Y-11807700D01*
X11015200Y-11782300D02*
X10989800Y-11807700D01*
X10992300Y-10787300D02*
X11017700Y-10812700D01*
X11017700Y-10787300D02*
X10992300Y-10812700D01*
X11043063Y-9059037D02*
X11068463Y-9084437D01*
X11068463Y-9059037D02*
X11043063Y-9084437D01*
X11071391Y-7537300D02*
X11096791Y-7562700D01*
X11096791Y-7537300D02*
X11071391Y-7562700D01*
X11071391Y-8244800D02*
X11096791Y-8270200D01*
X11096791Y-8244800D02*
X11071391Y-8270200D01*
X11079800Y-9174800D02*
X11105200Y-9200200D01*
X11105200Y-9174800D02*
X11079800Y-9200200D01*
X11212300Y-10087300D02*
X11237700Y-10112700D01*
X11237700Y-10087300D02*
X11212300Y-10112700D01*
X11222300Y-8364800D02*
X11247700Y-8390200D01*
X11247700Y-8364800D02*
X11222300Y-8390200D01*
X11477300Y-9602300D02*
X11502700Y-9627700D01*
X11502700Y-9602300D02*
X11477300Y-9627700D01*
X11584573Y-7537300D02*
X11609973Y-7562700D01*
X11609973Y-7537300D02*
X11584573Y-7562700D01*
X11584573Y-8244800D02*
X11609973Y-8270200D01*
X11609973Y-8244800D02*
X11584573Y-8270200D01*
X11594300Y-10787300D02*
X11619700Y-10812700D01*
X11619700Y-10787300D02*
X11594300Y-10812700D01*
X11594300Y-11242300D02*
X11619700Y-11267700D01*
X11619700Y-11242300D02*
X11594300Y-11267700D01*
X11594300Y-11782300D02*
X11619700Y-11807700D01*
X11619700Y-11782300D02*
X11594300Y-11807700D01*
X11594300Y-12232300D02*
X11619700Y-12257700D01*
X11619700Y-12232300D02*
X11594300Y-12257700D01*
X11652300Y-9317300D02*
X11677700Y-9342700D01*
X11677700Y-9317300D02*
X11652300Y-9342700D01*
X11699800Y-9624800D02*
X11725200Y-9650200D01*
X11725200Y-9624800D02*
X11699800Y-9650200D01*
X11892300Y-9987300D02*
X11917700Y-10012700D01*
X11917700Y-9987300D02*
X11892300Y-10012700D01*
X11908920Y-8576537D02*
X11934320Y-8601937D01*
X11934320Y-8576537D02*
X11908920Y-8601937D01*
X12094800Y-8747300D02*
X12120200Y-8772700D01*
X12120200Y-8747300D02*
X12094800Y-8772700D01*
X12104800Y-7537300D02*
X12130200Y-7562700D01*
X12130200Y-7537300D02*
X12104800Y-7562700D01*
X12104800Y-8244800D02*
X12130200Y-8270200D01*
X12130200Y-8244800D02*
X12104800Y-8270200D01*
X12196300Y-10787300D02*
X12221700Y-10812700D01*
X12221700Y-10787300D02*
X12196300Y-10812700D01*
X12214800Y-11242300D02*
X12240200Y-11267700D01*
X12240200Y-11242300D02*
X12214800Y-11267700D01*
X12214800Y-11764800D02*
X12240200Y-11790200D01*
X12240200Y-11764800D02*
X12214800Y-11790200D01*
X12214800Y-12232300D02*
X12240200Y-12257700D01*
X12240200Y-12232300D02*
X12214800Y-12257700D01*
X12222300Y-8439800D02*
X12247700Y-8465200D01*
X12247700Y-8439800D02*
X12222300Y-8465200D01*
X12359800Y-8432300D02*
X12385200Y-8457700D01*
X12385200Y-8432300D02*
X12359800Y-8457700D01*
X12464800Y-9434800D02*
X12490200Y-9460200D01*
X12490200Y-9434800D02*
X12464800Y-9460200D01*
X12469300Y-8872800D02*
X12494700Y-8898200D01*
X12494700Y-8872800D02*
X12469300Y-8898200D01*
X12492300Y-9987300D02*
X12517700Y-10012700D01*
X12517700Y-9987300D02*
X12492300Y-10012700D01*
X12610936Y-7537300D02*
X12636336Y-7562700D01*
X12636336Y-7537300D02*
X12610936Y-7562700D01*
X12610936Y-8252300D02*
X12636336Y-8277700D01*
X12636336Y-8252300D02*
X12610936Y-8277700D01*
X12622464Y-9492602D02*
X12647864Y-9518002D01*
X12647864Y-9492602D02*
X12622464Y-9518002D01*
X12822300Y-10787300D02*
X12847700Y-10812700D01*
X12847700Y-10787300D02*
X12822300Y-10812700D01*
X12822300Y-11242300D02*
X12847700Y-11267700D01*
X12847700Y-11242300D02*
X12822300Y-11267700D01*
X12822300Y-11767300D02*
X12847700Y-11792700D01*
X12847700Y-11767300D02*
X12822300Y-11792700D01*
X12822300Y-12232300D02*
X12847700Y-12257700D01*
X12847700Y-12232300D02*
X12822300Y-12257700D01*
X13012300Y-8592300D02*
X13037700Y-8617700D01*
X13037700Y-8592300D02*
X13012300Y-8617700D01*
X13124118Y-7537300D02*
X13149518Y-7562700D01*
X13149518Y-7537300D02*
X13124118Y-7562700D01*
X13124118Y-8249800D02*
X13149518Y-8275200D01*
X13149518Y-8249800D02*
X13124118Y-8275200D01*
X13400300Y-11242300D02*
X13425700Y-11267700D01*
X13425700Y-11242300D02*
X13400300Y-11267700D01*
X13400300Y-11764800D02*
X13425700Y-11790200D01*
X13425700Y-11764800D02*
X13400300Y-11790200D01*
X13400300Y-12232300D02*
X13425700Y-12257700D01*
X13425700Y-12232300D02*
X13400300Y-12257700D01*
X13402300Y-10477300D02*
X13427700Y-10502700D01*
X13427700Y-10477300D02*
X13402300Y-10502700D01*
X13402300Y-10787300D02*
X13427700Y-10812700D01*
X13427700Y-10787300D02*
X13402300Y-10812700D01*
X13492300Y-9982300D02*
X13517700Y-10007700D01*
X13517700Y-9982300D02*
X13492300Y-10007700D01*
X13532300Y-9719800D02*
X13557700Y-9745200D01*
X13557700Y-9719800D02*
X13532300Y-9745200D01*
X13542300Y-8959800D02*
X13567700Y-8985200D01*
X13567700Y-8959800D02*
X13542300Y-8985200D01*
X13637300Y-7537300D02*
X13662700Y-7562700D01*
X13662700Y-7537300D02*
X13637300Y-7562700D01*
X13637300Y-7992300D02*
X13662700Y-8017700D01*
X13662700Y-7992300D02*
X13637300Y-8017700D01*
X13641858Y-8944061D02*
X13667258Y-8969461D01*
X13667258Y-8944061D02*
X13641858Y-8969461D01*
X13739800Y-8194800D02*
X13765200Y-8220200D01*
X13765200Y-8194800D02*
X13739800Y-8220200D01*
X13822300Y-8407300D02*
X13847700Y-8432700D01*
X13847700Y-8407300D02*
X13822300Y-8432700D01*
X14007300Y-10497300D02*
X14032700Y-10522700D01*
X14032700Y-10497300D02*
X14007300Y-10522700D01*
X14007300Y-10787300D02*
X14032700Y-10812700D01*
X14032700Y-10787300D02*
X14007300Y-10812700D01*
X14007300Y-11242300D02*
X14032700Y-11267700D01*
X14032700Y-11242300D02*
X14007300Y-11267700D01*
X14007300Y-11759800D02*
X14032700Y-11785200D01*
X14032700Y-11759800D02*
X14007300Y-11785200D01*
X7945000Y-11160000D02*
G75*
G02*
X7845000Y-11160000I-50000J0D01*
G01*
X7845000Y-11160000D02*
G75*
G02*
X7945000Y-11160000I50000J0D01*
G01*
X8195000Y-11160000D02*
G75*
G02*
X8095000Y-11160000I-50000J0D01*
G01*
X8095000Y-11160000D02*
G75*
G02*
X8195000Y-11160000I50000J0D01*
G01*
X10792500Y-7947500D02*
G75*
G02*
X10692500Y-7947500I-50000J0D01*
G01*
X10692500Y-7947500D02*
G75*
G02*
X10792500Y-7947500I50000J0D01*
G01*
X11046500Y-7947500D02*
G75*
G02*
X10946500Y-7947500I-50000J0D01*
G01*
X10946500Y-7947500D02*
G75*
G02*
X11046500Y-7947500I50000J0D01*
G01*
X11072000Y-10500000D02*
G75*
G02*
X10972000Y-10500000I-50000J0D01*
G01*
X10972000Y-10500000D02*
G75*
G02*
X11072000Y-10500000I50000J0D01*
G01*
X11300500Y-7947500D02*
G75*
G02*
X11200500Y-7947500I-50000J0D01*
G01*
X11200500Y-7947500D02*
G75*
G02*
X11300500Y-7947500I50000J0D01*
G01*
X11326000Y-10500000D02*
G75*
G02*
X11226000Y-10500000I-50000J0D01*
G01*
X11226000Y-10500000D02*
G75*
G02*
X11326000Y-10500000I50000J0D01*
G01*
X11554500Y-7947500D02*
G75*
G02*
X11454500Y-7947500I-50000J0D01*
G01*
X11454500Y-7947500D02*
G75*
G02*
X11554500Y-7947500I50000J0D01*
G01*
X11580000Y-10500000D02*
G75*
G02*
X11480000Y-10500000I-50000J0D01*
G01*
X11480000Y-10500000D02*
G75*
G02*
X11580000Y-10500000I50000J0D01*
G01*
X11834000Y-10500000D02*
G75*
G02*
X11734000Y-10500000I-50000J0D01*
G01*
X11734000Y-10500000D02*
G75*
G02*
X11834000Y-10500000I50000J0D01*
G01*
X12041000Y-7945000D02*
G75*
G02*
X11941000Y-7945000I-50000J0D01*
G01*
X11941000Y-7945000D02*
G75*
G02*
X12041000Y-7945000I50000J0D01*
G01*
X12088000Y-10500000D02*
G75*
G02*
X11988000Y-10500000I-50000J0D01*
G01*
X11988000Y-10500000D02*
G75*
G02*
X12088000Y-10500000I50000J0D01*
G01*
X12295000Y-7945000D02*
G75*
G02*
X12195000Y-7945000I-50000J0D01*
G01*
X12195000Y-7945000D02*
G75*
G02*
X12295000Y-7945000I50000J0D01*
G01*
X12342000Y-10500000D02*
G75*
G02*
X12242000Y-10500000I-50000J0D01*
G01*
X12242000Y-10500000D02*
G75*
G02*
X12342000Y-10500000I50000J0D01*
G01*
X12549000Y-7945000D02*
G75*
G02*
X12449000Y-7945000I-50000J0D01*
G01*
X12449000Y-7945000D02*
G75*
G02*
X12549000Y-7945000I50000J0D01*
G01*
X12596000Y-10500000D02*
G75*
G02*
X12496000Y-10500000I-50000J0D01*
G01*
X12496000Y-10500000D02*
G75*
G02*
X12596000Y-10500000I50000J0D01*
G01*
X12803000Y-7945000D02*
G75*
G02*
X12703000Y-7945000I-50000J0D01*
G01*
X12703000Y-7945000D02*
G75*
G02*
X12803000Y-7945000I50000J0D01*
G01*
X12850000Y-10500000D02*
G75*
G02*
X12750000Y-10500000I-50000J0D01*
G01*
X12750000Y-10500000D02*
G75*
G02*
X12850000Y-10500000I50000J0D01*
G01*
X13057000Y-7945000D02*
G75*
G02*
X12957000Y-7945000I-50000J0D01*
G01*
X12957000Y-7945000D02*
G75*
G02*
X13057000Y-7945000I50000J0D01*
G01*
X14222500Y-8127675D02*
G75*
G02*
X14122500Y-8127675I-50000J0D01*
G01*
X14122500Y-8127675D02*
G75*
G02*
X14222500Y-8127675I50000J0D01*
G01*
X14222500Y-8381675D02*
G75*
G02*
X14122500Y-8381675I-50000J0D01*
G01*
X14122500Y-8381675D02*
G75*
G02*
X14222500Y-8381675I50000J0D01*
G01*
X14222500Y-8635675D02*
G75*
G02*
X14122500Y-8635675I-50000J0D01*
G01*
X14122500Y-8635675D02*
G75*
G02*
X14222500Y-8635675I50000J0D01*
G01*
D11*
X7783277Y-12896484D02*
X7783277Y-12696484D01*
X7783277Y-12696484D02*
X7830896Y-12696484D01*
X7830896Y-12696484D02*
X7859467Y-12706008D01*
X7859467Y-12706008D02*
X7878515Y-12725055D01*
X7878515Y-12725055D02*
X7888039Y-12744103D01*
X7888039Y-12744103D02*
X7897562Y-12782198D01*
X7897562Y-12782198D02*
X7897562Y-12810769D01*
X7897562Y-12810769D02*
X7888039Y-12848865D01*
X7888039Y-12848865D02*
X7878515Y-12867912D01*
X7878515Y-12867912D02*
X7859467Y-12886960D01*
X7859467Y-12886960D02*
X7830896Y-12896484D01*
X7830896Y-12896484D02*
X7783277Y-12896484D01*
X7983277Y-12896484D02*
X7983277Y-12763150D01*
X7983277Y-12801246D02*
X7992801Y-12782198D01*
X7992801Y-12782198D02*
X8002324Y-12772674D01*
X8002324Y-12772674D02*
X8021372Y-12763150D01*
X8021372Y-12763150D02*
X8040420Y-12763150D01*
X8107086Y-12896484D02*
X8107086Y-12763150D01*
X8107086Y-12696484D02*
X8097562Y-12706008D01*
X8097562Y-12706008D02*
X8107086Y-12715531D01*
X8107086Y-12715531D02*
X8116610Y-12706008D01*
X8116610Y-12706008D02*
X8107086Y-12696484D01*
X8107086Y-12696484D02*
X8107086Y-12715531D01*
X8230896Y-12896484D02*
X8211848Y-12886960D01*
X8211848Y-12886960D02*
X8202324Y-12867912D01*
X8202324Y-12867912D02*
X8202324Y-12696484D01*
X8335658Y-12896484D02*
X8316610Y-12886960D01*
X8316610Y-12886960D02*
X8307086Y-12867912D01*
X8307086Y-12867912D02*
X8307086Y-12696484D01*
X8564229Y-12896484D02*
X8564229Y-12696484D01*
X8564229Y-12696484D02*
X8630896Y-12839341D01*
X8630896Y-12839341D02*
X8697563Y-12696484D01*
X8697563Y-12696484D02*
X8697563Y-12896484D01*
X8878515Y-12896484D02*
X8878515Y-12791722D01*
X8878515Y-12791722D02*
X8868991Y-12772674D01*
X8868991Y-12772674D02*
X8849944Y-12763150D01*
X8849944Y-12763150D02*
X8811848Y-12763150D01*
X8811848Y-12763150D02*
X8792801Y-12772674D01*
X8878515Y-12886960D02*
X8859467Y-12896484D01*
X8859467Y-12896484D02*
X8811848Y-12896484D01*
X8811848Y-12896484D02*
X8792801Y-12886960D01*
X8792801Y-12886960D02*
X8783277Y-12867912D01*
X8783277Y-12867912D02*
X8783277Y-12848865D01*
X8783277Y-12848865D02*
X8792801Y-12829817D01*
X8792801Y-12829817D02*
X8811848Y-12820293D01*
X8811848Y-12820293D02*
X8859467Y-12820293D01*
X8859467Y-12820293D02*
X8878515Y-12810769D01*
X8973753Y-12763150D02*
X8973753Y-12963150D01*
X8973753Y-12772674D02*
X8992801Y-12763150D01*
X8992801Y-12763150D02*
X9030896Y-12763150D01*
X9030896Y-12763150D02*
X9049944Y-12772674D01*
X9049944Y-12772674D02*
X9059467Y-12782198D01*
X9059467Y-12782198D02*
X9068991Y-12801246D01*
X9068991Y-12801246D02*
X9068991Y-12858388D01*
X9068991Y-12858388D02*
X9059467Y-12877436D01*
X9059467Y-12877436D02*
X9049944Y-12886960D01*
X9049944Y-12886960D02*
X9030896Y-12896484D01*
X9030896Y-12896484D02*
X8992801Y-12896484D01*
X8992801Y-12896484D02*
X8973753Y-12886960D01*
X9154705Y-12877436D02*
X9164229Y-12886960D01*
X9164229Y-12886960D02*
X9154705Y-12896484D01*
X9154705Y-12896484D02*
X9145182Y-12886960D01*
X9145182Y-12886960D02*
X9154705Y-12877436D01*
X9154705Y-12877436D02*
X9154705Y-12896484D01*
X9154705Y-12772674D02*
X9164229Y-12782198D01*
X9164229Y-12782198D02*
X9154705Y-12791722D01*
X9154705Y-12791722D02*
X9145182Y-12782198D01*
X9145182Y-12782198D02*
X9154705Y-12772674D01*
X9154705Y-12772674D02*
X9154705Y-12791722D01*
D12*
X7497100Y-13212300D02*
X7522500Y-13237700D01*
X7522500Y-13212300D02*
X7497100Y-13237700D01*
D11*
X7821372Y-13116484D02*
X7840420Y-13116484D01*
X7840420Y-13116484D02*
X7859467Y-13126008D01*
X7859467Y-13126008D02*
X7868991Y-13135531D01*
X7868991Y-13135531D02*
X7878515Y-13154579D01*
X7878515Y-13154579D02*
X7888039Y-13192674D01*
X7888039Y-13192674D02*
X7888039Y-13240293D01*
X7888039Y-13240293D02*
X7878515Y-13278388D01*
X7878515Y-13278388D02*
X7868991Y-13297436D01*
X7868991Y-13297436D02*
X7859467Y-13306960D01*
X7859467Y-13306960D02*
X7840420Y-13316484D01*
X7840420Y-13316484D02*
X7821372Y-13316484D01*
X7821372Y-13316484D02*
X7802324Y-13306960D01*
X7802324Y-13306960D02*
X7792801Y-13297436D01*
X7792801Y-13297436D02*
X7783277Y-13278388D01*
X7783277Y-13278388D02*
X7773753Y-13240293D01*
X7773753Y-13240293D02*
X7773753Y-13192674D01*
X7773753Y-13192674D02*
X7783277Y-13154579D01*
X7783277Y-13154579D02*
X7792801Y-13135531D01*
X7792801Y-13135531D02*
X7802324Y-13126008D01*
X7802324Y-13126008D02*
X7821372Y-13116484D01*
X7973753Y-13297436D02*
X7983277Y-13306960D01*
X7983277Y-13306960D02*
X7973753Y-13316484D01*
X7973753Y-13316484D02*
X7964229Y-13306960D01*
X7964229Y-13306960D02*
X7973753Y-13297436D01*
X7973753Y-13297436D02*
X7973753Y-13316484D01*
X8059467Y-13135531D02*
X8068991Y-13126008D01*
X8068991Y-13126008D02*
X8088039Y-13116484D01*
X8088039Y-13116484D02*
X8135658Y-13116484D01*
X8135658Y-13116484D02*
X8154705Y-13126008D01*
X8154705Y-13126008D02*
X8164229Y-13135531D01*
X8164229Y-13135531D02*
X8173753Y-13154579D01*
X8173753Y-13154579D02*
X8173753Y-13173627D01*
X8173753Y-13173627D02*
X8164229Y-13202198D01*
X8164229Y-13202198D02*
X8049943Y-13316484D01*
X8049943Y-13316484D02*
X8173753Y-13316484D01*
X8354705Y-13116484D02*
X8259467Y-13116484D01*
X8259467Y-13116484D02*
X8249943Y-13211722D01*
X8249943Y-13211722D02*
X8259467Y-13202198D01*
X8259467Y-13202198D02*
X8278515Y-13192674D01*
X8278515Y-13192674D02*
X8326134Y-13192674D01*
X8326134Y-13192674D02*
X8345182Y-13202198D01*
X8345182Y-13202198D02*
X8354705Y-13211722D01*
X8354705Y-13211722D02*
X8364229Y-13230769D01*
X8364229Y-13230769D02*
X8364229Y-13278388D01*
X8364229Y-13278388D02*
X8354705Y-13297436D01*
X8354705Y-13297436D02*
X8345182Y-13306960D01*
X8345182Y-13306960D02*
X8326134Y-13316484D01*
X8326134Y-13316484D02*
X8278515Y-13316484D01*
X8278515Y-13316484D02*
X8259467Y-13306960D01*
X8259467Y-13306960D02*
X8249943Y-13297436D01*
X8535658Y-13183150D02*
X8535658Y-13316484D01*
X8488039Y-13106960D02*
X8440420Y-13249817D01*
X8440420Y-13249817D02*
X8564229Y-13249817D01*
X8640420Y-13316484D02*
X8640420Y-13183150D01*
X8640420Y-13202198D02*
X8649944Y-13192674D01*
X8649944Y-13192674D02*
X8668991Y-13183150D01*
X8668991Y-13183150D02*
X8697563Y-13183150D01*
X8697563Y-13183150D02*
X8716610Y-13192674D01*
X8716610Y-13192674D02*
X8726134Y-13211722D01*
X8726134Y-13211722D02*
X8726134Y-13316484D01*
X8726134Y-13211722D02*
X8735658Y-13192674D01*
X8735658Y-13192674D02*
X8754705Y-13183150D01*
X8754705Y-13183150D02*
X8783277Y-13183150D01*
X8783277Y-13183150D02*
X8802325Y-13192674D01*
X8802325Y-13192674D02*
X8811848Y-13211722D01*
X8811848Y-13211722D02*
X8811848Y-13316484D01*
X8907086Y-13316484D02*
X8907086Y-13183150D01*
X8907086Y-13202198D02*
X8916610Y-13192674D01*
X8916610Y-13192674D02*
X8935658Y-13183150D01*
X8935658Y-13183150D02*
X8964229Y-13183150D01*
X8964229Y-13183150D02*
X8983277Y-13192674D01*
X8983277Y-13192674D02*
X8992801Y-13211722D01*
X8992801Y-13211722D02*
X8992801Y-13316484D01*
X8992801Y-13211722D02*
X9002325Y-13192674D01*
X9002325Y-13192674D02*
X9021372Y-13183150D01*
X9021372Y-13183150D02*
X9049944Y-13183150D01*
X9049944Y-13183150D02*
X9068991Y-13192674D01*
X9068991Y-13192674D02*
X9078515Y-13211722D01*
X9078515Y-13211722D02*
X9078515Y-13316484D01*
X9468991Y-13106960D02*
X9297563Y-13364103D01*
X9726134Y-13116484D02*
X9745182Y-13116484D01*
X9745182Y-13116484D02*
X9764229Y-13126008D01*
X9764229Y-13126008D02*
X9773753Y-13135531D01*
X9773753Y-13135531D02*
X9783277Y-13154579D01*
X9783277Y-13154579D02*
X9792801Y-13192674D01*
X9792801Y-13192674D02*
X9792801Y-13240293D01*
X9792801Y-13240293D02*
X9783277Y-13278388D01*
X9783277Y-13278388D02*
X9773753Y-13297436D01*
X9773753Y-13297436D02*
X9764229Y-13306960D01*
X9764229Y-13306960D02*
X9745182Y-13316484D01*
X9745182Y-13316484D02*
X9726134Y-13316484D01*
X9726134Y-13316484D02*
X9707087Y-13306960D01*
X9707087Y-13306960D02*
X9697563Y-13297436D01*
X9697563Y-13297436D02*
X9688039Y-13278388D01*
X9688039Y-13278388D02*
X9678515Y-13240293D01*
X9678515Y-13240293D02*
X9678515Y-13192674D01*
X9678515Y-13192674D02*
X9688039Y-13154579D01*
X9688039Y-13154579D02*
X9697563Y-13135531D01*
X9697563Y-13135531D02*
X9707087Y-13126008D01*
X9707087Y-13126008D02*
X9726134Y-13116484D01*
X9878515Y-13297436D02*
X9888039Y-13306960D01*
X9888039Y-13306960D02*
X9878515Y-13316484D01*
X9878515Y-13316484D02*
X9868991Y-13306960D01*
X9868991Y-13306960D02*
X9878515Y-13297436D01*
X9878515Y-13297436D02*
X9878515Y-13316484D01*
X10011848Y-13116484D02*
X10030896Y-13116484D01*
X10030896Y-13116484D02*
X10049944Y-13126008D01*
X10049944Y-13126008D02*
X10059468Y-13135531D01*
X10059468Y-13135531D02*
X10068991Y-13154579D01*
X10068991Y-13154579D02*
X10078515Y-13192674D01*
X10078515Y-13192674D02*
X10078515Y-13240293D01*
X10078515Y-13240293D02*
X10068991Y-13278388D01*
X10068991Y-13278388D02*
X10059468Y-13297436D01*
X10059468Y-13297436D02*
X10049944Y-13306960D01*
X10049944Y-13306960D02*
X10030896Y-13316484D01*
X10030896Y-13316484D02*
X10011848Y-13316484D01*
X10011848Y-13316484D02*
X9992801Y-13306960D01*
X9992801Y-13306960D02*
X9983277Y-13297436D01*
X9983277Y-13297436D02*
X9973753Y-13278388D01*
X9973753Y-13278388D02*
X9964229Y-13240293D01*
X9964229Y-13240293D02*
X9964229Y-13192674D01*
X9964229Y-13192674D02*
X9973753Y-13154579D01*
X9973753Y-13154579D02*
X9983277Y-13135531D01*
X9983277Y-13135531D02*
X9992801Y-13126008D01*
X9992801Y-13126008D02*
X10011848Y-13116484D01*
X10268991Y-13316484D02*
X10154706Y-13316484D01*
X10211848Y-13316484D02*
X10211848Y-13116484D01*
X10211848Y-13116484D02*
X10192801Y-13145055D01*
X10192801Y-13145055D02*
X10173753Y-13164103D01*
X10173753Y-13164103D02*
X10154706Y-13173627D01*
X10392801Y-13116484D02*
X10411849Y-13116484D01*
X10411849Y-13116484D02*
X10430896Y-13126008D01*
X10430896Y-13126008D02*
X10440420Y-13135531D01*
X10440420Y-13135531D02*
X10449944Y-13154579D01*
X10449944Y-13154579D02*
X10459468Y-13192674D01*
X10459468Y-13192674D02*
X10459468Y-13240293D01*
X10459468Y-13240293D02*
X10449944Y-13278388D01*
X10449944Y-13278388D02*
X10440420Y-13297436D01*
X10440420Y-13297436D02*
X10430896Y-13306960D01*
X10430896Y-13306960D02*
X10411849Y-13316484D01*
X10411849Y-13316484D02*
X10392801Y-13316484D01*
X10392801Y-13316484D02*
X10373753Y-13306960D01*
X10373753Y-13306960D02*
X10364229Y-13297436D01*
X10364229Y-13297436D02*
X10354706Y-13278388D01*
X10354706Y-13278388D02*
X10345182Y-13240293D01*
X10345182Y-13240293D02*
X10345182Y-13192674D01*
X10345182Y-13192674D02*
X10354706Y-13154579D01*
X10354706Y-13154579D02*
X10364229Y-13135531D01*
X10364229Y-13135531D02*
X10373753Y-13126008D01*
X10373753Y-13126008D02*
X10392801Y-13116484D01*
X10583277Y-13116484D02*
X10602325Y-13116484D01*
X10602325Y-13116484D02*
X10621372Y-13126008D01*
X10621372Y-13126008D02*
X10630896Y-13135531D01*
X10630896Y-13135531D02*
X10640420Y-13154579D01*
X10640420Y-13154579D02*
X10649944Y-13192674D01*
X10649944Y-13192674D02*
X10649944Y-13240293D01*
X10649944Y-13240293D02*
X10640420Y-13278388D01*
X10640420Y-13278388D02*
X10630896Y-13297436D01*
X10630896Y-13297436D02*
X10621372Y-13306960D01*
X10621372Y-13306960D02*
X10602325Y-13316484D01*
X10602325Y-13316484D02*
X10583277Y-13316484D01*
X10583277Y-13316484D02*
X10564229Y-13306960D01*
X10564229Y-13306960D02*
X10554706Y-13297436D01*
X10554706Y-13297436D02*
X10545182Y-13278388D01*
X10545182Y-13278388D02*
X10535658Y-13240293D01*
X10535658Y-13240293D02*
X10535658Y-13192674D01*
X10535658Y-13192674D02*
X10545182Y-13154579D01*
X10545182Y-13154579D02*
X10554706Y-13135531D01*
X10554706Y-13135531D02*
X10564229Y-13126008D01*
X10564229Y-13126008D02*
X10583277Y-13116484D01*
X10726134Y-13116484D02*
X10726134Y-13154579D01*
X10802325Y-13116484D02*
X10802325Y-13154579D01*
X11097563Y-13392674D02*
X11088039Y-13383150D01*
X11088039Y-13383150D02*
X11068991Y-13354579D01*
X11068991Y-13354579D02*
X11059468Y-13335531D01*
X11059468Y-13335531D02*
X11049944Y-13306960D01*
X11049944Y-13306960D02*
X11040420Y-13259341D01*
X11040420Y-13259341D02*
X11040420Y-13221246D01*
X11040420Y-13221246D02*
X11049944Y-13173627D01*
X11049944Y-13173627D02*
X11059468Y-13145055D01*
X11059468Y-13145055D02*
X11068991Y-13126008D01*
X11068991Y-13126008D02*
X11088039Y-13097436D01*
X11088039Y-13097436D02*
X11097563Y-13087912D01*
X11278515Y-13316484D02*
X11164230Y-13316484D01*
X11221372Y-13316484D02*
X11221372Y-13116484D01*
X11221372Y-13116484D02*
X11202325Y-13145055D01*
X11202325Y-13145055D02*
X11183277Y-13164103D01*
X11183277Y-13164103D02*
X11164230Y-13173627D01*
X11354706Y-13135531D02*
X11364229Y-13126008D01*
X11364229Y-13126008D02*
X11383277Y-13116484D01*
X11383277Y-13116484D02*
X11430896Y-13116484D01*
X11430896Y-13116484D02*
X11449944Y-13126008D01*
X11449944Y-13126008D02*
X11459468Y-13135531D01*
X11459468Y-13135531D02*
X11468991Y-13154579D01*
X11468991Y-13154579D02*
X11468991Y-13173627D01*
X11468991Y-13173627D02*
X11459468Y-13202198D01*
X11459468Y-13202198D02*
X11345182Y-13316484D01*
X11345182Y-13316484D02*
X11468991Y-13316484D01*
X11583277Y-13202198D02*
X11564229Y-13192674D01*
X11564229Y-13192674D02*
X11554706Y-13183150D01*
X11554706Y-13183150D02*
X11545182Y-13164103D01*
X11545182Y-13164103D02*
X11545182Y-13154579D01*
X11545182Y-13154579D02*
X11554706Y-13135531D01*
X11554706Y-13135531D02*
X11564229Y-13126008D01*
X11564229Y-13126008D02*
X11583277Y-13116484D01*
X11583277Y-13116484D02*
X11621372Y-13116484D01*
X11621372Y-13116484D02*
X11640420Y-13126008D01*
X11640420Y-13126008D02*
X11649944Y-13135531D01*
X11649944Y-13135531D02*
X11659468Y-13154579D01*
X11659468Y-13154579D02*
X11659468Y-13164103D01*
X11659468Y-13164103D02*
X11649944Y-13183150D01*
X11649944Y-13183150D02*
X11640420Y-13192674D01*
X11640420Y-13192674D02*
X11621372Y-13202198D01*
X11621372Y-13202198D02*
X11583277Y-13202198D01*
X11583277Y-13202198D02*
X11564229Y-13211722D01*
X11564229Y-13211722D02*
X11554706Y-13221246D01*
X11554706Y-13221246D02*
X11545182Y-13240293D01*
X11545182Y-13240293D02*
X11545182Y-13278388D01*
X11545182Y-13278388D02*
X11554706Y-13297436D01*
X11554706Y-13297436D02*
X11564229Y-13306960D01*
X11564229Y-13306960D02*
X11583277Y-13316484D01*
X11583277Y-13316484D02*
X11621372Y-13316484D01*
X11621372Y-13316484D02*
X11640420Y-13306960D01*
X11640420Y-13306960D02*
X11649944Y-13297436D01*
X11649944Y-13297436D02*
X11659468Y-13278388D01*
X11659468Y-13278388D02*
X11659468Y-13240293D01*
X11659468Y-13240293D02*
X11649944Y-13221246D01*
X11649944Y-13221246D02*
X11640420Y-13211722D01*
X11640420Y-13211722D02*
X11621372Y-13202198D01*
X11897563Y-13316484D02*
X11897563Y-13116484D01*
X11983277Y-13316484D02*
X11983277Y-13211722D01*
X11983277Y-13211722D02*
X11973753Y-13192674D01*
X11973753Y-13192674D02*
X11954706Y-13183150D01*
X11954706Y-13183150D02*
X11926134Y-13183150D01*
X11926134Y-13183150D02*
X11907087Y-13192674D01*
X11907087Y-13192674D02*
X11897563Y-13202198D01*
X12107087Y-13316484D02*
X12088039Y-13306960D01*
X12088039Y-13306960D02*
X12078515Y-13297436D01*
X12078515Y-13297436D02*
X12068991Y-13278388D01*
X12068991Y-13278388D02*
X12068991Y-13221246D01*
X12068991Y-13221246D02*
X12078515Y-13202198D01*
X12078515Y-13202198D02*
X12088039Y-13192674D01*
X12088039Y-13192674D02*
X12107087Y-13183150D01*
X12107087Y-13183150D02*
X12135658Y-13183150D01*
X12135658Y-13183150D02*
X12154706Y-13192674D01*
X12154706Y-13192674D02*
X12164230Y-13202198D01*
X12164230Y-13202198D02*
X12173753Y-13221246D01*
X12173753Y-13221246D02*
X12173753Y-13278388D01*
X12173753Y-13278388D02*
X12164230Y-13297436D01*
X12164230Y-13297436D02*
X12154706Y-13306960D01*
X12154706Y-13306960D02*
X12135658Y-13316484D01*
X12135658Y-13316484D02*
X12107087Y-13316484D01*
X12288039Y-13316484D02*
X12268991Y-13306960D01*
X12268991Y-13306960D02*
X12259468Y-13287912D01*
X12259468Y-13287912D02*
X12259468Y-13116484D01*
X12440420Y-13306960D02*
X12421372Y-13316484D01*
X12421372Y-13316484D02*
X12383277Y-13316484D01*
X12383277Y-13316484D02*
X12364230Y-13306960D01*
X12364230Y-13306960D02*
X12354706Y-13287912D01*
X12354706Y-13287912D02*
X12354706Y-13211722D01*
X12354706Y-13211722D02*
X12364230Y-13192674D01*
X12364230Y-13192674D02*
X12383277Y-13183150D01*
X12383277Y-13183150D02*
X12421372Y-13183150D01*
X12421372Y-13183150D02*
X12440420Y-13192674D01*
X12440420Y-13192674D02*
X12449944Y-13211722D01*
X12449944Y-13211722D02*
X12449944Y-13230769D01*
X12449944Y-13230769D02*
X12354706Y-13249817D01*
X12526134Y-13306960D02*
X12545182Y-13316484D01*
X12545182Y-13316484D02*
X12583277Y-13316484D01*
X12583277Y-13316484D02*
X12602325Y-13306960D01*
X12602325Y-13306960D02*
X12611849Y-13287912D01*
X12611849Y-13287912D02*
X12611849Y-13278388D01*
X12611849Y-13278388D02*
X12602325Y-13259341D01*
X12602325Y-13259341D02*
X12583277Y-13249817D01*
X12583277Y-13249817D02*
X12554706Y-13249817D01*
X12554706Y-13249817D02*
X12535658Y-13240293D01*
X12535658Y-13240293D02*
X12526134Y-13221246D01*
X12526134Y-13221246D02*
X12526134Y-13211722D01*
X12526134Y-13211722D02*
X12535658Y-13192674D01*
X12535658Y-13192674D02*
X12554706Y-13183150D01*
X12554706Y-13183150D02*
X12583277Y-13183150D01*
X12583277Y-13183150D02*
X12602325Y-13192674D01*
X12678515Y-13392674D02*
X12688039Y-13383150D01*
X12688039Y-13383150D02*
X12707087Y-13354579D01*
X12707087Y-13354579D02*
X12716611Y-13335531D01*
X12716611Y-13335531D02*
X12726134Y-13306960D01*
X12726134Y-13306960D02*
X12735658Y-13259341D01*
X12735658Y-13259341D02*
X12735658Y-13221246D01*
X12735658Y-13221246D02*
X12726134Y-13173627D01*
X12726134Y-13173627D02*
X12716611Y-13145055D01*
X12716611Y-13145055D02*
X12707087Y-13126008D01*
X12707087Y-13126008D02*
X12688039Y-13097436D01*
X12688039Y-13097436D02*
X12678515Y-13087912D01*
D12*
X7522500Y-13489000D02*
G75*
G02*
X7422500Y-13489000I-50000J0D01*
G01*
X7422500Y-13489000D02*
G75*
G02*
X7522500Y-13489000I50000J0D01*
G01*
D11*
X7888039Y-13580484D02*
X7773753Y-13580484D01*
X7830896Y-13580484D02*
X7830896Y-13380484D01*
X7830896Y-13380484D02*
X7811848Y-13409055D01*
X7811848Y-13409055D02*
X7792801Y-13428103D01*
X7792801Y-13428103D02*
X7773753Y-13437627D01*
X7973753Y-13561436D02*
X7983277Y-13570960D01*
X7983277Y-13570960D02*
X7973753Y-13580484D01*
X7973753Y-13580484D02*
X7964229Y-13570960D01*
X7964229Y-13570960D02*
X7973753Y-13561436D01*
X7973753Y-13561436D02*
X7973753Y-13580484D01*
X8107086Y-13380484D02*
X8126134Y-13380484D01*
X8126134Y-13380484D02*
X8145182Y-13390008D01*
X8145182Y-13390008D02*
X8154705Y-13399531D01*
X8154705Y-13399531D02*
X8164229Y-13418579D01*
X8164229Y-13418579D02*
X8173753Y-13456674D01*
X8173753Y-13456674D02*
X8173753Y-13504293D01*
X8173753Y-13504293D02*
X8164229Y-13542388D01*
X8164229Y-13542388D02*
X8154705Y-13561436D01*
X8154705Y-13561436D02*
X8145182Y-13570960D01*
X8145182Y-13570960D02*
X8126134Y-13580484D01*
X8126134Y-13580484D02*
X8107086Y-13580484D01*
X8107086Y-13580484D02*
X8088039Y-13570960D01*
X8088039Y-13570960D02*
X8078515Y-13561436D01*
X8078515Y-13561436D02*
X8068991Y-13542388D01*
X8068991Y-13542388D02*
X8059467Y-13504293D01*
X8059467Y-13504293D02*
X8059467Y-13456674D01*
X8059467Y-13456674D02*
X8068991Y-13418579D01*
X8068991Y-13418579D02*
X8078515Y-13399531D01*
X8078515Y-13399531D02*
X8088039Y-13390008D01*
X8088039Y-13390008D02*
X8107086Y-13380484D01*
X8297562Y-13380484D02*
X8316610Y-13380484D01*
X8316610Y-13380484D02*
X8335658Y-13390008D01*
X8335658Y-13390008D02*
X8345182Y-13399531D01*
X8345182Y-13399531D02*
X8354705Y-13418579D01*
X8354705Y-13418579D02*
X8364229Y-13456674D01*
X8364229Y-13456674D02*
X8364229Y-13504293D01*
X8364229Y-13504293D02*
X8354705Y-13542388D01*
X8354705Y-13542388D02*
X8345182Y-13561436D01*
X8345182Y-13561436D02*
X8335658Y-13570960D01*
X8335658Y-13570960D02*
X8316610Y-13580484D01*
X8316610Y-13580484D02*
X8297562Y-13580484D01*
X8297562Y-13580484D02*
X8278515Y-13570960D01*
X8278515Y-13570960D02*
X8268991Y-13561436D01*
X8268991Y-13561436D02*
X8259467Y-13542388D01*
X8259467Y-13542388D02*
X8249943Y-13504293D01*
X8249943Y-13504293D02*
X8249943Y-13456674D01*
X8249943Y-13456674D02*
X8259467Y-13418579D01*
X8259467Y-13418579D02*
X8268991Y-13399531D01*
X8268991Y-13399531D02*
X8278515Y-13390008D01*
X8278515Y-13390008D02*
X8297562Y-13380484D01*
X8488039Y-13380484D02*
X8507086Y-13380484D01*
X8507086Y-13380484D02*
X8526134Y-13390008D01*
X8526134Y-13390008D02*
X8535658Y-13399531D01*
X8535658Y-13399531D02*
X8545182Y-13418579D01*
X8545182Y-13418579D02*
X8554705Y-13456674D01*
X8554705Y-13456674D02*
X8554705Y-13504293D01*
X8554705Y-13504293D02*
X8545182Y-13542388D01*
X8545182Y-13542388D02*
X8535658Y-13561436D01*
X8535658Y-13561436D02*
X8526134Y-13570960D01*
X8526134Y-13570960D02*
X8507086Y-13580484D01*
X8507086Y-13580484D02*
X8488039Y-13580484D01*
X8488039Y-13580484D02*
X8468991Y-13570960D01*
X8468991Y-13570960D02*
X8459467Y-13561436D01*
X8459467Y-13561436D02*
X8449944Y-13542388D01*
X8449944Y-13542388D02*
X8440420Y-13504293D01*
X8440420Y-13504293D02*
X8440420Y-13456674D01*
X8440420Y-13456674D02*
X8449944Y-13418579D01*
X8449944Y-13418579D02*
X8459467Y-13399531D01*
X8459467Y-13399531D02*
X8468991Y-13390008D01*
X8468991Y-13390008D02*
X8488039Y-13380484D01*
X8640420Y-13580484D02*
X8640420Y-13447150D01*
X8640420Y-13466198D02*
X8649944Y-13456674D01*
X8649944Y-13456674D02*
X8668991Y-13447150D01*
X8668991Y-13447150D02*
X8697563Y-13447150D01*
X8697563Y-13447150D02*
X8716610Y-13456674D01*
X8716610Y-13456674D02*
X8726134Y-13475722D01*
X8726134Y-13475722D02*
X8726134Y-13580484D01*
X8726134Y-13475722D02*
X8735658Y-13456674D01*
X8735658Y-13456674D02*
X8754705Y-13447150D01*
X8754705Y-13447150D02*
X8783277Y-13447150D01*
X8783277Y-13447150D02*
X8802325Y-13456674D01*
X8802325Y-13456674D02*
X8811848Y-13475722D01*
X8811848Y-13475722D02*
X8811848Y-13580484D01*
X8907086Y-13580484D02*
X8907086Y-13447150D01*
X8907086Y-13466198D02*
X8916610Y-13456674D01*
X8916610Y-13456674D02*
X8935658Y-13447150D01*
X8935658Y-13447150D02*
X8964229Y-13447150D01*
X8964229Y-13447150D02*
X8983277Y-13456674D01*
X8983277Y-13456674D02*
X8992801Y-13475722D01*
X8992801Y-13475722D02*
X8992801Y-13580484D01*
X8992801Y-13475722D02*
X9002325Y-13456674D01*
X9002325Y-13456674D02*
X9021372Y-13447150D01*
X9021372Y-13447150D02*
X9049944Y-13447150D01*
X9049944Y-13447150D02*
X9068991Y-13456674D01*
X9068991Y-13456674D02*
X9078515Y-13475722D01*
X9078515Y-13475722D02*
X9078515Y-13580484D01*
X9468991Y-13370960D02*
X9297563Y-13628103D01*
X9726134Y-13380484D02*
X9745182Y-13380484D01*
X9745182Y-13380484D02*
X9764229Y-13390008D01*
X9764229Y-13390008D02*
X9773753Y-13399531D01*
X9773753Y-13399531D02*
X9783277Y-13418579D01*
X9783277Y-13418579D02*
X9792801Y-13456674D01*
X9792801Y-13456674D02*
X9792801Y-13504293D01*
X9792801Y-13504293D02*
X9783277Y-13542388D01*
X9783277Y-13542388D02*
X9773753Y-13561436D01*
X9773753Y-13561436D02*
X9764229Y-13570960D01*
X9764229Y-13570960D02*
X9745182Y-13580484D01*
X9745182Y-13580484D02*
X9726134Y-13580484D01*
X9726134Y-13580484D02*
X9707087Y-13570960D01*
X9707087Y-13570960D02*
X9697563Y-13561436D01*
X9697563Y-13561436D02*
X9688039Y-13542388D01*
X9688039Y-13542388D02*
X9678515Y-13504293D01*
X9678515Y-13504293D02*
X9678515Y-13456674D01*
X9678515Y-13456674D02*
X9688039Y-13418579D01*
X9688039Y-13418579D02*
X9697563Y-13399531D01*
X9697563Y-13399531D02*
X9707087Y-13390008D01*
X9707087Y-13390008D02*
X9726134Y-13380484D01*
X9878515Y-13561436D02*
X9888039Y-13570960D01*
X9888039Y-13570960D02*
X9878515Y-13580484D01*
X9878515Y-13580484D02*
X9868991Y-13570960D01*
X9868991Y-13570960D02*
X9878515Y-13561436D01*
X9878515Y-13561436D02*
X9878515Y-13580484D01*
X10011848Y-13380484D02*
X10030896Y-13380484D01*
X10030896Y-13380484D02*
X10049944Y-13390008D01*
X10049944Y-13390008D02*
X10059468Y-13399531D01*
X10059468Y-13399531D02*
X10068991Y-13418579D01*
X10068991Y-13418579D02*
X10078515Y-13456674D01*
X10078515Y-13456674D02*
X10078515Y-13504293D01*
X10078515Y-13504293D02*
X10068991Y-13542388D01*
X10068991Y-13542388D02*
X10059468Y-13561436D01*
X10059468Y-13561436D02*
X10049944Y-13570960D01*
X10049944Y-13570960D02*
X10030896Y-13580484D01*
X10030896Y-13580484D02*
X10011848Y-13580484D01*
X10011848Y-13580484D02*
X9992801Y-13570960D01*
X9992801Y-13570960D02*
X9983277Y-13561436D01*
X9983277Y-13561436D02*
X9973753Y-13542388D01*
X9973753Y-13542388D02*
X9964229Y-13504293D01*
X9964229Y-13504293D02*
X9964229Y-13456674D01*
X9964229Y-13456674D02*
X9973753Y-13418579D01*
X9973753Y-13418579D02*
X9983277Y-13399531D01*
X9983277Y-13399531D02*
X9992801Y-13390008D01*
X9992801Y-13390008D02*
X10011848Y-13380484D01*
X10145182Y-13380484D02*
X10268991Y-13380484D01*
X10268991Y-13380484D02*
X10202325Y-13456674D01*
X10202325Y-13456674D02*
X10230896Y-13456674D01*
X10230896Y-13456674D02*
X10249944Y-13466198D01*
X10249944Y-13466198D02*
X10259468Y-13475722D01*
X10259468Y-13475722D02*
X10268991Y-13494769D01*
X10268991Y-13494769D02*
X10268991Y-13542388D01*
X10268991Y-13542388D02*
X10259468Y-13561436D01*
X10259468Y-13561436D02*
X10249944Y-13570960D01*
X10249944Y-13570960D02*
X10230896Y-13580484D01*
X10230896Y-13580484D02*
X10173753Y-13580484D01*
X10173753Y-13580484D02*
X10154706Y-13570960D01*
X10154706Y-13570960D02*
X10145182Y-13561436D01*
X10364229Y-13580484D02*
X10402325Y-13580484D01*
X10402325Y-13580484D02*
X10421372Y-13570960D01*
X10421372Y-13570960D02*
X10430896Y-13561436D01*
X10430896Y-13561436D02*
X10449944Y-13532865D01*
X10449944Y-13532865D02*
X10459468Y-13494769D01*
X10459468Y-13494769D02*
X10459468Y-13418579D01*
X10459468Y-13418579D02*
X10449944Y-13399531D01*
X10449944Y-13399531D02*
X10440420Y-13390008D01*
X10440420Y-13390008D02*
X10421372Y-13380484D01*
X10421372Y-13380484D02*
X10383277Y-13380484D01*
X10383277Y-13380484D02*
X10364229Y-13390008D01*
X10364229Y-13390008D02*
X10354706Y-13399531D01*
X10354706Y-13399531D02*
X10345182Y-13418579D01*
X10345182Y-13418579D02*
X10345182Y-13466198D01*
X10345182Y-13466198D02*
X10354706Y-13485246D01*
X10354706Y-13485246D02*
X10364229Y-13494769D01*
X10364229Y-13494769D02*
X10383277Y-13504293D01*
X10383277Y-13504293D02*
X10421372Y-13504293D01*
X10421372Y-13504293D02*
X10440420Y-13494769D01*
X10440420Y-13494769D02*
X10449944Y-13485246D01*
X10449944Y-13485246D02*
X10459468Y-13466198D01*
X10630896Y-13447150D02*
X10630896Y-13580484D01*
X10583277Y-13370960D02*
X10535658Y-13513817D01*
X10535658Y-13513817D02*
X10659468Y-13513817D01*
X10726134Y-13380484D02*
X10726134Y-13418579D01*
X10802325Y-13380484D02*
X10802325Y-13418579D01*
X11097563Y-13656674D02*
X11088039Y-13647150D01*
X11088039Y-13647150D02*
X11068991Y-13618579D01*
X11068991Y-13618579D02*
X11059468Y-13599531D01*
X11059468Y-13599531D02*
X11049944Y-13570960D01*
X11049944Y-13570960D02*
X11040420Y-13523341D01*
X11040420Y-13523341D02*
X11040420Y-13485246D01*
X11040420Y-13485246D02*
X11049944Y-13437627D01*
X11049944Y-13437627D02*
X11059468Y-13409055D01*
X11059468Y-13409055D02*
X11068991Y-13390008D01*
X11068991Y-13390008D02*
X11088039Y-13361436D01*
X11088039Y-13361436D02*
X11097563Y-13351912D01*
X11164230Y-13399531D02*
X11173753Y-13390008D01*
X11173753Y-13390008D02*
X11192801Y-13380484D01*
X11192801Y-13380484D02*
X11240420Y-13380484D01*
X11240420Y-13380484D02*
X11259468Y-13390008D01*
X11259468Y-13390008D02*
X11268991Y-13399531D01*
X11268991Y-13399531D02*
X11278515Y-13418579D01*
X11278515Y-13418579D02*
X11278515Y-13437627D01*
X11278515Y-13437627D02*
X11268991Y-13466198D01*
X11268991Y-13466198D02*
X11154706Y-13580484D01*
X11154706Y-13580484D02*
X11278515Y-13580484D01*
X11354706Y-13399531D02*
X11364229Y-13390008D01*
X11364229Y-13390008D02*
X11383277Y-13380484D01*
X11383277Y-13380484D02*
X11430896Y-13380484D01*
X11430896Y-13380484D02*
X11449944Y-13390008D01*
X11449944Y-13390008D02*
X11459468Y-13399531D01*
X11459468Y-13399531D02*
X11468991Y-13418579D01*
X11468991Y-13418579D02*
X11468991Y-13437627D01*
X11468991Y-13437627D02*
X11459468Y-13466198D01*
X11459468Y-13466198D02*
X11345182Y-13580484D01*
X11345182Y-13580484D02*
X11468991Y-13580484D01*
X11707087Y-13580484D02*
X11707087Y-13380484D01*
X11792801Y-13580484D02*
X11792801Y-13475722D01*
X11792801Y-13475722D02*
X11783277Y-13456674D01*
X11783277Y-13456674D02*
X11764230Y-13447150D01*
X11764230Y-13447150D02*
X11735658Y-13447150D01*
X11735658Y-13447150D02*
X11716610Y-13456674D01*
X11716610Y-13456674D02*
X11707087Y-13466198D01*
X11916610Y-13580484D02*
X11897563Y-13570960D01*
X11897563Y-13570960D02*
X11888039Y-13561436D01*
X11888039Y-13561436D02*
X11878515Y-13542388D01*
X11878515Y-13542388D02*
X11878515Y-13485246D01*
X11878515Y-13485246D02*
X11888039Y-13466198D01*
X11888039Y-13466198D02*
X11897563Y-13456674D01*
X11897563Y-13456674D02*
X11916610Y-13447150D01*
X11916610Y-13447150D02*
X11945182Y-13447150D01*
X11945182Y-13447150D02*
X11964230Y-13456674D01*
X11964230Y-13456674D02*
X11973753Y-13466198D01*
X11973753Y-13466198D02*
X11983277Y-13485246D01*
X11983277Y-13485246D02*
X11983277Y-13542388D01*
X11983277Y-13542388D02*
X11973753Y-13561436D01*
X11973753Y-13561436D02*
X11964230Y-13570960D01*
X11964230Y-13570960D02*
X11945182Y-13580484D01*
X11945182Y-13580484D02*
X11916610Y-13580484D01*
X12097563Y-13580484D02*
X12078515Y-13570960D01*
X12078515Y-13570960D02*
X12068991Y-13551912D01*
X12068991Y-13551912D02*
X12068991Y-13380484D01*
X12249944Y-13570960D02*
X12230896Y-13580484D01*
X12230896Y-13580484D02*
X12192801Y-13580484D01*
X12192801Y-13580484D02*
X12173753Y-13570960D01*
X12173753Y-13570960D02*
X12164230Y-13551912D01*
X12164230Y-13551912D02*
X12164230Y-13475722D01*
X12164230Y-13475722D02*
X12173753Y-13456674D01*
X12173753Y-13456674D02*
X12192801Y-13447150D01*
X12192801Y-13447150D02*
X12230896Y-13447150D01*
X12230896Y-13447150D02*
X12249944Y-13456674D01*
X12249944Y-13456674D02*
X12259468Y-13475722D01*
X12259468Y-13475722D02*
X12259468Y-13494769D01*
X12259468Y-13494769D02*
X12164230Y-13513817D01*
X12335658Y-13570960D02*
X12354706Y-13580484D01*
X12354706Y-13580484D02*
X12392801Y-13580484D01*
X12392801Y-13580484D02*
X12411849Y-13570960D01*
X12411849Y-13570960D02*
X12421372Y-13551912D01*
X12421372Y-13551912D02*
X12421372Y-13542388D01*
X12421372Y-13542388D02*
X12411849Y-13523341D01*
X12411849Y-13523341D02*
X12392801Y-13513817D01*
X12392801Y-13513817D02*
X12364230Y-13513817D01*
X12364230Y-13513817D02*
X12345182Y-13504293D01*
X12345182Y-13504293D02*
X12335658Y-13485246D01*
X12335658Y-13485246D02*
X12335658Y-13475722D01*
X12335658Y-13475722D02*
X12345182Y-13456674D01*
X12345182Y-13456674D02*
X12364230Y-13447150D01*
X12364230Y-13447150D02*
X12392801Y-13447150D01*
X12392801Y-13447150D02*
X12411849Y-13456674D01*
X12488039Y-13656674D02*
X12497563Y-13647150D01*
X12497563Y-13647150D02*
X12516611Y-13618579D01*
X12516611Y-13618579D02*
X12526134Y-13599531D01*
X12526134Y-13599531D02*
X12535658Y-13570960D01*
X12535658Y-13570960D02*
X12545182Y-13523341D01*
X12545182Y-13523341D02*
X12545182Y-13485246D01*
X12545182Y-13485246D02*
X12535658Y-13437627D01*
X12535658Y-13437627D02*
X12526134Y-13409055D01*
X12526134Y-13409055D02*
X12516611Y-13390008D01*
X12516611Y-13390008D02*
X12497563Y-13361436D01*
X12497563Y-13361436D02*
X12488039Y-13351912D01*
M02*
